<svg id="图层_1" data-name="图层 1" xmlns="http://www.w3.org/2000/svg" viewBox="0 0 300 300"><defs><style>.cls-1{fill:#384248;}.cls-2{fill:#9d9d9e;}.cls-3{fill:#7ecef4;}.cls-4{fill:#125488;}.cls-5{fill:#51a4f6;}.cls-6{fill:#007cc3;}.cls-7{fill:#4694d1;}.cls-8{fill:#fff;}</style></defs><title>ico2 [已恢复]</title><path class="cls-1" d="M44.13,54.62a3,3,0,0,1-.9,2.26,3.12,3.12,0,0,1-2.13,1.17,3.77,3.77,0,0,1-2.86-1.12,3.68,3.68,0,0,1-1.45-2.7,3,3,0,0,1,.9-2.26,3.12,3.12,0,0,1,2.13-1.17,3.71,3.71,0,0,1,2.86,1.12A3.75,3.75,0,0,1,44.13,54.62Zm-1.4,0A3.47,3.47,0,0,0,40,52.19a1.66,1.66,0,0,0-1.39.6,1.71,1.71,0,0,0-.44,1.46,3.46,3.46,0,0,0,2.72,2.42,1.71,1.71,0,0,0,1.4-.61A1.67,1.67,0,0,0,42.73,54.6Z"/><path class="cls-1" d="M41,48.65l3.48-3.56.88.85-2.46,2.53,1.15,1.12,2.16-2.22.87.85-2.17,2.22,2.1,2-1,1Z"/><path class="cls-1" d="M45.34,44.26,49,40.84l.85.89-2.57,2.43,1.1,1.17,2.25-2.13.84.88-2.25,2.13,2,2.13-1.06,1Z"/><path class="cls-1" d="M54.56,37.59,51.77,40l1,1.12,2.56-2.22.79.92-2.56,2.22,1.17,1.36,2.93-2.53.82.95-4,3.46L49.88,40l3.87-3.35Z"/><path class="cls-1" d="M54.92,35.69l1.2-.95,5.19,2.12L58.3,33l1.07-.84,4.32,5.49-1.15.9-5.3-2.14,3.07,3.9-1.07.84Z"/><path class="cls-1" d="M64.35,34.54A1.39,1.39,0,0,0,65,35a1.53,1.53,0,0,0,1.26-.37,2.42,2.42,0,0,0,.63-.59.8.8,0,0,0,0-1,.6.6,0,0,0-.56-.26,3.42,3.42,0,0,0-1,.3l-.71.3a4.84,4.84,0,0,1-1.56.46A1.72,1.72,0,0,1,61.65,33a2,2,0,0,1-.34-1.68A2.92,2.92,0,0,1,62.6,29.6,3.15,3.15,0,0,1,64.49,29a2.07,2.07,0,0,1,1.66.91L65,30.69a1,1,0,0,0-1-.4,1.91,1.91,0,0,0-.81.36,1.65,1.65,0,0,0-.62.72.72.72,0,0,0,.09.72.58.58,0,0,0,.6.25,3.49,3.49,0,0,0,.92-.3l1.17-.47a3.06,3.06,0,0,1,1.28-.29,1.67,1.67,0,0,1,1.33.8,2,2,0,0,1,.32,1.72A3.09,3.09,0,0,1,67,35.53a3.46,3.46,0,0,1-2.13.75,2,2,0,0,1-1.64-.94Z"/><path class="cls-1" d="M71.19,25.59l-3.11,2,.81,1.25L71.74,27l.66,1-2.85,1.85,1,1.5,3.25-2.09.68,1.05L70,33.19l-3.79-5.86,4.31-2.78Z"/><path class="cls-1" d="M292.79,121a2.37,2.37,0,0,1-.62,1.35,3.12,3.12,0,0,1-1,.72,4.87,4.87,0,0,1-1.1.36,4.7,4.7,0,0,1-2.43-.06,2.53,2.53,0,0,1-1.75-2l-.62-2.95L292.1,117l.62,2.94A3.9,3.9,0,0,1,292.79,121Zm-1.59-2.4-4.46.93.28,1.32a1.46,1.46,0,0,0,1.29,1.21,3.5,3.5,0,0,0,1.35-.06,3.21,3.21,0,0,0,1.53-.66,1.42,1.42,0,0,0,.29-1.42Z"/><path class="cls-1" d="M293.13,129.4l-.58-3.65-1.46.23.53,3.35-1.2.19-.53-3.35-1.78.29.61,3.81-1.24.2-.83-5.22,6.9-1.11.8,5.06Z"/><path class="cls-1" d="M294.54,130.71l.57,4.95-1.21.14-.41-3.51-1.59.19.35,3.07-1.2.14-.36-3.07-2.91.33-.16-1.44Z"/><path class="cls-1" d="M294.36,142.08l-.26-3.69-1.48.11.24,3.38-1.21.09-.24-3.39-1.79.13.27,3.86-1.25.09-.38-5.28,7-.5.37,5.11Z"/><path class="cls-1" d="M295.67,143.53l0,1.53-4.8,2.89,4.87-.12,0,1.36-7,.17,0-1.46,4.89-3-5,.12,0-1.36Z"/><path class="cls-1" d="M291,151.75a1.41,1.41,0,0,0-.72.25,1.59,1.59,0,0,0-.46,1.23,2.89,2.89,0,0,0,.1.86.81.81,0,0,0,.8.64.58.58,0,0,0,.54-.29,3.38,3.38,0,0,0,.35-1l.18-.76a4.64,4.64,0,0,1,.57-1.51,1.7,1.7,0,0,1,1.52-.68,2,2,0,0,1,1.55.73,3,3,0,0,1,.57,2,3,3,0,0,1-.62,1.89,2.08,2.08,0,0,1-1.72.79l0-1.4a1,1,0,0,0,.91-.54,1.87,1.87,0,0,0,.19-.87,1.73,1.73,0,0,0-.2-.93.75.75,0,0,0-.63-.36.62.62,0,0,0-.57.33,4.61,4.61,0,0,0-.31.92l-.31,1.22a3.06,3.06,0,0,1-.54,1.2,1.67,1.67,0,0,1-1.44.59,2,2,0,0,1-1.57-.77,3.14,3.14,0,0,1-.59-2.11,3.39,3.39,0,0,1,.68-2.15,2,2,0,0,1,1.72-.75Z"/><path class="cls-1" d="M294,162.61l.25-3.69-1.48-.1-.23,3.38-1.21-.08.23-3.38-1.8-.12-.25,3.85-1.26-.08.36-5.28,7,.47-.35,5.11Z"/><path class="cls-2" d="M148.88,5.17a144.21,144.21,0,0,0-70.51,18.3l.91,1.09a143.5,143.5,0,0,1,208,87.54l1.42-.1A144.9,144.9,0,0,0,148.88,5.17Z"/><path class="cls-2" d="M291,169.28A143.47,143.47,0,0,1,148.88,293.44c-1.86,0-3.71-.05-5.55-.12l.3,1.41c1.74.06,3.49.1,5.25.1A144.85,144.85,0,0,0,292.45,169.17Z"/><path class="cls-2" d="M5.44,150A142.84,142.84,0,0,1,35.75,61.81l-.92-1.09A144.85,144.85,0,0,0,46.34,252.28l.81-1.17A143,143,0,0,1,5.44,150Z"/><path class="cls-3" d="M148.25,17.17a132.22,132.22,0,0,0-76.1,23.95L120.7,109.8a49.37,49.37,0,0,1,55.54.65L225.56,42A132.26,132.26,0,0,0,148.25,17.17Z"/><path class="cls-4" d="M98.59,151a49.33,49.33,0,0,1,19.35-39.21L69.39,43.11A133,133,0,0,0,21.65,190.33l78.84-25.78A49.35,49.35,0,0,1,98.59,151Z"/><path class="cls-5" d="M101.53,167.82,22.74,193.59a132.9,132.9,0,0,0,124.44,89.24l.4-82.44A49.45,49.45,0,0,1,101.53,167.82Z"/><path class="cls-6" d="M274,193l-79.36-25.61A49.43,49.43,0,0,1,151,200.3l-.4,82.5A132.91,132.91,0,0,0,274,193Z"/><path class="cls-7" d="M281.08,150a132.63,132.63,0,0,0-52.8-106L179,112.48a49.4,49.4,0,0,1,16.68,51.65L275,189.75A132.78,132.78,0,0,0,281.08,150Z"/><path class="cls-1" d="M124.56,149.8v-6.47h1.35v2.47h2.52v-2.47h1.34v6.47h-1.34v-2.89h-2.52v2.89Z"/><path class="cls-1" d="M133.23,143.33h1.38v4a2.2,2.2,0,0,0,.16,1,1,1,0,0,0,1.06.54,1.05,1.05,0,0,0,1.07-.54,2.35,2.35,0,0,0,.16-1v-4h1.37v4a3.4,3.4,0,0,1-.32,1.61,3,3,0,0,1-4.56,0,3.4,3.4,0,0,1-.32-1.61Z"/><path class="cls-1" d="M143.74,143.33h1.54l2.29,6.47H146.1l-.43-1.33h-2.38l-.44,1.33h-1.42Zm-.08,4h1.65l-.81-2.55Z"/><path class="cls-1" d="M150.55,143.33h1.38v4a2.2,2.2,0,0,0,.16,1,1,1,0,0,0,1.06.54,1.05,1.05,0,0,0,1.07-.54,2.35,2.35,0,0,0,.16-1v-4h1.37v4a3.4,3.4,0,0,1-.32,1.61,3,3,0,0,1-4.56,0,3.4,3.4,0,0,1-.32-1.61Z"/><path class="cls-1" d="M159.19,143.33h1.42l2.57,4.51v-4.51h1.26v6.47h-1.35l-2.64-4.59v4.59h-1.26Z"/><path class="cls-1" d="M172.81,148.89a3.3,3.3,0,0,1-4.57,0,3.27,3.27,0,0,1,.07-4.66,3.16,3.16,0,0,1,2.23-.88,3.25,3.25,0,0,1,2.27,5.56Zm-4.17-4.2a2.68,2.68,0,0,0,1.9,4.57,2.54,2.54,0,0,0,1.88-.79,2.62,2.62,0,0,0,.79-1.9,2.71,2.71,0,0,0-2.67-2.69A2.53,2.53,0,0,0,168.64,144.69Zm.48,3.68v-3.59h1.74a1.8,1.8,0,0,1,.71.18.91.91,0,0,1,.48.86.77.77,0,0,1-.26.65,1.23,1.23,0,0,1-.62.24,1.22,1.22,0,0,1,.51.21,1,1,0,0,1,.32.8v.43l0,.11,0,.1h-.89a2.61,2.61,0,0,1-.06-.5,1.62,1.62,0,0,0-.06-.44.44.44,0,0,0-.27-.26,1,1,0,0,0-.32-.06h-.4v1.27Zm1.71-2.89a1.57,1.57,0,0,0-.54-.07h-.23v1h.36a.89.89,0,0,0,.52-.13.5.5,0,0,0,.18-.43A.41.41,0,0,0,170.83,145.48Z"/><path class="cls-1" d="M120.28,158.6a1.26,1.26,0,0,0,.25.67,1.45,1.45,0,0,0,1.15.4,2.42,2.42,0,0,0,.79-.11.74.74,0,0,0,.58-.75.56.56,0,0,0-.28-.5,3.32,3.32,0,0,0-.9-.3l-.7-.15a4.28,4.28,0,0,1-1.42-.5,1.58,1.58,0,0,1-.66-1.4,1.9,1.9,0,0,1,.64-1.45,2.77,2.77,0,0,1,1.89-.57,2.86,2.86,0,0,1,1.76.54,1.91,1.91,0,0,1,.77,1.57h-1.3a.94.94,0,0,0-.52-.83,2,2,0,0,0-.81-.16,1.51,1.51,0,0,0-.85.21.66.66,0,0,0-.32.59.55.55,0,0,0,.31.52,3.62,3.62,0,0,0,.86.27l1.14.27a2.73,2.73,0,0,1,1.12.47,1.56,1.56,0,0,1,.58,1.32,1.85,1.85,0,0,1-.69,1.47,2.85,2.85,0,0,1-1.94.59,3.14,3.14,0,0,1-2-.58,1.89,1.89,0,0,1-.73-1.59Z"/><path class="cls-1" d="M132.26,155.27h-3.43v1.38H132v1.12h-3.15v1.67h3.59v1.16h-4.91v-6.47h4.75Z"/><path class="cls-1" d="M136.25,154.8a3,3,0,0,1,4.35.28,2.29,2.29,0,0,1,.45,1.2h-1.36a1.69,1.69,0,0,0-.33-.7,1.47,1.47,0,0,0-2.21.17,2.91,2.91,0,0,0-.42,1.69,2.56,2.56,0,0,0,.44,1.63,1.41,1.41,0,0,0,1.12.55,1.26,1.26,0,0,0,1.06-.47,2,2,0,0,0,.34-.75H141a3,3,0,0,1-.89,1.72,2.61,2.61,0,0,1-1.84.66,2.77,2.77,0,0,1-2.17-.89,4.26,4.26,0,0,1,.11-5.09Z"/><path class="cls-1" d="M144.29,154.13h1.38v4a2.38,2.38,0,0,0,.15,1,1.33,1.33,0,0,0,2.14,0,2.38,2.38,0,0,0,.15-1v-4h1.38v4a3.4,3.4,0,0,1-.32,1.61,3,3,0,0,1-4.56,0,3.4,3.4,0,0,1-.32-1.61Z"/><path class="cls-1" d="M157.1,154.29a1.73,1.73,0,0,1,.61.46,2.08,2.08,0,0,1,.32.54,1.83,1.83,0,0,1,.12.68,2,2,0,0,1-.23.91,1.29,1.29,0,0,1-.77.63,1.24,1.24,0,0,1,.64.51,2.21,2.21,0,0,1,.18,1v.43a2.63,2.63,0,0,0,0,.6.52.52,0,0,0,.25.37v.16h-1.5a3.67,3.67,0,0,1-.14-.9v-.6a1.3,1.3,0,0,0-.21-.83,1.1,1.1,0,0,0-.78-.21H154.3v2.54H153v-6.47h3.1A2.72,2.72,0,0,1,157.1,154.29Zm-2.8,1V157h1.46a1.55,1.55,0,0,0,.65-.1.73.73,0,0,0,.38-.73.8.8,0,0,0-.37-.79,1.26,1.26,0,0,0-.62-.12Z"/><path class="cls-1" d="M162.84,160.6H161.5v-6.47h1.34Z"/><path class="cls-1" d="M171,154.13v1.14H169v5.33h-1.36v-5.33h-2v-1.14Z"/><path class="cls-1" d="M177.62,154.13h1.54l-2.17,4v2.43h-1.35v-2.43l-2.24-4H175l1.35,2.82Z"/><path class="cls-8" d="M134.37,41.29a18.36,18.36,0,0,1-1.57,4.8.48.48,0,0,0,0,.14c.28.67.54,1,.75,1s.33-.65.49-1.81l1.07.68a11.62,11.62,0,0,1-.59,1.69c-.26.54-.56.82-.88.82s-.89-.4-1.32-1.16a2.32,2.32,0,0,1-.2-.38,5.64,5.64,0,0,1-1.45,1.47l-.62-.91a6.06,6.06,0,0,0,1.59-1.79c-.16-.53-.32-1.13-.46-1.79a24.91,24.91,0,0,1-.42-4H126v2.41a18.87,18.87,0,0,1-.92,6.14l-1-.86a14.34,14.34,0,0,0,.83-5.28V39h5.9c0-.43,0-.88,0-1.31h1.14c0,.46,0,.89,0,1.31h1a9.33,9.33,0,0,0-.46-1l1-.16A10.47,10.47,0,0,1,134,39h.82V40.1h-2.85a25.6,25.6,0,0,0,.26,3.14c.06.45.13.85.2,1.23a19.29,19.29,0,0,0,1-3.6Zm-8,.67V41h3.9v1h-1.52c-.1.38-.18.75-.28,1.11h1.87V44a6.65,6.65,0,0,1-.79,2.21c.28.18.54.36.79.55l-.58.87A7.88,7.88,0,0,0,129,47a6.45,6.45,0,0,1-2.37,1.64l-.56-1a6,6,0,0,0,2-1.26c-.45-.26-1-.54-1.52-.83.22-.54.42-1.05.6-1.56h-.74v-1h1.05c.12-.39.22-.76.31-1.11Zm3,2.07H128.2c-.13.39-.26.77-.4,1.13.28.14.58.3.87.47A5.92,5.92,0,0,0,129.38,44Z"/><path class="cls-8" d="M136.88,48.75l-.92-.83a9.43,9.43,0,0,0,.75-4V38H140v9.42c0,.82-.35,1.24-1,1.24h-.76l-.3-1.08c.27,0,.5.05.71.05s.29-.21.29-.59v-2.2h-1.18A10.65,10.65,0,0,1,136.88,48.75Zm2-9.62h-1.14V41h1.14Zm-1.14,4.68h1.14V42h-1.14Zm5.71-6.12v1.85h2.18c0,4.13-.06,6.69-.17,7.66a1.56,1.56,0,0,1-1.78,1.45c-.22,0-.58,0-1.08-.07l-.29-1.08c.46,0,.84,0,1.17,0q.8,0,.93-.9t.13-6h-1.09v.7c0,3.38-.87,5.85-2.47,7.41L140.1,48q2.25-2.07,2.29-6.62v-.7h-2v-1.1h2V37.69Zm-1.82,4.58a15.14,15.14,0,0,1-.53,3.2l-1-.3a10.82,10.82,0,0,0,.62-3ZM147.2,45l-.87.39c-.19-1.18-.4-2.24-.64-3.16l.76-.25C146.73,43,147,44,147.2,45Z"/><path class="cls-8" d="M149.18,40.09a17,17,0,0,1-.39,3.42l-.85-.24a17.84,17.84,0,0,0,.38-3.24Zm6.9-2.41v.69h2.69v.93h-2.69v.61h2.28v.91h-2.28v.59h3v.93h-7.24V42l-.61.14a16.64,16.64,0,0,0-.65-2V48.7h-1.1v-11h1.1V40l.74-.25a13,13,0,0,1,.6,1.68h3v-.59h-2.31v-.91H155V39.3h-2.72v-.93H155v-.69Zm-2.36,11h-1.07V42.88h5.7v4.68c0,.73-.39,1.1-1.16,1.1h-.9l-.27-1,.85.06a.37.37,0,0,0,.4-.41v-.47h-3.55Zm3.55-4.91h-3.55v.68h3.55ZM153.72,46h3.55v-.64h-3.55Z"/><path class="cls-8" d="M164.25,43.49c-.43.22-.85.41-1.28.59v3.43c0,.79-.38,1.2-1.15,1.2h-1.13l-.26-1.09a6.75,6.75,0,0,0,1,.07.39.39,0,0,0,.44-.45V44.53c-.52.19-1,.37-1.58.54L160,43.94a16.69,16.69,0,0,0,1.87-.53V40.88h-1.64V39.79h1.64V37.71H163v2.08h1.25v1.09H163V43c.43-.19.86-.4,1.28-.61Zm1.57,5.26h-1.08V38.1h5.53a11.83,11.83,0,0,1-.22,2.82c-.16.45-.64.68-1.44.68h-.9l-.31-1h.69a3.53,3.53,0,0,0,.64,0,.53.53,0,0,0,.3-.24,4.11,4.11,0,0,0,.15-1.22h-3.36v3.25h4.54v1a7.87,7.87,0,0,1-1.15,3.16,9.16,9.16,0,0,0,2,1.36l-.77.89a10.66,10.66,0,0,1-1.84-1.43,6.73,6.73,0,0,1-2,1.44l-.55-1a5.8,5.8,0,0,0,1.76-1.3,6.51,6.51,0,0,1-1.43-3.07h-.53Zm2.59-3.08a7.39,7.39,0,0,0,.88-2.25h-1.92A5.2,5.2,0,0,0,168.41,45.67Z"/><path class="cls-8" d="M109.34,65.23h0v6.28h-.68v-7.2h.77l4.16,6.29h0V64.31h.68v7.2h-.79Z"/><path class="cls-8" d="M115.25,64.31H116l2.17,6.4,2.16-6.4H121l-2.5,7.2h-.75Z"/><path class="cls-8" d="M122,71.51v-7.2h2.46l.59,0a3.42,3.42,0,0,1,.57.07,2.66,2.66,0,0,1,.55.16,2.44,2.44,0,0,1,.52.29,2.57,2.57,0,0,1,.59.64,3.76,3.76,0,0,1,.36.79,4.66,4.66,0,0,1,.19.84,5.45,5.45,0,0,1,0,.78,6.06,6.06,0,0,1,0,.73,5.88,5.88,0,0,1-.14.73,4.37,4.37,0,0,1-.27.68,2.65,2.65,0,0,1-.42.59,1.91,1.91,0,0,1-.54.45,2.84,2.84,0,0,1-.62.27,4.81,4.81,0,0,1-.68.13c-.23,0-.46,0-.71,0Zm.69-.58h1.63a7.81,7.81,0,0,0,.86-.05,2.5,2.5,0,0,0,.82-.28,1.5,1.5,0,0,0,.59-.49,2.44,2.44,0,0,0,.37-.67,3.94,3.94,0,0,0,.19-.77,5.09,5.09,0,0,0,.06-.77,7.13,7.13,0,0,0,0-.79,3.23,3.23,0,0,0-.2-.77,2.12,2.12,0,0,0-.38-.67,1.85,1.85,0,0,0-.62-.51,2.28,2.28,0,0,0-.75-.22,8.85,8.85,0,0,0-.89,0h-1.63Z"/><path class="cls-8" d="M136.06,69.65a2.07,2.07,0,0,0,.24-.67,4.4,4.4,0,0,0,0-.73h.6a5.47,5.47,0,0,1-.12,1,2.74,2.74,0,0,1-.38.9l1.18,1.38h-.82l-.7-.85a2.75,2.75,0,0,1-1,.8,3.08,3.08,0,0,1-1.26.24,2.5,2.5,0,0,1-.88-.15,2.1,2.1,0,0,1-1.2-1.11,2.13,2.13,0,0,1-.17-.88,1.84,1.84,0,0,1,.14-.74,2.17,2.17,0,0,1,.37-.62,2.88,2.88,0,0,1,.55-.49,3.55,3.55,0,0,1,.66-.38,5.75,5.75,0,0,1-.54-.73,1.69,1.69,0,0,1-.24-.88,1.3,1.3,0,0,1,.14-.6,1.19,1.19,0,0,1,.35-.45,1.38,1.38,0,0,1,.51-.27,2.16,2.16,0,0,1,.62-.09,1.75,1.75,0,0,1,.62.11,1.51,1.51,0,0,1,.47.3,1.42,1.42,0,0,1,.32.45,1.4,1.4,0,0,1,.11.53,1.54,1.54,0,0,1-.12.63,1.82,1.82,0,0,1-.31.47,2.48,2.48,0,0,1-.46.37c-.17.12-.35.23-.54.34Zm-2.39-1.89a3.48,3.48,0,0,0-.56.34,2.25,2.25,0,0,0-.44.43,2,2,0,0,0-.29.52,1.36,1.36,0,0,0-.11.56,1.67,1.67,0,0,0,.12.65,1.39,1.39,0,0,0,.34.48,1.32,1.32,0,0,0,.51.31,1.71,1.71,0,0,0,.65.11,2,2,0,0,0,1-.26,3.14,3.14,0,0,0,.81-.7Zm1.27-1.65a.76.76,0,0,0,.08-.42.83.83,0,0,0-.13-.41.87.87,0,0,0-.32-.31.89.89,0,0,0-.47-.12,1.15,1.15,0,0,0-.37.06,1.11,1.11,0,0,0-.3.17.9.9,0,0,0-.21.27.73.73,0,0,0-.08.36.77.77,0,0,0,.08.35,1.85,1.85,0,0,0,.19.37l.24.35.24.28q.3-.18.6-.39A1.29,1.29,0,0,0,134.94,66.11Z"/><path class="cls-8" d="M143.66,68.33l-2.09,3.18h-.76l2.47-3.7-2.38-3.5h.79l2,3,2-3h.79l-2.37,3.5,2.47,3.7h-.77Z"/><path class="cls-8" d="M146.89,71.51l2.83-7.2h.76l2.76,7.2h-.69l-.83-2.26h-3.28l-.85,2.26Zm1.78-2.84h2.81l-1.41-3.78Z"/><path class="cls-8" d="M154.45,71.51v-7.2h.69v7.2Z"/><path class="cls-8" d="M160.35,71.51h-.6v-7.2h.6v2.85a1.86,1.86,0,0,1,.8-.72,2.32,2.32,0,0,1,1-.25,2.21,2.21,0,0,1,1,.23,2.11,2.11,0,0,1,.72.6,2.51,2.51,0,0,1,.42.87,3.63,3.63,0,0,1,.14,1,4.08,4.08,0,0,1-.13,1.07,2.26,2.26,0,0,1-.41.87,2,2,0,0,1-.73.57,2.46,2.46,0,0,1-1.07.21,1.89,1.89,0,0,1-.51-.07,2.3,2.3,0,0,1-.95-.52,1.57,1.57,0,0,1-.34-.46h0Zm0-2.61a3.07,3.07,0,0,0,.12.88,2.39,2.39,0,0,0,.33.7,1.63,1.63,0,0,0,.55.46,1.66,1.66,0,0,0,.75.17,1.75,1.75,0,0,0,.7-.13,1.48,1.48,0,0,0,.56-.4,1.8,1.8,0,0,0,.38-.63,2.57,2.57,0,0,0,.13-.87,3,3,0,0,0-.08-.91,2,2,0,0,0-.32-.75,1.5,1.5,0,0,0-.56-.5,1.62,1.62,0,0,0-.81-.19,1.49,1.49,0,0,0-.73.18,1.55,1.55,0,0,0-.55.47,2,2,0,0,0-.35.69A3.2,3.2,0,0,0,160.35,68.9Z"/><path class="cls-8" d="M168.18,68.49l.4-.06a1.29,1.29,0,0,0,.39-.11.31.31,0,0,0,.18-.23,1.76,1.76,0,0,0,0-.31,1,1,0,0,0-.3-.75,1.36,1.36,0,0,0-1-.3,2.65,2.65,0,0,0-.58.06,1.14,1.14,0,0,0-.45.19,1,1,0,0,0-.32.36,1.43,1.43,0,0,0-.16.56h-.62a1.94,1.94,0,0,1,.21-.78,1.51,1.51,0,0,1,.47-.53,1.81,1.81,0,0,1,.66-.3,2.9,2.9,0,0,1,.79-.1,2.94,2.94,0,0,1,.74.09,1.5,1.5,0,0,1,.6.27,1.29,1.29,0,0,1,.4.49,1.75,1.75,0,0,1,.14.76v2.82a.59.59,0,0,0,.13.45c.08.06.25.05.5,0v.47l-.2.06a.84.84,0,0,1-.27,0,1.09,1.09,0,0,1-.26,0,.38.38,0,0,1-.24-.09.52.52,0,0,1-.15-.18.62.62,0,0,1-.07-.23,1.24,1.24,0,0,1,0-.27,2.54,2.54,0,0,1-1.92.86,2.39,2.39,0,0,1-.66-.09,1.51,1.51,0,0,1-.55-.28,1.3,1.3,0,0,1-.38-.46,1.37,1.37,0,0,1-.15-.66c0-.88.61-1.4,1.82-1.56Zm1,.3a2.74,2.74,0,0,1-.78.21c-.26,0-.51.06-.77.08a2.35,2.35,0,0,0-1.08.31.89.89,0,0,0-.38.79.93.93,0,0,0,.09.42,1,1,0,0,0,.25.29,1.2,1.2,0,0,0,.36.17,1.93,1.93,0,0,0,.42,0A2.67,2.67,0,0,0,168,71a2,2,0,0,0,.61-.27,1.39,1.39,0,0,0,.59-1.15Z"/><path class="cls-8" d="M171.7,69.89a1.6,1.6,0,0,0,.51,1,1.72,1.72,0,0,0,1,.27,1.64,1.64,0,0,0,.57-.08,1.08,1.08,0,0,0,.4-.21.87.87,0,0,0,.23-.31.73.73,0,0,0,.08-.36.66.66,0,0,0-.24-.56,1.7,1.7,0,0,0-.62-.29,7.35,7.35,0,0,0-.8-.18,4.11,4.11,0,0,1-.8-.23,1.57,1.57,0,0,1-.61-.43,1.17,1.17,0,0,1-.25-.79,1.33,1.33,0,0,1,.48-1.06,2,2,0,0,1,1.34-.42,2.31,2.31,0,0,1,1.37.38,1.7,1.7,0,0,1,.63,1.25h-.61A1.09,1.09,0,0,0,174,67a1.66,1.66,0,0,0-.95-.25,1.31,1.31,0,0,0-.87.25.79.79,0,0,0-.3.64.65.65,0,0,0,.25.54,2.17,2.17,0,0,0,.61.3c.25.07.52.14.8.2a3.75,3.75,0,0,1,.8.26,1.66,1.66,0,0,1,.62.44,1.17,1.17,0,0,1,.24.78,1.29,1.29,0,0,1-.16.66,1.24,1.24,0,0,1-.44.47,2,2,0,0,1-.66.29,3.76,3.76,0,0,1-.85.09,2.3,2.3,0,0,1-.81-.13,1.8,1.8,0,0,1-.61-.38,1.87,1.87,0,0,1-.39-.56,2.18,2.18,0,0,1-.16-.69Z"/><path class="cls-8" d="M176.72,69.06a3,3,0,0,0,.11.8,2.21,2.21,0,0,0,.33.65,1.56,1.56,0,0,0,.54.44,1.7,1.7,0,0,0,.76.16,1.62,1.62,0,0,0,1-.31,1.49,1.49,0,0,0,.56-.88h.67a3,3,0,0,1-.29.69,2.17,2.17,0,0,1-.45.55,1.9,1.9,0,0,1-.64.36,2.47,2.47,0,0,1-.86.13,2.52,2.52,0,0,1-1.07-.21,2.1,2.1,0,0,1-.74-.57,2.67,2.67,0,0,1-.43-.86,4.07,4.07,0,0,1-.14-1.07,3.43,3.43,0,0,1,.17-1.07,2.8,2.8,0,0,1,.47-.87,2.13,2.13,0,0,1,.74-.59,2.19,2.19,0,0,1,1-.22,2.05,2.05,0,0,1,1.68.74,3.18,3.18,0,0,1,.6,2.13Zm3.38-.5a2.34,2.34,0,0,0-.1-.71,1.54,1.54,0,0,0-.31-.58,1.35,1.35,0,0,0-.52-.39,1.73,1.73,0,0,0-1.41,0,1.72,1.72,0,0,0-.52.4,2.24,2.24,0,0,0-.35.58,3.25,3.25,0,0,0-.17.7Z"/><path class="cls-8" d="M185.91,64.31h.6v7.2h-.6V70.6h0a1.57,1.57,0,0,1-.34.46,2,2,0,0,1-.45.32,1.87,1.87,0,0,1-.51.2,1.79,1.79,0,0,1-.51.07,2.49,2.49,0,0,1-1.07-.21,2,2,0,0,1-.72-.57,2.43,2.43,0,0,1-.42-.87,4.54,4.54,0,0,1-.13-1.07,3.63,3.63,0,0,1,.15-1,2.51,2.51,0,0,1,.42-.87,2.11,2.11,0,0,1,.72-.6,2.19,2.19,0,0,1,1-.23,2.33,2.33,0,0,1,1.06.25,1.78,1.78,0,0,1,.79.72Zm0,4.59a2.82,2.82,0,0,0-.12-.83,2,2,0,0,0-.34-.69,1.55,1.55,0,0,0-.55-.47,1.5,1.5,0,0,0-.74-.18,1.62,1.62,0,0,0-.81.19,1.67,1.67,0,0,0-.56.5,2.33,2.33,0,0,0-.32.75,3.37,3.37,0,0,0-.07.91,2.57,2.57,0,0,0,.13.87,1.78,1.78,0,0,0,.37.63,1.56,1.56,0,0,0,.56.4,1.82,1.82,0,0,0,.7.13,1.66,1.66,0,0,0,.75-.17,1.54,1.54,0,0,0,.55-.46,2.17,2.17,0,0,0,.34-.7A3.08,3.08,0,0,0,185.91,68.9Z"/><path class="cls-8" d="M106.33,76.31h5.23v.58h-2.27v6.62h-.69V76.89h-2.27Z"/><path class="cls-8" d="M112.45,83.51v-7.2h.6v2.74a3.81,3.81,0,0,1,.74-.62,1.72,1.72,0,0,1,.93-.24,2.3,2.3,0,0,1,.88.17,1.53,1.53,0,0,1,.7.57,1.34,1.34,0,0,1,.22.58,5.86,5.86,0,0,1,0,.61v3.39H116V80.13a1.6,1.6,0,0,0-.31-1,1.33,1.33,0,0,0-1-.35,1.55,1.55,0,0,0-.93.31,1.34,1.34,0,0,0-.31.32,1.27,1.27,0,0,0-.2.38,2.4,2.4,0,0,0-.12.48c0,.16,0,.32,0,.5v2.79Z"/><path class="cls-8" d="M118.64,83.51H118V78.33h.6v1h0a1.7,1.7,0,0,1,.64-.86,1.9,1.9,0,0,1,1-.25v.65a1.88,1.88,0,0,0-.84.16,1.49,1.49,0,0,0-.53.46,1.85,1.85,0,0,0-.27.69,4.39,4.39,0,0,0-.07.82Z"/><path class="cls-8" d="M121.7,81.06a3,3,0,0,0,.11.8,2.21,2.21,0,0,0,.33.65,1.6,1.6,0,0,0,.55.44,1.62,1.62,0,0,0,.75.16,1.6,1.6,0,0,0,1-.31,1.55,1.55,0,0,0,.57-.88h.67a3.57,3.57,0,0,1-.29.69,2.45,2.45,0,0,1-.46.55,1.85,1.85,0,0,1-.63.36,2.89,2.89,0,0,1-1.94-.08,2,2,0,0,1-.73-.57,2.5,2.5,0,0,1-.44-.86,4.07,4.07,0,0,1-.14-1.07,3.43,3.43,0,0,1,.17-1.07,2.8,2.8,0,0,1,.47-.87,2.13,2.13,0,0,1,.74-.59,2.19,2.19,0,0,1,1-.22,2.05,2.05,0,0,1,1.68.74,3.24,3.24,0,0,1,.61,2.13Zm3.39-.5a2.35,2.35,0,0,0-.11-.71,1.54,1.54,0,0,0-.31-.58,1.35,1.35,0,0,0-.52-.39,1.73,1.73,0,0,0-1.41,0,1.72,1.72,0,0,0-.52.4,2.24,2.24,0,0,0-.35.58,3.25,3.25,0,0,0-.17.7Z"/><path class="cls-8" d="M129.27,80.49l.41-.06a1.08,1.08,0,0,0,.38-.11.28.28,0,0,0,.19-.23,1.71,1.71,0,0,0,0-.31A1,1,0,0,0,130,79a1.37,1.37,0,0,0-1-.3,2.47,2.47,0,0,0-.56.06A1.12,1.12,0,0,0,128,79a1,1,0,0,0-.32.36,1.61,1.61,0,0,0-.17.56h-.6a1.79,1.79,0,0,1,.21-.78,1.4,1.4,0,0,1,.46-.53,1.81,1.81,0,0,1,.66-.3,3,3,0,0,1,.8-.1,2.86,2.86,0,0,1,.73.09,1.5,1.5,0,0,1,.6.27,1.29,1.29,0,0,1,.4.49,1.75,1.75,0,0,1,.15.76v2.82c0,.24,0,.38.12.45s.25.05.51,0v.47l-.21.06a.82.82,0,0,1-.26,0,1.27,1.27,0,0,1-.28,0,.5.5,0,0,1-.24-.09.86.86,0,0,1-.14-.18.9.9,0,0,1-.08-.23,2.44,2.44,0,0,1,0-.27,2.65,2.65,0,0,1-.87.64,2.56,2.56,0,0,1-1.07.22,2.37,2.37,0,0,1-.65-.09,1.55,1.55,0,0,1-.56-.28,1.42,1.42,0,0,1-.38-.46,1.5,1.5,0,0,1-.13-.66q0-1.32,1.8-1.56Zm1,.3a2.7,2.7,0,0,1-.76.21c-.26,0-.53.06-.79.08a2.3,2.3,0,0,0-1.07.31.9.9,0,0,0-.39.79.93.93,0,0,0,.1.42,1,1,0,0,0,.25.29,1.2,1.2,0,0,0,.36.17,2,2,0,0,0,.42,0,2.74,2.74,0,0,0,.7-.09,2,2,0,0,0,.6-.27,1.49,1.49,0,0,0,.43-.47,1.45,1.45,0,0,0,.15-.68Z"/><path class="cls-8" d="M134.27,83.53l-.29.07a1.6,1.6,0,0,1-.39.05,1,1,0,0,1-.69-.22,1.09,1.09,0,0,1-.23-.81V78.83h-.73v-.5h.73V76.89h.6v1.44h1v.5h-1v3.88a.52.52,0,0,0,.07.23.24.24,0,0,0,.15.13.78.78,0,0,0,.29,0,1.06,1.06,0,0,0,.25,0l.24,0Z"/><path class="cls-8" d="M138.35,83.51v-7.2H139v7.2Z"/><path class="cls-8" d="M141.4,83.51h-.6V78.33h.6v.72a3.81,3.81,0,0,1,.74-.62,1.7,1.7,0,0,1,.92-.24,2.31,2.31,0,0,1,.89.17,1.53,1.53,0,0,1,.7.57,1.34,1.34,0,0,1,.22.58,5.93,5.93,0,0,1,0,.61v3.39h-.59V80.13a1.55,1.55,0,0,0-.32-1,1.31,1.31,0,0,0-1-.35A1.55,1.55,0,0,0,142,79a1.34,1.34,0,0,0-.31.32,1.58,1.58,0,0,0-.21.38,3.26,3.26,0,0,0-.11.48c0,.16,0,.32,0,.5Z"/><path class="cls-8" d="M148.18,83.53l-.29.07a1.7,1.7,0,0,1-.41.05,1,1,0,0,1-.68-.22,1.09,1.09,0,0,1-.24-.81V78.83h-.72v-.5h.72V76.89h.6v1.44h1v.5h-1v3.55a2.92,2.92,0,0,0,0,.33.52.52,0,0,0,0,.23.29.29,0,0,0,.16.13.8.8,0,0,0,.3,0,1,1,0,0,0,.24,0l.25,0Z"/><path class="cls-8" d="M149.51,81.06a2.62,2.62,0,0,0,.11.8,2,2,0,0,0,.32.65,1.66,1.66,0,0,0,.54.44,1.74,1.74,0,0,0,.77.16,1.64,1.64,0,0,0,1-.31,1.47,1.47,0,0,0,.55-.88h.67a3,3,0,0,1-.29.69,1.94,1.94,0,0,1-.44.55,2.05,2.05,0,0,1-.65.36,2.45,2.45,0,0,1-.85.13,2.49,2.49,0,0,1-1.07-.21,2,2,0,0,1-.74-.57A2.32,2.32,0,0,1,149,82a3.69,3.69,0,0,1-.14-1.07,3.42,3.42,0,0,1,.16-1.07,2.8,2.8,0,0,1,.47-.87,2.07,2.07,0,0,1,.75-.59,2.14,2.14,0,0,1,1-.22,2.08,2.08,0,0,1,1.68.74,3.24,3.24,0,0,1,.59,2.13Zm3.38-.5a2.35,2.35,0,0,0-.11-.71,1.54,1.54,0,0,0-.31-.58,1.39,1.39,0,0,0-.51-.39,1.64,1.64,0,0,0-.71-.15,1.58,1.58,0,0,0-.71.15,1.72,1.72,0,0,0-.52.4,2,2,0,0,0-.34.58,2.39,2.39,0,0,0-.17.7Z"/><path class="cls-8" d="M154.79,83.51v-7.2h.6v7.2Z"/><path class="cls-8" d="M157,83.51v-7.2h.59v7.2Z"/><path class="cls-8" d="M159.19,77.2v-.89h.66v.89Zm0,6.31V78.33h.59v5.18Z"/><path class="cls-8" d="M165.35,78.33h.6V83a4.65,4.65,0,0,1-.1,1,2.17,2.17,0,0,1-.38.83,1.9,1.9,0,0,1-.74.58,3,3,0,0,1-1.21.21,3.17,3.17,0,0,1-1-.14,2.25,2.25,0,0,1-.67-.37,1.72,1.72,0,0,1-.39-.48,1.29,1.29,0,0,1-.15-.5H162a1.25,1.25,0,0,0,.22.48,1.12,1.12,0,0,0,.36.29,1.39,1.39,0,0,0,.45.14,3,3,0,0,0,.52,0,2,2,0,0,0,1-.21,1.35,1.35,0,0,0,.56-.55,2.06,2.06,0,0,0,.25-.77,5.09,5.09,0,0,0,0-.88,1.86,1.86,0,0,1-.79.73,2.45,2.45,0,0,1-1.06.24,2.19,2.19,0,0,1-1-.22,2.11,2.11,0,0,1-.72-.6,2.68,2.68,0,0,1-.43-.88,4,4,0,0,1-.14-1,4.54,4.54,0,0,1,.13-1.07,2.38,2.38,0,0,1,.42-.86,2,2,0,0,1,.72-.58,2.49,2.49,0,0,1,1.07-.21,2.24,2.24,0,0,1,.51.07,2.85,2.85,0,0,1,.51.2,2.36,2.36,0,0,1,.45.33,1.58,1.58,0,0,1,.33.45h0Zm0,2.61a3.05,3.05,0,0,0-.11-.87,2.08,2.08,0,0,0-.34-.7,1.57,1.57,0,0,0-.55-.47,1.66,1.66,0,0,0-.75-.17,1.82,1.82,0,0,0-.7.14,1.67,1.67,0,0,0-.56.39,1.92,1.92,0,0,0-.37.64,2.54,2.54,0,0,0-.14.86,3.89,3.89,0,0,0,.08.92,2.37,2.37,0,0,0,.32.74,1.82,1.82,0,0,0,.56.51,1.73,1.73,0,0,0,.81.18,1.61,1.61,0,0,0,.74-.17,1.79,1.79,0,0,0,.55-.47,2.22,2.22,0,0,0,.34-.69A2.89,2.89,0,0,0,165.35,80.94Z"/><path class="cls-8" d="M167.83,81.06a3,3,0,0,0,.11.8,2.21,2.21,0,0,0,.33.65,1.66,1.66,0,0,0,.54.44,1.7,1.7,0,0,0,.76.16,1.6,1.6,0,0,0,1-.31,1.55,1.55,0,0,0,.57-.88h.66a2.65,2.65,0,0,1-.29.69,2.17,2.17,0,0,1-.45.55,1.85,1.85,0,0,1-.63.36,2.89,2.89,0,0,1-1.94-.08,2,2,0,0,1-.73-.57,2.5,2.5,0,0,1-.44-.86,4.07,4.07,0,0,1-.14-1.07,3.43,3.43,0,0,1,.17-1.07,2.8,2.8,0,0,1,.47-.87,2.13,2.13,0,0,1,.74-.59,2.19,2.19,0,0,1,1-.22,2.05,2.05,0,0,1,1.68.74,3.18,3.18,0,0,1,.6,2.13Zm3.39-.5a2.35,2.35,0,0,0-.11-.71,1.54,1.54,0,0,0-.31-.58,1.35,1.35,0,0,0-.52-.39,1.73,1.73,0,0,0-1.41,0,1.72,1.72,0,0,0-.52.4,2.24,2.24,0,0,0-.35.58,3.25,3.25,0,0,0-.17.7Z"/><path class="cls-8" d="M173.62,83.51H173V78.33h.6v.72a3.86,3.86,0,0,1,.75-.62,1.7,1.7,0,0,1,.92-.24,2.35,2.35,0,0,1,.89.17,1.46,1.46,0,0,1,.69.57,1.24,1.24,0,0,1,.23.58,5.93,5.93,0,0,1,0,.61v3.39h-.6V80.13a1.55,1.55,0,0,0-.31-1,1.32,1.32,0,0,0-1-.35,1.44,1.44,0,0,0-.51.09,1.47,1.47,0,0,0-.41.22,1.62,1.62,0,0,0-.32.32,2,2,0,0,0-.2.38,2.34,2.34,0,0,0-.11.48c0,.16,0,.32,0,.5Z"/><path class="cls-8" d="M182.25,80a1.69,1.69,0,0,0-.55-.9,1.48,1.48,0,0,0-1-.33,1.51,1.51,0,0,0-1.33.7,2.28,2.28,0,0,0-.31.71,3.56,3.56,0,0,0-.1.79,3.5,3.5,0,0,0,.1.8,2,2,0,0,0,.3.7,1.62,1.62,0,0,0,.54.5,1.66,1.66,0,0,0,.8.18,1.52,1.52,0,0,0,1.08-.37,1.66,1.66,0,0,0,.51-1h.64a2.81,2.81,0,0,1-.25.79,2.3,2.3,0,0,1-.45.61,1.81,1.81,0,0,1-.66.39,2.34,2.34,0,0,1-.87.14,2.52,2.52,0,0,1-1.07-.21,2.1,2.1,0,0,1-.74-.57,2.62,2.62,0,0,1-.43-.87,4.07,4.07,0,0,1-.14-1.07,3.52,3.52,0,0,1,.16-1,2.72,2.72,0,0,1,.45-.88,2.21,2.21,0,0,1,.75-.6,2.25,2.25,0,0,1,1-.23,2.37,2.37,0,0,1,1.46.43,2,2,0,0,1,.69,1.34Z"/><path class="cls-8" d="M184.51,81.06a3,3,0,0,0,.11.8,2.21,2.21,0,0,0,.33.65,1.56,1.56,0,0,0,.54.44,1.7,1.7,0,0,0,.76.16,1.62,1.62,0,0,0,1-.31,1.49,1.49,0,0,0,.56-.88h.67a3,3,0,0,1-.29.69,2.17,2.17,0,0,1-.45.55,1.9,1.9,0,0,1-.64.36,2.47,2.47,0,0,1-.86.13,2.52,2.52,0,0,1-1.07-.21,2.1,2.1,0,0,1-.74-.57A2.67,2.67,0,0,1,184,82a4.07,4.07,0,0,1-.14-1.07,3.43,3.43,0,0,1,.17-1.07,2.8,2.8,0,0,1,.47-.87,2.13,2.13,0,0,1,.74-.59,2.19,2.19,0,0,1,1-.22,2.05,2.05,0,0,1,1.68.74,3.18,3.18,0,0,1,.6,2.13Zm3.39-.5a2.35,2.35,0,0,0-.11-.71,1.54,1.54,0,0,0-.31-.58,1.35,1.35,0,0,0-.52-.39,1.73,1.73,0,0,0-1.41,0,1.72,1.72,0,0,0-.52.4,2.24,2.24,0,0,0-.35.58,3.25,3.25,0,0,0-.17.7Z"/><path class="cls-8" d="M182.85,211l-.29-1.11,1.12,0c.29,0,.45-.14.45-.42v-8H176.6v9.56h-1.13V200.46h9.78v9.35a1.07,1.07,0,0,1-1.2,1.23ZM179,206.9a13.19,13.19,0,0,1-1.44,2.81l-.74-.89a12.37,12.37,0,0,0,1.42-3c-.5-.69-1-1.35-1.58-2l.69-.69c.39.41.79.9,1.25,1.48.18-.76.34-1.56.46-2.41l1,.18a25.43,25.43,0,0,1-.7,3.3c.41.57.84,1.21,1.3,1.9l-.76.75C179.58,207.83,179.27,207.35,179,206.9Zm3.37.29a12.61,12.61,0,0,1-1.56,2.8l-.72-.87a13,13,0,0,0,1.56-3c-.51-.74-1-1.45-1.55-2.12l.71-.67a18.22,18.22,0,0,1,1.22,1.56,24.33,24.33,0,0,0,.54-2.6l1,.17a26.19,26.19,0,0,1-.82,3.57c.43.66.89,1.38,1.36,2.17l-.76.75C183,208.31,182.66,207.74,182.32,207.19Z"/><path class="cls-8" d="M190,200.4a19.85,19.85,0,0,1-1.71,3.51c.4,0,.81-.09,1.22-.17l.62-1.25,1,.35a.91.91,0,0,0-.09.17,5.93,5.93,0,0,0,2-3l1.08.2c-.08.27-.18.53-.27.79h3.14v.83a7.34,7.34,0,0,1-1.76,2.51,9.87,9.87,0,0,0,2.84,1.29l-.64.94a9.26,9.26,0,0,1-3-1.54,13,13,0,0,1-3,1.59l-.69-.93a12.41,12.41,0,0,0,2.85-1.4,6.51,6.51,0,0,1-1-1.25,8.1,8.1,0,0,1-1,.91l-.64-.85a27.55,27.55,0,0,1-2.23,3.8,17.08,17.08,0,0,0,2.27-.67v1a17.28,17.28,0,0,1-3.6.91l-.3-1a1.53,1.53,0,0,0,.51-.32,12.26,12.26,0,0,0,1.35-2.09l-1.73.27-.28-1a1.25,1.25,0,0,0,.48-.42,23.76,23.76,0,0,0,1.5-3.59Zm1.24,9.22a22.75,22.75,0,0,1-4,1.08l-.13-1.11a23.56,23.56,0,0,0,4.14-1Zm5.73,1.39h-1.09v-.44h-2.92V211h-1.09v-4.52h5.1Zm-1.09-1.47v-2h-2.92v2Zm-1.52-5.86a6.37,6.37,0,0,0,1.37-1.64h-2.42l-.14.22A6.07,6.07,0,0,0,194.32,203.68Z"/><path class="cls-8" d="M201.52,204.72a11.59,11.59,0,0,1-1.85,6.38l-.8-.85a10.63,10.63,0,0,0,1.52-5.7v-3.66a44.77,44.77,0,0,0,8.16-.78l.52,1a44.15,44.15,0,0,1-7.54.78v1.78h7.15v1a8.21,8.21,0,0,1-2.29,3.77,15.56,15.56,0,0,0,3.49,1.74l-.63,1a17.17,17.17,0,0,1-3.69-2,14.5,14.5,0,0,1-4,2l-.62-1a14,14,0,0,0,3.69-1.81,7.85,7.85,0,0,1-2.35-3.68Zm6,0h-4.14a6.63,6.63,0,0,0,2.09,3A7.5,7.5,0,0,0,207.53,204.72Z"/><path class="cls-8" d="M211.65,203.64l-.93-.66a4.6,4.6,0,0,0,1.09-2.58l1.07.17c-.06.33-.12.64-.19.92h1.09v-1.42h1.13v1.42h2.15v1h-2.15v1.29h2.49v1.06h-2.49v1h2.31v3.2a1.06,1.06,0,0,1-1.22,1.19h-.59l-.28-1.07.52,0c.33,0,.5-.14.5-.41V207h-1.24v4.16h-1.13V207h-1.23v3.42h-1.11v-4.48h2.34v-1H211v-1.06h2.8v-1.29h-1.44A4,4,0,0,1,211.65,203.64Zm7.42-2.49v7.34H218v-7.34ZM218.5,211l-.26-1.09c.58.05,1.12.07,1.65.07.31,0,.46-.17.46-.49v-9.42h1.13v9.71a1.07,1.07,0,0,1-1.2,1.22Z"/><path class="cls-8" d="M162.76,233.87v-7.2h2.6a4.2,4.2,0,0,1,1.08.13,2.05,2.05,0,0,1,.74.37,1.32,1.32,0,0,1,.41.58,1.93,1.93,0,0,1,.13.73,1.83,1.83,0,0,1-.1.66,1.38,1.38,0,0,1-.26.46,1.12,1.12,0,0,1-.36.29,1.36,1.36,0,0,1-.43.14v0a1.66,1.66,0,0,1,1.12.59,1.94,1.94,0,0,1,.36,1.2,2.24,2.24,0,0,1-.17.95,1.63,1.63,0,0,1-.49.63,1.88,1.88,0,0,1-.74.35,4.07,4.07,0,0,1-1,.1Zm.68-4h1.72a3.7,3.7,0,0,0,.89-.09,1.42,1.42,0,0,0,.58-.26,1,1,0,0,0,.32-.43,1.78,1.78,0,0,0,.09-.59,1.23,1.23,0,0,0-.11-.57.85.85,0,0,0-.35-.38,1.61,1.61,0,0,0-.62-.21,5.12,5.12,0,0,0-1-.07h-1.57Zm0,3.44h1.73a7.09,7.09,0,0,0,1,0,1.76,1.76,0,0,0,.68-.2,1,1,0,0,0,.41-.44,1.79,1.79,0,0,0,.13-.76,1.48,1.48,0,0,0-.15-.72,1,1,0,0,0-.43-.43,1.82,1.82,0,0,0-.67-.2,5.75,5.75,0,0,0-.87-.06h-1.81Z"/><path class="cls-8" d="M170,233.87h-.6v-5.18h.6v1h0a1.77,1.77,0,0,1,.65-.86,1.88,1.88,0,0,1,1-.25v.65a1.88,1.88,0,0,0-.84.16,1.45,1.45,0,0,0-.52.46,1.92,1.92,0,0,0-.27.69,4.38,4.38,0,0,0-.08.82Z"/><path class="cls-8" d="M173,231.42a3,3,0,0,0,.11.8,2.21,2.21,0,0,0,.33.65,1.56,1.56,0,0,0,.54.44,1.7,1.7,0,0,0,.76.16,1.62,1.62,0,0,0,1-.31,1.46,1.46,0,0,0,.56-.88H177a3,3,0,0,1-.29.69,2.17,2.17,0,0,1-.45.55,1.9,1.9,0,0,1-.64.36,2.47,2.47,0,0,1-.86.13,2.52,2.52,0,0,1-1.07-.21,2.1,2.1,0,0,1-.74-.57,2.67,2.67,0,0,1-.43-.86,4.07,4.07,0,0,1-.14-1.07,3.43,3.43,0,0,1,.17-1.07,2.8,2.8,0,0,1,.47-.87,2.13,2.13,0,0,1,.74-.59,2.33,2.33,0,0,1,1-.22,2.05,2.05,0,0,1,1.68.74,3.18,3.18,0,0,1,.6,2.13Zm3.38-.5a2.34,2.34,0,0,0-.1-.71,1.54,1.54,0,0,0-.31-.58,1.68,1.68,0,0,0-1.93-.39,1.72,1.72,0,0,0-.52.4,2.24,2.24,0,0,0-.35.58,3.25,3.25,0,0,0-.17.7Z"/><path class="cls-8" d="M180.61,230.85l.41-.06a1.15,1.15,0,0,0,.38-.11.3.3,0,0,0,.19-.23,1.71,1.71,0,0,0,0-.31,1,1,0,0,0-.29-.75,1.37,1.37,0,0,0-1-.3,2.62,2.62,0,0,0-.57.06,1.14,1.14,0,0,0-.45.19,1,1,0,0,0-.32.36,1.68,1.68,0,0,0-.17.56h-.61a1.83,1.83,0,0,1,.21-.78,1.61,1.61,0,0,1,.47-.53,1.81,1.81,0,0,1,.66-.3,3.35,3.35,0,0,1,.79-.1,2.94,2.94,0,0,1,.74.09,1.65,1.65,0,0,1,.6.27,1.29,1.29,0,0,1,.4.49,1.75,1.75,0,0,1,.14.76V233c0,.24.05.39.13.45s.25,0,.5-.05v.47l-.2.06a.84.84,0,0,1-.27,0,1.24,1.24,0,0,1-.27,0,.43.43,0,0,1-.24-.09.62.62,0,0,1-.14-.18.9.9,0,0,1-.08-.23,2.13,2.13,0,0,1,0-.27,2.46,2.46,0,0,1-.87.64,2.48,2.48,0,0,1-1.06.22,2.37,2.37,0,0,1-.65-.09,1.55,1.55,0,0,1-.56-.28,1.42,1.42,0,0,1-.38-.46,1.46,1.46,0,0,1-.14-.66c0-.88.61-1.4,1.81-1.56Zm1,.3a2.68,2.68,0,0,1-.77.21c-.26,0-.52.06-.78.08a2.3,2.3,0,0,0-1.07.31.9.9,0,0,0-.39.79.93.93,0,0,0,.1.42.88.88,0,0,0,.25.29,1,1,0,0,0,.36.17,1.44,1.44,0,0,0,.41.05,2.69,2.69,0,0,0,.7-.09,2,2,0,0,0,.61-.27,1.35,1.35,0,0,0,.58-1.15Z"/><path class="cls-8" d="M187.46,230.32a1.69,1.69,0,0,0-.55-.9,1.48,1.48,0,0,0-1-.33,1.51,1.51,0,0,0-1.33.7,2.28,2.28,0,0,0-.31.71,3.56,3.56,0,0,0-.1.79,3.5,3.5,0,0,0,.1.8,2,2,0,0,0,.3.7,1.52,1.52,0,0,0,.54.5,1.66,1.66,0,0,0,.8.18,1.52,1.52,0,0,0,1.08-.37,1.66,1.66,0,0,0,.51-1h.64a2.81,2.81,0,0,1-.25.79,2.3,2.3,0,0,1-.45.61,1.81,1.81,0,0,1-.66.39,2.34,2.34,0,0,1-.87.14,2.52,2.52,0,0,1-1.07-.21,2.1,2.1,0,0,1-.74-.57,2.62,2.62,0,0,1-.43-.87,4.07,4.07,0,0,1-.14-1.07,3.52,3.52,0,0,1,.16-1,2.72,2.72,0,0,1,.45-.88,2.21,2.21,0,0,1,.75-.6,2.25,2.25,0,0,1,1-.23,2.37,2.37,0,0,1,1.46.43,2,2,0,0,1,.69,1.34Z"/><path class="cls-8" d="M189.35,233.87v-7.2h.6v2.74a3.86,3.86,0,0,1,.75-.62,1.7,1.7,0,0,1,.92-.24,2.35,2.35,0,0,1,.89.17,1.46,1.46,0,0,1,.69.57,1.24,1.24,0,0,1,.23.58,5.93,5.93,0,0,1,0,.61v3.39h-.6v-3.38a1.55,1.55,0,0,0-.31-1.05,1.32,1.32,0,0,0-1-.35,1.44,1.44,0,0,0-.51.09,1.47,1.47,0,0,0-.41.22,1.94,1.94,0,0,0-.32.32,2,2,0,0,0-.2.38,2.34,2.34,0,0,0-.11.48c0,.16,0,.32,0,.5v2.79Z"/><path class="cls-8" d="M201.85,232a1.82,1.82,0,0,0,.25-.67,4.4,4.4,0,0,0,.05-.73h.6a5.47,5.47,0,0,1-.12,1,2.74,2.74,0,0,1-.38.9l1.17,1.38h-.81l-.7-.85a2.75,2.75,0,0,1-1,.8,3.08,3.08,0,0,1-1.26.24,2.5,2.5,0,0,1-.88-.15,2.18,2.18,0,0,1-.72-.44,2,2,0,0,1-.48-.67,2.1,2.1,0,0,1-.18-.88,2,2,0,0,1,.14-.74,2.65,2.65,0,0,1,.38-.62,3.15,3.15,0,0,1,.54-.49,4.34,4.34,0,0,1,.66-.38,5.69,5.69,0,0,1-.53-.73,1.69,1.69,0,0,1-.24-.88,1.33,1.33,0,0,1,.48-1.05,1.51,1.51,0,0,1,.52-.27,2.11,2.11,0,0,1,.62-.09,1.7,1.7,0,0,1,.61.11,1.63,1.63,0,0,1,.48.3,1.25,1.25,0,0,1,.31.45,1.23,1.23,0,0,1,.11.53,1.54,1.54,0,0,1-.11.63,1.67,1.67,0,0,1-.31.47,2.13,2.13,0,0,1-.46.37c-.17.12-.35.23-.54.34Zm-2.39-1.89a3.38,3.38,0,0,0-.55.34,2.25,2.25,0,0,0-.44.43,2.43,2.43,0,0,0-.3.52,1.55,1.55,0,0,0-.11.56,1.67,1.67,0,0,0,.13.65,1.39,1.39,0,0,0,.34.48,1.32,1.32,0,0,0,.51.31,1.69,1.69,0,0,0,.64.11,2,2,0,0,0,1-.26,3.1,3.1,0,0,0,.8-.7Zm1.28-1.65a.85.85,0,0,0,.08-.42.83.83,0,0,0-.13-.41.87.87,0,0,0-.32-.31.9.9,0,0,0-.48-.12,1.13,1.13,0,0,0-.36.06,1.11,1.11,0,0,0-.3.17,1.13,1.13,0,0,0-.22.27.86.86,0,0,0-.08.36.93.93,0,0,0,.08.35,2.64,2.64,0,0,0,.2.37l.24.35.23.28c.2-.12.41-.25.61-.39A1.37,1.37,0,0,0,200.74,228.47Z"/><path class="cls-8" d="M206.57,233.87l2.83-7.2h.77l2.76,7.2h-.7l-.83-2.26h-3.28l-.85,2.26Zm1.78-2.84h2.82l-1.41-3.78Z"/><path class="cls-8" d="M215.63,233.89l-.29.07a1.25,1.25,0,0,1-.4,0,.94.94,0,0,1-.68-.22A1.09,1.09,0,0,1,214,233v-3.79h-.73v-.5H214v-1.44h.6v1.44h1v.5h-1v3.55c0,.13,0,.24,0,.33a.64.64,0,0,0,.06.23.29.29,0,0,0,.16.13.78.78,0,0,0,.29,0,1.06,1.06,0,0,0,.25,0l.24,0Z"/><path class="cls-8" d="M218.41,233.89l-.29.07a1.25,1.25,0,0,1-.4,0,.94.94,0,0,1-.68-.22,1.09,1.09,0,0,1-.24-.81v-3.79h-.73v-.5h.73v-1.44h.6v1.44h1v.5h-1v3.55c0,.13,0,.24,0,.33a.64.64,0,0,0,.06.23.29.29,0,0,0,.16.13.78.78,0,0,0,.29,0,1.06,1.06,0,0,0,.25,0l.24,0Z"/><path class="cls-8" d="M221.75,230.85l.41-.06a1.15,1.15,0,0,0,.38-.11.3.3,0,0,0,.19-.23,1.71,1.71,0,0,0,0-.31,1,1,0,0,0-.29-.75,1.37,1.37,0,0,0-1-.3,2.62,2.62,0,0,0-.57.06,1.14,1.14,0,0,0-.45.19,1,1,0,0,0-.32.36,1.68,1.68,0,0,0-.17.56h-.61a1.83,1.83,0,0,1,.21-.78A1.61,1.61,0,0,1,220,229a1.81,1.81,0,0,1,.66-.3,3.35,3.35,0,0,1,.79-.1,2.94,2.94,0,0,1,.74.09,1.65,1.65,0,0,1,.6.27,1.29,1.29,0,0,1,.4.49,1.75,1.75,0,0,1,.14.76V233c0,.24,0,.39.13.45s.25,0,.5-.05v.47l-.2.06a.84.84,0,0,1-.27,0,1.24,1.24,0,0,1-.27,0,.43.43,0,0,1-.24-.09.62.62,0,0,1-.14-.18.9.9,0,0,1-.08-.23,2.13,2.13,0,0,1,0-.27,2.46,2.46,0,0,1-.87.64,2.48,2.48,0,0,1-1.06.22,2.37,2.37,0,0,1-.65-.09,1.55,1.55,0,0,1-.56-.28,1.42,1.42,0,0,1-.38-.46,1.46,1.46,0,0,1-.14-.66c0-.88.61-1.4,1.81-1.56Zm1,.3a2.68,2.68,0,0,1-.77.21c-.26,0-.52.06-.78.08a2.3,2.3,0,0,0-1.07.31.9.9,0,0,0-.39.79.93.93,0,0,0,.1.42.88.88,0,0,0,.25.29,1,1,0,0,0,.36.17,1.44,1.44,0,0,0,.41.05,2.69,2.69,0,0,0,.7-.09,2,2,0,0,0,.61-.27,1.35,1.35,0,0,0,.58-1.15Z"/><path class="cls-8" d="M228.6,230.32a1.69,1.69,0,0,0-.55-.9,1.48,1.48,0,0,0-1-.33,1.51,1.51,0,0,0-1.33.7,2.28,2.28,0,0,0-.31.71,3.56,3.56,0,0,0-.1.79,3.5,3.5,0,0,0,.1.8,2,2,0,0,0,.3.7,1.52,1.52,0,0,0,.54.5,1.66,1.66,0,0,0,.8.18,1.52,1.52,0,0,0,1.08-.37,1.66,1.66,0,0,0,.51-1h.64a2.81,2.81,0,0,1-.25.79,2.3,2.3,0,0,1-.45.61,1.81,1.81,0,0,1-.66.39,2.34,2.34,0,0,1-.87.14,2.52,2.52,0,0,1-1.07-.21,2.1,2.1,0,0,1-.74-.57,2.62,2.62,0,0,1-.43-.87,4.07,4.07,0,0,1-.14-1.07,3.52,3.52,0,0,1,.16-1,2.72,2.72,0,0,1,.45-.88,2.21,2.21,0,0,1,.75-.6,2.25,2.25,0,0,1,1-.23,2.37,2.37,0,0,1,1.46.43,2,2,0,0,1,.69,1.34Z"/><path class="cls-8" d="M230.45,233.87v-7.2h.6v4.48l2.54-2.46h.82l-1.94,1.87,2.17,3.31H234L232,231l-1,.93v2Z"/><path class="cls-8" d="M176.39,243.72a2.19,2.19,0,0,0,.22.82,1.71,1.71,0,0,0,.45.54,1.69,1.69,0,0,0,.63.31,3.19,3.19,0,0,0,.77.09,2.55,2.55,0,0,0,.83-.12,1.55,1.55,0,0,0,.57-.32,1.29,1.29,0,0,0,.33-.48,1.56,1.56,0,0,0,.1-.57,1.12,1.12,0,0,0-.19-.68,1.44,1.44,0,0,0-.49-.42,3.19,3.19,0,0,0-.7-.27l-.81-.19a6.89,6.89,0,0,1-.81-.23,2.3,2.3,0,0,1-.7-.35,1.7,1.7,0,0,1-.5-.56,1.91,1.91,0,0,1,0-1.6,1.82,1.82,0,0,1,.46-.62,2.32,2.32,0,0,1,.76-.43,3.42,3.42,0,0,1,1.06-.16,3.12,3.12,0,0,1,1.07.17,2.18,2.18,0,0,1,.75.47,1.84,1.84,0,0,1,.45.68,2.31,2.31,0,0,1,.15.83h-.65a1.58,1.58,0,0,0-.14-.71,1.37,1.37,0,0,0-.4-.49,1.69,1.69,0,0,0-.57-.28,2.39,2.39,0,0,0-.66-.09,2.26,2.26,0,0,0-.87.15,1.48,1.48,0,0,0-.57.37,1.46,1.46,0,0,0-.29.51,1.34,1.34,0,0,0,0,.56,1,1,0,0,0,.28.56,1.86,1.86,0,0,0,.54.35,4.55,4.55,0,0,0,.71.22c.26.06.52.11.78.18s.53.14.78.22a2.58,2.58,0,0,1,.66.35,1.64,1.64,0,0,1,.47.57,2.14,2.14,0,0,1-.52,2.41,3,3,0,0,1-1.94.55,3.84,3.84,0,0,1-1-.14,2.54,2.54,0,0,1-.83-.44,2.08,2.08,0,0,1-.54-.73,2.49,2.49,0,0,1-.2-1Z"/><path class="cls-8" d="M182.19,239.56v-.89h.66v.89Zm0,6.31v-5.18h.6v5.18Z"/><path class="cls-8" d="M184.87,245.87h-.6v-5.18h.6v.78h0a1.61,1.61,0,0,1,.66-.68,1.91,1.91,0,0,1,.94-.24,2.1,2.1,0,0,1,.61.08,1.58,1.58,0,0,1,.43.22,1.22,1.22,0,0,1,.29.31,1.76,1.76,0,0,1,.19.39,1.76,1.76,0,0,1,.7-.75,1.92,1.92,0,0,1,1-.25,1.7,1.7,0,0,1,.85.18,1.18,1.18,0,0,1,.48.46,1.74,1.74,0,0,1,.23.65,4.77,4.77,0,0,1,.05.76v3.27h-.6v-3.58a1.46,1.46,0,0,0-.23-.88,1,1,0,0,0-.88-.32,1.39,1.39,0,0,0-.63.15,1.59,1.59,0,0,0-.54.44,1.29,1.29,0,0,0-.16.31c0,.11-.08.24-.11.36s0,.26,0,.38,0,.25,0,.35v2.79h-.6v-3.58a1.46,1.46,0,0,0-.23-.88,1,1,0,0,0-.88-.32,1.39,1.39,0,0,0-.63.15,1.59,1.59,0,0,0-.54.44,1.29,1.29,0,0,0-.16.31c0,.11-.08.24-.11.36s0,.26-.05.38,0,.25,0,.35Z"/><path class="cls-8" d="M196.19,240.69h.6v5.18h-.6v-.72a3.58,3.58,0,0,1-.27.29,2.42,2.42,0,0,1-.34.28,2.19,2.19,0,0,1-.46.21,2.13,2.13,0,0,1-.6.08,2.27,2.27,0,0,1-.87-.14,1.39,1.39,0,0,1-.56-.41,1.56,1.56,0,0,1-.31-.6,3,3,0,0,1-.1-.76v-3.41h.6v3.4a1.56,1.56,0,0,0,.31,1,1.32,1.32,0,0,0,1,.35,1.6,1.6,0,0,0,.67-.14,1.3,1.3,0,0,0,.49-.41,1.72,1.72,0,0,0,.31-.62,2.48,2.48,0,0,0,.11-.79Z"/><path class="cls-8" d="M198.33,245.87v-7.2h.6v7.2Z"/><path class="cls-8" d="M202.84,242.85l.41-.06a1.15,1.15,0,0,0,.38-.11.3.3,0,0,0,.19-.23,1.71,1.71,0,0,0,0-.31,1,1,0,0,0-.29-.75,1.37,1.37,0,0,0-1-.3,2.62,2.62,0,0,0-.57.06,1.14,1.14,0,0,0-.45.19,1,1,0,0,0-.32.36,1.68,1.68,0,0,0-.17.56h-.61a1.83,1.83,0,0,1,.21-.78,1.61,1.61,0,0,1,.47-.53,1.81,1.81,0,0,1,.66-.3,3.35,3.35,0,0,1,.79-.1,2.94,2.94,0,0,1,.74.09,1.65,1.65,0,0,1,.6.27,1.29,1.29,0,0,1,.4.49,1.75,1.75,0,0,1,.14.76V245c0,.24.05.39.13.45s.25,0,.5-.05v.47l-.2.06a.84.84,0,0,1-.27,0,1.24,1.24,0,0,1-.27,0,.43.43,0,0,1-.24-.09.62.62,0,0,1-.14-.18.9.9,0,0,1-.08-.23,2.13,2.13,0,0,1,0-.27,2.46,2.46,0,0,1-.87.64,2.48,2.48,0,0,1-1.06.22,2.37,2.37,0,0,1-.65-.09,1.55,1.55,0,0,1-.56-.28,1.42,1.42,0,0,1-.38-.46,1.46,1.46,0,0,1-.14-.66c0-.88.61-1.4,1.81-1.56Zm1,.3a2.68,2.68,0,0,1-.77.21c-.26,0-.52.06-.78.08a2.3,2.3,0,0,0-1.07.31.9.9,0,0,0-.39.79.93.93,0,0,0,.1.42.88.88,0,0,0,.25.29,1,1,0,0,0,.36.17,1.44,1.44,0,0,0,.41.05,2.69,2.69,0,0,0,.7-.09,2,2,0,0,0,.61-.27,1.35,1.35,0,0,0,.58-1.15Z"/><path class="cls-8" d="M207.84,245.89l-.29.07a1.25,1.25,0,0,1-.4,0,.94.94,0,0,1-.68-.22,1.09,1.09,0,0,1-.24-.81v-3.79h-.73v-.5h.73v-1.44h.6v1.44h1v.5h-1v3.55c0,.13,0,.24,0,.33a.64.64,0,0,0,.06.23.29.29,0,0,0,.16.13.78.78,0,0,0,.29,0,1.06,1.06,0,0,0,.25,0l.24,0Z"/><path class="cls-8" d="M208.86,239.56v-.89h.66v.89Zm0,6.31v-5.18h.6v5.18Z"/><path class="cls-8" d="M213.08,246a2.41,2.41,0,0,1-.93-.18,2,2,0,0,1-.76-.51,2.4,2.4,0,0,1-.52-.85,3.53,3.53,0,0,1-.19-1.19,3.62,3.62,0,0,1,.15-1.06,2.57,2.57,0,0,1,.45-.87,2.16,2.16,0,0,1,.75-.58,2.64,2.64,0,0,1,2.11,0,2,2,0,0,1,.75.58,2.43,2.43,0,0,1,.45.86,3.74,3.74,0,0,1,.14,1.07,3.25,3.25,0,0,1-.17,1.12,2.4,2.4,0,0,1-.48.86,2.12,2.12,0,0,1-.76.56A2.46,2.46,0,0,1,213.08,246Zm1.76-2.73a3.44,3.44,0,0,0-.1-.86,1.89,1.89,0,0,0-.31-.69,1.53,1.53,0,0,0-.54-.47,1.8,1.8,0,0,0-.81-.17,1.55,1.55,0,0,0-.8.19,1.52,1.52,0,0,0-.55.49,2.23,2.23,0,0,0-.31.7,3.59,3.59,0,0,0-.1.81,3.14,3.14,0,0,0,.12.89,2.21,2.21,0,0,0,.33.69,1.41,1.41,0,0,0,.55.45,1.7,1.7,0,0,0,.76.16,1.67,1.67,0,0,0,.81-.18,1.52,1.52,0,0,0,.54-.5,2,2,0,0,0,.31-.7A3.1,3.1,0,0,0,214.84,243.28Z"/><path class="cls-8" d="M217.18,245.87h-.6v-5.18h.6v.72a3.86,3.86,0,0,1,.75-.62,1.7,1.7,0,0,1,.92-.24,2.35,2.35,0,0,1,.89.17,1.46,1.46,0,0,1,.69.57,1.24,1.24,0,0,1,.23.58,5.93,5.93,0,0,1,0,.61v3.39h-.6v-3.38a1.55,1.55,0,0,0-.31-1.05,1.32,1.32,0,0,0-1-.35,1.44,1.44,0,0,0-.51.09,1.47,1.47,0,0,0-.41.22,1.94,1.94,0,0,0-.32.32,2,2,0,0,0-.2.38,2.34,2.34,0,0,0-.11.48c0,.16,0,.32,0,.5Z"/><path class="cls-8" d="M39.84,106.68c.34-.62.66-1.23,1-1.85l1.18.34c-.29.53-.55,1-.8,1.51h6v1.11H44.86a12,12,0,0,1-1.55,2.82c1.19.5,2.4,1.1,3.64,1.77l-.77,1c-1.24-.72-2.48-1.37-3.7-1.93a8.21,8.21,0,0,1-5.31,1.86l-.66-1.06a8.12,8.12,0,0,0,4.78-1.32c-1.08-.45-2.16-.86-3.22-1.2.41-.66.79-1.3,1.16-1.95H36.52v-1.11Zm7.1-.61H45.79v-1.6H37.86v1.59H36.71v-2.7h4.48a8.07,8.07,0,0,0-.52-1l1.28-.22c.17.37.34.76.51,1.19h4.48Zm-7.27,3.22c.82.24,1.66.51,2.51.85a8.07,8.07,0,0,0,1.43-2.35h-3Q40.09,108.62,39.67,109.29Z"/><path class="cls-8" d="M54.24,102.26a16.94,16.94,0,0,0,5.18,3.66l-.56,1a15.84,15.84,0,0,1-1.68-.93v1.08H54.41v1.8h3.37V110H54.41v1.89h4.46V113H48.81v-1.12h4.45V110H49.88v-1.11h3.38v-1.8H50.49V106c-.55.34-1.13.65-1.73.95l-.55-1a17.59,17.59,0,0,0,5.22-3.71ZM57.16,106a16,16,0,0,1-3.33-2.71A15,15,0,0,1,50.51,106Z"/><path class="cls-8" d="M60.62,103.93v-1.11h4.22v1.11H63a15.16,15.16,0,0,1-.68,2.45h2.15v5.67h-2v.87H61.4v-4.6c-.2.31-.39.61-.6.9l-.6-1a11.29,11.29,0,0,0,1.74-4.31Zm2.83,7.12v-3.66h-1v3.66Zm3.89-3c-.12,2.43-.81,4.21-2.11,5.37l-.85-.76A6.14,6.14,0,0,0,66.24,108H65v-1.09h1.22v-3.06h-1v-1.08h5.77v1.08h-1v3.06h1.33V108H70.06v5.32H69V108Zm0-4.15v3.06H69v-3.06Z"/><path class="cls-8" d="M77.56,106.71v1l0,.42h3.09v3.74c0,.17.09.26.3.26h.79a.4.4,0,0,0,.45-.3c0-.48.06-1,.06-1.52l1.06.31a14.25,14.25,0,0,1-.24,1.91c-.14.46-.58.68-1.32.68h-1c-.84,0-1.25-.38-1.25-1.15v-2.86H77.38a5.61,5.61,0,0,1-.95,2.13,6.55,6.55,0,0,1-3.33,1.94l-.62-1a6.2,6.2,0,0,0,3.06-1.71,4.58,4.58,0,0,0,.66-1.39H73.32v-1.07h3.07l0-.42v-1Zm.87-3.4h4.39v2.56H81.68v-1.5H74v1.49H72.84v-2.55h4.37a6,6,0,0,0-.46-.88l1.26-.19A10,10,0,0,1,78.43,103.31Zm-1.26,2.2a12.34,12.34,0,0,1-3.69,2.31l-.48-1a10,10,0,0,0,3.49-2.08Zm5.34,1.41-.62,1a15.23,15.23,0,0,0-3.38-2.26l.57-.85A15.87,15.87,0,0,1,82.51,106.92Z"/><path class="cls-8" d="M32.79,128.91h.71l2.17,6.4,2.16-6.4h.71l-2.5,7.2h-.75Z"/><path class="cls-8" d="M43,130.93h.6v5.18H43v-.72l-.27.29a1.84,1.84,0,0,1-.34.27,2.19,2.19,0,0,1-.46.21,1.8,1.8,0,0,1-.6.09,2.26,2.26,0,0,1-.87-.15,1.46,1.46,0,0,1-.56-.4,1.54,1.54,0,0,1-.31-.61,2.57,2.57,0,0,1-.1-.75v-3.41H40v3.4a1.55,1.55,0,0,0,.31,1,1.29,1.29,0,0,0,1,.36,1.43,1.43,0,0,0,1.16-.55,1.81,1.81,0,0,0,.31-.62,2.52,2.52,0,0,0,.11-.79Z"/><path class="cls-8" d="M45.09,136.11v-7.2h.6v7.2Z"/><path class="cls-8" d="M47.82,136.11h-.6v-5.18h.6v.72a3.53,3.53,0,0,1,.75-.62,1.68,1.68,0,0,1,.92-.24,2.35,2.35,0,0,1,.89.16,1.47,1.47,0,0,1,.69.58,1.27,1.27,0,0,1,.23.57,6.13,6.13,0,0,1,0,.62v3.39h-.6v-3.38a1.51,1.51,0,0,0-.31-1,1.28,1.28,0,0,0-1-.35,1.37,1.37,0,0,0-.51.08,1.5,1.5,0,0,0-.41.23,1.47,1.47,0,0,0-.52.7,1.67,1.67,0,0,0-.11.48c0,.15,0,.32,0,.5Z"/><path class="cls-8" d="M53.15,133.66a2.9,2.9,0,0,0,.11.79,1.9,1.9,0,0,0,.33.65,1.56,1.56,0,0,0,.54.44,1.67,1.67,0,0,0,.76.17,1.71,1.71,0,0,0,1-.31,1.49,1.49,0,0,0,.56-.88h.67a3.16,3.16,0,0,1-.29.68,2.17,2.17,0,0,1-.45.55,1.92,1.92,0,0,1-.64.37,2.73,2.73,0,0,1-.86.13,2.52,2.52,0,0,1-1.07-.21,2,2,0,0,1-.74-.58,2.4,2.4,0,0,1-.43-.86,4,4,0,0,1-.14-1.06,3.38,3.38,0,0,1,.17-1.07,2.56,2.56,0,0,1,.47-.88,2.13,2.13,0,0,1,.74-.59,2.33,2.33,0,0,1,1-.21,2.06,2.06,0,0,1,1.68.73,3.2,3.2,0,0,1,.6,2.14Zm3.38-.5a2.37,2.37,0,0,0-.1-.72,1.79,1.79,0,0,0-.31-.58,1.7,1.7,0,0,0-1.93-.38,1.48,1.48,0,0,0-.52.4,1.87,1.87,0,0,0-.35.58,2.66,2.66,0,0,0-.17.7Z"/><path class="cls-8" d="M59,136.11h-.6v-5.18H59v1h0a1.7,1.7,0,0,1,.65-.87,2,2,0,0,1,1-.24v.65a1.64,1.64,0,0,0-.84.16,1.29,1.29,0,0,0-.52.46,1.8,1.8,0,0,0-.27.68,4.41,4.41,0,0,0-.08.83Z"/><path class="cls-8" d="M64.05,133.09l.41-.06a2.21,2.21,0,0,0,.38-.11.36.36,0,0,0,.19-.24,1.69,1.69,0,0,0,0-.3,1.06,1.06,0,0,0-.29-.76,1.38,1.38,0,0,0-1-.29,2.57,2.57,0,0,0-.57,0,1.3,1.3,0,0,0-.45.19,1,1,0,0,0-.32.36,1.47,1.47,0,0,0-.17.57h-.61a1.88,1.88,0,0,1,.21-.79,1.61,1.61,0,0,1,.47-.53,1.81,1.81,0,0,1,.66-.3,3.35,3.35,0,0,1,.79-.09,3,3,0,0,1,.74.08,1.83,1.83,0,0,1,.6.27,1.25,1.25,0,0,1,.4.5,1.88,1.88,0,0,1,.14.76v2.82c0,.23,0,.38.13.44s.25.05.5,0v.47l-.2.06a1.26,1.26,0,0,1-.27,0,1.24,1.24,0,0,1-.27,0,.53.53,0,0,1-.24-.1.49.49,0,0,1-.14-.18.63.63,0,0,1-.08-.23,2.11,2.11,0,0,1,0-.26,2.58,2.58,0,0,1-.87.64,2.64,2.64,0,0,1-1.06.22,2.37,2.37,0,0,1-.65-.09,1.73,1.73,0,0,1-.56-.28,1.57,1.57,0,0,1-.38-.47,1.45,1.45,0,0,1-.14-.65c0-.88.61-1.4,1.81-1.56Zm1,.3a3.52,3.52,0,0,1-.77.21l-.78.08a2.06,2.06,0,0,0-1.07.31.87.87,0,0,0-.39.79.86.86,0,0,0,.35.7,1,1,0,0,0,.36.17,1.4,1.4,0,0,0,.41.06,2.69,2.69,0,0,0,.7-.09,2,2,0,0,0,.61-.28,1.36,1.36,0,0,0,.42-.47,1.3,1.3,0,0,0,.16-.67Z"/><path class="cls-8" d="M67.9,136.11h-.6v-7.2h.6v2.85a1.88,1.88,0,0,1,.8-.73,2.41,2.41,0,0,1,1-.24,2.2,2.2,0,0,1,1,.22,2.11,2.11,0,0,1,.72.6,2.48,2.48,0,0,1,.42.88,3.58,3.58,0,0,1,.14,1,4.13,4.13,0,0,1-.13,1.07,2.22,2.22,0,0,1-.41.86,2,2,0,0,1-.73.58,2.46,2.46,0,0,1-1.07.21,2.4,2.4,0,0,1-.51-.07,3.07,3.07,0,0,1-.5-.2,1.87,1.87,0,0,1-.45-.33,1.67,1.67,0,0,1-.34-.45h0Zm0-2.61a3,3,0,0,0,.12.87,2.16,2.16,0,0,0,.33.7,1.56,1.56,0,0,0,1.3.64,1.78,1.78,0,0,0,.7-.14,1.67,1.67,0,0,0,.56-.39,1.94,1.94,0,0,0,.38-.64,2.55,2.55,0,0,0,.13-.86,3,3,0,0,0-.08-.92A2.16,2.16,0,0,0,71,132a1.45,1.45,0,0,0-.56-.51,1.73,1.73,0,0,0-.81-.18,1.46,1.46,0,0,0-.73.17,1.66,1.66,0,0,0-.55.47,2.24,2.24,0,0,0-.35.69A2.84,2.84,0,0,0,67.9,133.5Z"/><path class="cls-8" d="M73.4,129.8v-.89h.66v.89Zm0,6.31v-5.18H74v5.18Z"/><path class="cls-8" d="M75.65,136.11v-7.2h.6v7.2Z"/><path class="cls-8" d="M77.84,129.8v-.89h.66v.89Zm0,6.31v-5.18h.6v5.18Z"/><path class="cls-8" d="M81.82,136.13a1.67,1.67,0,0,0-.29.07,1.62,1.62,0,0,1-.4.05.93.93,0,0,1-.68-.23,1.08,1.08,0,0,1-.24-.8v-3.79h-.73v-.5h.73v-1.44h.6v1.44h1v.5h-1V135c0,.12,0,.23,0,.33a.7.7,0,0,0,.06.23.3.3,0,0,0,.16.13,1,1,0,0,0,.29,0l.25,0,.24-.05Z"/><path class="cls-8" d="M82.74,137.51l.25,0,.25,0a.58.58,0,0,0,.41-.16,1.36,1.36,0,0,0,.27-.39,3.26,3.26,0,0,0,.17-.47,2.34,2.34,0,0,1,.16-.41l-2-5.21h.67l1.66,4.45,1.66-4.45h.65L85,136c-.12.32-.23.62-.34.88a4,4,0,0,1-.35.66,1.64,1.64,0,0,1-.41.42,1,1,0,0,1-.54.15l-.3,0-.27,0Z"/><path class="cls-8" d="M43.15,148.11v-7.2h4.79v.58H43.83v2.6h3.71v.58H43.83v2.86H48v.58Z"/><path class="cls-8" d="M51,145.87l-1.61,2.24h-.73l2-2.68-1.83-2.5h.74L51,145l1.47-2.06h.76l-1.87,2.5,1.94,2.68h-.72Z"/><path class="cls-8" d="M54.84,150.15h-.6v-7.22h.6v.91h0a1.63,1.63,0,0,1,.33-.45,1.73,1.73,0,0,1,.45-.33,2,2,0,0,1,.51-.2,1.79,1.79,0,0,1,.51-.07,2.49,2.49,0,0,1,1.07.21,2,2,0,0,1,.72.57,2.35,2.35,0,0,1,.42.87,4.54,4.54,0,0,1,.13,1.07,4,4,0,0,1-.14,1,2.72,2.72,0,0,1-.43.87,2.11,2.11,0,0,1-.72.6,2.19,2.19,0,0,1-1,.23,2.46,2.46,0,0,1-1.06-.25,1.78,1.78,0,0,1-.79-.72Zm0-4.61a2.82,2.82,0,0,0,.12.83,2.22,2.22,0,0,0,.34.69,1.77,1.77,0,0,0,.55.47,1.5,1.5,0,0,0,.74.18,1.72,1.72,0,0,0,.8-.19A1.61,1.61,0,0,0,58,147a2.54,2.54,0,0,0,.32-.75,3.81,3.81,0,0,0,.08-.91,2.56,2.56,0,0,0-.14-.87,1.78,1.78,0,0,0-.37-.63,1.56,1.56,0,0,0-.56-.4,1.82,1.82,0,0,0-.7-.13,1.54,1.54,0,0,0-.75.17,1.45,1.45,0,0,0-.55.46,2.17,2.17,0,0,0-.34.7A3.08,3.08,0,0,0,54.84,145.54Z"/><path class="cls-8" d="M60.37,148.11v-7.2H61v7.2Z"/><path class="cls-8" d="M64.56,148.25a2.86,2.86,0,0,1-.94-.18,2.19,2.19,0,0,1-1.27-1.36,3.34,3.34,0,0,1-.19-1.19,3.69,3.69,0,0,1,.15-1.07,2.43,2.43,0,0,1,.45-.86,2.07,2.07,0,0,1,.75-.59,2.46,2.46,0,0,1,1.05-.21,2.51,2.51,0,0,1,1.06.21,2.16,2.16,0,0,1,.75.58,2.38,2.38,0,0,1,.44.87,3.69,3.69,0,0,1,.15,1.07,3.6,3.6,0,0,1-.17,1.12,2.68,2.68,0,0,1-.49.86,2.09,2.09,0,0,1-.76.55A2.42,2.42,0,0,1,64.56,148.25Zm1.76-2.73a3.83,3.83,0,0,0-.1-.86,2.13,2.13,0,0,0-.31-.7,1.42,1.42,0,0,0-.54-.46,2,2,0,0,0-1.62,0,1.59,1.59,0,0,0-.54.49,2,2,0,0,0-.31.7,3.18,3.18,0,0,0-.1.82,3.08,3.08,0,0,0,.11.88,2.17,2.17,0,0,0,.34.7,1.52,1.52,0,0,0,.55.45,1.81,1.81,0,0,0,.76.16,1.66,1.66,0,0,0,.8-.19,1.62,1.62,0,0,0,.55-.49,2.33,2.33,0,0,0,.31-.7A3.59,3.59,0,0,0,66.32,145.52Z"/><path class="cls-8" d="M68.12,141.8v-.89h.66v.89Zm0,6.31v-5.18h.6v5.18Z"/><path class="cls-8" d="M72.1,148.13a1.48,1.48,0,0,0-.29.07,1.68,1.68,0,0,1-.4.05,1,1,0,0,1-.69-.23,1.08,1.08,0,0,1-.23-.8v-3.79h-.73v-.5h.73v-1.44h.6v1.44h1v.5h-1V147c0,.12,0,.23,0,.33a.41.41,0,0,0,.06.23.28.28,0,0,0,.15.13,1.08,1.08,0,0,0,.3,0l.24,0,.25-.05Z"/><path class="cls-8" d="M73.41,146.49a1.51,1.51,0,0,0,.5.94,1.73,1.73,0,0,0,1,.28,1.91,1.91,0,0,0,.57-.08,1.21,1.21,0,0,0,.39-.22,1.13,1.13,0,0,0,.24-.3.94.94,0,0,0,.08-.36.67.67,0,0,0-.25-.57,1.92,1.92,0,0,0-.61-.29c-.25-.07-.52-.13-.8-.18a3.74,3.74,0,0,1-.8-.22,1.64,1.64,0,0,1-.62-.43,1.18,1.18,0,0,1-.24-.79,1.34,1.34,0,0,1,.47-1.07,2,2,0,0,1,1.35-.41,2.28,2.28,0,0,1,1.36.37,1.75,1.75,0,0,1,.64,1.26h-.61a1.15,1.15,0,0,0-.46-.85,1.7,1.7,0,0,0-.94-.24,1.37,1.37,0,0,0-.87.24.79.79,0,0,0-.3.65.63.63,0,0,0,.24.53,2.11,2.11,0,0,0,.62.3,7.11,7.11,0,0,0,.8.21,4.14,4.14,0,0,1,.8.25,1.73,1.73,0,0,1,.61.45,1.14,1.14,0,0,1,.25.78,1.39,1.39,0,0,1-.16.65,1.55,1.55,0,0,1-.44.48,2.15,2.15,0,0,1-.67.28,3.72,3.72,0,0,1-.84.1,2.31,2.31,0,0,1-.82-.14,1.65,1.65,0,0,1-.6-.37,1.67,1.67,0,0,1-.39-.56,1.83,1.83,0,0,1-.16-.69Z"/><path class="cls-8" d="M73.78,200.48a19.25,19.25,0,0,1-1.87,3.5c.48,0,1-.12,1.47-.19.26-.47.52-1,.8-1.48l1,.38a30.24,30.24,0,0,1-2.76,4.39,19.8,19.8,0,0,0,2.46-.76v1.05a19.11,19.11,0,0,1-3.9,1l-.31-1a2.1,2.1,0,0,0,.52-.33,13,13,0,0,0,1.57-2.17l-2,.26-.3-1a1.18,1.18,0,0,0,.5-.45,19.87,19.87,0,0,0,1.68-3.56Zm1,9.21a22,22,0,0,1-4,1.07l-.14-1.11a24.82,24.82,0,0,0,4.17-1.05Zm.59-7.82v-1.1h5.86v1.1H78.83v7.64H81.5v1.11H75v-1.11h2.71v-7.64Z"/><path class="cls-8" d="M86.76,200.45v.9c-.36,1-.77,2.12-1.25,3.26a6.19,6.19,0,0,1,1.21,2.88,1.67,1.67,0,0,1-.36,1.2,2.89,2.89,0,0,1-1.81.48L84.16,208a4.22,4.22,0,0,0,.62.06,1.37,1.37,0,0,0,.66-.15.5.5,0,0,0,.18-.43,4.45,4.45,0,0,0-1.24-2.71,27.79,27.79,0,0,0,1.27-3.25H84v9.59h-1.1V200.45Zm3.51-.33c0,1.19,0,2.28-.14,3.28a13.45,13.45,0,0,0,3.5,6.63l-.83,1a14.88,14.88,0,0,1-3-5.21.37.37,0,0,0,0,.15,8.7,8.7,0,0,1-3.2,5.1l-.75-.9a8.24,8.24,0,0,0,2.83-4.37,24.77,24.77,0,0,0,.55-5.66Z"/><path class="cls-8" d="M95.43,211.13l-.86-.78a9.71,9.71,0,0,0,.73-4v-5.89H99v9.38c0,.82-.37,1.22-1.1,1.22H97l-.28-1c.34,0,.64.06.93.06s.38-.22.38-.64v-2.41H96.3A11.21,11.21,0,0,1,95.43,211.13ZM98,201.5H96.32v1.78H98Zm-1.68,4.55H98V204.3H96.32Zm4.59,5.07H99.85V200.47h5.05a14.33,14.33,0,0,1-.22,3.11c-.14.5-.6.75-1.37.75h-1l-.3-1h.79a1.93,1.93,0,0,0,.56-.06.47.47,0,0,0,.29-.31,6.61,6.61,0,0,0,.14-1.51h-2.88v3.38H105v1a8.89,8.89,0,0,1-1.08,3,9.9,9.9,0,0,0,1.71,1.28l-.56,1a9.64,9.64,0,0,1-1.79-1.35,6.37,6.37,0,0,1-1.75,1.37l-.59-.89Zm0-1a5.55,5.55,0,0,0,1.6-1.27,7.57,7.57,0,0,1-1.44-3h-.16Zm2.22-2.16a7.88,7.88,0,0,0,.83-2.12H102A6.57,6.57,0,0,0,103.13,208Z"/><path class="cls-8" d="M111.15,200.16a7.62,7.62,0,0,1-.39.81h5.13v.93a10.65,10.65,0,0,1-2.62,2.14,16.35,16.35,0,0,0,4.3,1l-.52,1.07a15.85,15.85,0,0,1-5-1.38,18.91,18.91,0,0,1-5,1.4l-.52-1.06a19.45,19.45,0,0,0,4.29-1,12.4,12.4,0,0,1-1.6-1.13,9.79,9.79,0,0,1-1.34,1l-.69-.91A6.32,6.32,0,0,0,110,200Zm1.13,5.25a7.82,7.82,0,0,1-.1,1.22h4.14c0,2.1-.2,3.36-.54,3.77A2.19,2.19,0,0,1,114,211c-.41,0-.92,0-1.49-.05l-.29-1,1.51.08c.61,0,1-.15,1.15-.39a5,5,0,0,0,.29-2h-3.25a6.17,6.17,0,0,1-.37.82c-.6,1.08-2,2-4.22,2.67l-.76-.92q2.94-.85,3.84-2.1a3.1,3.1,0,0,0,.26-.47h-3.37v-1H111a6.73,6.73,0,0,0,.12-1.22Zm1.94-3.37H110s-.06.06-.07.09a11.35,11.35,0,0,0,2.07,1.35A10.79,10.79,0,0,0,114.22,202Z"/><path class="cls-8" d="M72.16,230.6v3.27h-.68v-7.19H74.3a3.12,3.12,0,0,1,1.82.45,1.65,1.65,0,0,1,.63,1.44,1.8,1.8,0,0,1-.28,1.08,2,2,0,0,1-.89.68,1.2,1.2,0,0,1,.5.32,1.42,1.42,0,0,1,.27.48,2.13,2.13,0,0,1,.11.57c0,.2,0,.4,0,.58s0,.5,0,.68,0,.33.06.44a1.68,1.68,0,0,0,.09.27.33.33,0,0,0,.12.14v.06h-.75a1.18,1.18,0,0,1-.16-.5c0-.21,0-.43-.07-.67s0-.46,0-.68,0-.4,0-.54a1.09,1.09,0,0,0-.2-.46.91.91,0,0,0-.32-.27,1.43,1.43,0,0,0-.43-.12,3.75,3.75,0,0,0-.48,0Zm2.12-.58a2.59,2.59,0,0,0,.7-.08,1.65,1.65,0,0,0,.57-.25,1.38,1.38,0,0,0,.38-.45,1.42,1.42,0,0,0,.14-.65,1.34,1.34,0,0,0-.15-.66,1,1,0,0,0-.39-.41,1.63,1.63,0,0,0-.56-.21,3.49,3.49,0,0,0-.65-.06H72.16V230Z"/><path class="cls-8" d="M78.44,231.42a2.62,2.62,0,0,0,.11.8,2,2,0,0,0,.32.65,1.7,1.7,0,0,0,.55.44,1.67,1.67,0,0,0,.76.16,1.64,1.64,0,0,0,1-.31,1.5,1.5,0,0,0,.56-.88h.67a3.57,3.57,0,0,1-.29.69,2.17,2.17,0,0,1-.45.55,2,2,0,0,1-.64.36,2.55,2.55,0,0,1-.86.13,2.49,2.49,0,0,1-1.07-.21,2,2,0,0,1-.74-.57,2.32,2.32,0,0,1-.43-.86,3.69,3.69,0,0,1-.14-1.07,3.42,3.42,0,0,1,.16-1.07,2.8,2.8,0,0,1,.47-.87,2.16,2.16,0,0,1,.75-.59,2.26,2.26,0,0,1,1-.22,2.08,2.08,0,0,1,1.68.74,3.3,3.3,0,0,1,.6,2.13Zm3.38-.5a2.35,2.35,0,0,0-.11-.71,1.53,1.53,0,0,0-.82-1,1.64,1.64,0,0,0-.71-.15,1.61,1.61,0,0,0-.71.15,1.85,1.85,0,0,0-.52.4,2,2,0,0,0-.34.58,2.39,2.39,0,0,0-.17.7Z"/><path class="cls-8" d="M87.63,226.67h.6v7.2h-.6V233h0a1.57,1.57,0,0,1-.34.46,1.6,1.6,0,0,1-.45.32,1.94,1.94,0,0,1-.5.2,1.89,1.89,0,0,1-.51.07,2.46,2.46,0,0,1-1.07-.21,2,2,0,0,1-.73-.57,2.26,2.26,0,0,1-.41-.87,4.08,4.08,0,0,1-.13-1.07,3.63,3.63,0,0,1,.14-1,2.51,2.51,0,0,1,.42-.87,2.11,2.11,0,0,1,.72-.6,2.21,2.21,0,0,1,1-.23,2.29,2.29,0,0,1,1,.25,1.86,1.86,0,0,1,.8.72Zm0,4.59a2.82,2.82,0,0,0-.12-.83,2.14,2.14,0,0,0-.35-.69,1.55,1.55,0,0,0-.55-.47,1.46,1.46,0,0,0-.73-.18,1.57,1.57,0,0,0-.81.19,1.5,1.5,0,0,0-.56.5,2.1,2.1,0,0,0-.32.75,3,3,0,0,0-.08.91,2.57,2.57,0,0,0,.13.87,1.8,1.8,0,0,0,.38.63,1.48,1.48,0,0,0,.56.4,1.75,1.75,0,0,0,.7.13,1.58,1.58,0,0,0,1.3-.63,2.16,2.16,0,0,0,.33-.7A3.07,3.07,0,0,0,87.63,231.26Z"/><path class="cls-8" d="M92,231v.62H89.42V231Z"/><path class="cls-8" d="M92.51,226.67h5.24v.58H95.47v6.62h-.68v-6.62H92.51Z"/><path class="cls-8" d="M99,231.42a2.62,2.62,0,0,0,.11.8,2,2,0,0,0,.32.65,1.7,1.7,0,0,0,.55.44,1.67,1.67,0,0,0,.76.16,1.64,1.64,0,0,0,1-.31,1.5,1.5,0,0,0,.56-.88H103a3.57,3.57,0,0,1-.29.69,2.17,2.17,0,0,1-.45.55,2,2,0,0,1-.64.36,2.55,2.55,0,0,1-.86.13,2.49,2.49,0,0,1-1.07-.21,2,2,0,0,1-.74-.57,2.32,2.32,0,0,1-.43-.86,3.69,3.69,0,0,1-.14-1.07,3.42,3.42,0,0,1,.16-1.07,2.8,2.8,0,0,1,.47-.87,2.16,2.16,0,0,1,.75-.59,2.26,2.26,0,0,1,1-.22,2.08,2.08,0,0,1,1.68.74,3.3,3.3,0,0,1,.6,2.13Zm3.38-.5a2.35,2.35,0,0,0-.11-.71,1.53,1.53,0,0,0-.82-1,1.64,1.64,0,0,0-.71-.15,1.61,1.61,0,0,0-.71.15,1.85,1.85,0,0,0-.52.4,2,2,0,0,0-.34.58,2.39,2.39,0,0,0-.17.7Z"/><path class="cls-8" d="M106.57,230.85l.4-.06a1.21,1.21,0,0,0,.39-.11.29.29,0,0,0,.18-.23,1.15,1.15,0,0,0,0-.31,1,1,0,0,0-.3-.75,1.35,1.35,0,0,0-1-.3,2.49,2.49,0,0,0-.57.06,1.09,1.09,0,0,0-.78.55,1.48,1.48,0,0,0-.16.56h-.61a1.83,1.83,0,0,1,.21-.78,1.58,1.58,0,0,1,.46-.53,1.81,1.81,0,0,1,.66-.3,3.44,3.44,0,0,1,.8-.1,2.86,2.86,0,0,1,.73.09,1.65,1.65,0,0,1,.6.27,1.21,1.21,0,0,1,.4.49,1.75,1.75,0,0,1,.15.76V233q0,.36.12.45c.09.06.25,0,.51-.05v.47l-.21.06a.82.82,0,0,1-.26,0,1.12,1.12,0,0,1-.27,0,.43.43,0,0,1-.24-.09.65.65,0,0,1-.15-.18.88.88,0,0,1-.07-.23,1.14,1.14,0,0,1,0-.27,2.65,2.65,0,0,1-.87.64,2.52,2.52,0,0,1-1.06.22,2.39,2.39,0,0,1-.66-.09,1.51,1.51,0,0,1-.55-.28,1.3,1.3,0,0,1-.38-.46,1.34,1.34,0,0,1-.14-.66c0-.88.6-1.4,1.81-1.56Zm1,.3a2.76,2.76,0,0,1-.77.21c-.26,0-.52.06-.78.08a2.35,2.35,0,0,0-1.08.31.91.91,0,0,0-.38.79.93.93,0,0,0,.09.42,1,1,0,0,0,.25.29,1.19,1.19,0,0,0,.36.17,1.51,1.51,0,0,0,.42.05,2.74,2.74,0,0,0,.7-.09,1.93,1.93,0,0,0,.6-.27,1.49,1.49,0,0,0,.43-.47,1.45,1.45,0,0,0,.16-.68Z"/><path class="cls-8" d="M110.27,233.87h-.6v-5.18h.6v.78h0a1.5,1.5,0,0,1,.66-.68,1.88,1.88,0,0,1,.94-.24,2.15,2.15,0,0,1,.61.08,1.51,1.51,0,0,1,.42.22,1.06,1.06,0,0,1,.29.31,2.38,2.38,0,0,1,.2.39,1.68,1.68,0,0,1,.69-.75,1.93,1.93,0,0,1,1-.25,1.69,1.69,0,0,1,.84.18,1.28,1.28,0,0,1,.49.46,1.73,1.73,0,0,1,.22.65,4.77,4.77,0,0,1,.06.76v3.27h-.6v-3.58a1.46,1.46,0,0,0-.24-.88,1,1,0,0,0-.87-.32,1.47,1.47,0,0,0-1.17.59,1.31,1.31,0,0,0-.17.31,2.12,2.12,0,0,0-.1.36,2.71,2.71,0,0,0-.06.38c0,.13,0,.25,0,.35v2.79h-.6v-3.58a1.46,1.46,0,0,0-.24-.88,1,1,0,0,0-.87-.32,1.47,1.47,0,0,0-1.17.59,1.31,1.31,0,0,0-.17.31,2.12,2.12,0,0,0-.1.36,2.71,2.71,0,0,0-.06.38c0,.13,0,.25,0,.35Z"/><path class="cls-8" d="M75.94,243.72a2.19,2.19,0,0,0,.21.82,1.71,1.71,0,0,0,.45.54,1.81,1.81,0,0,0,.64.31,3.13,3.13,0,0,0,.77.09,2.59,2.59,0,0,0,.83-.12,1.73,1.73,0,0,0,.57-.32,1.39,1.39,0,0,0,.32-.48,1.56,1.56,0,0,0,.11-.57,1.19,1.19,0,0,0-.19-.68,1.48,1.48,0,0,0-.5-.42,3,3,0,0,0-.7-.27l-.81-.19a8.19,8.19,0,0,1-.81-.23,2.42,2.42,0,0,1-.7-.35,1.57,1.57,0,0,1-.49-.56,1.77,1.77,0,0,1-.19-.88,1.86,1.86,0,0,1,.15-.72,2,2,0,0,1,.46-.62,2.38,2.38,0,0,1,.77-.43,3.38,3.38,0,0,1,1.06-.16,3.1,3.1,0,0,1,1.06.17,2.13,2.13,0,0,1,.76.47,1.84,1.84,0,0,1,.45.68,2.31,2.31,0,0,1,.15.83h-.65a1.58,1.58,0,0,0-.15-.71,1.35,1.35,0,0,0-.39-.49,1.89,1.89,0,0,0-.57-.28,2.5,2.5,0,0,0-.66-.09,2.28,2.28,0,0,0-.88.15,1.52,1.52,0,0,0-.56.37,1.32,1.32,0,0,0-.29.51,1.07,1.07,0,0,0,0,.56.94.94,0,0,0,.28.56,1.63,1.63,0,0,0,.54.35,4.42,4.42,0,0,0,.7.22l.79.18c.26.06.52.14.77.22a2.83,2.83,0,0,1,.67.35,1.61,1.61,0,0,1,.46.57,2.1,2.1,0,0,1-.51,2.41,3,3,0,0,1-1.94.55,3.79,3.79,0,0,1-1-.14,2.44,2.44,0,0,1-.83-.44,2,2,0,0,1-.55-.73,2.49,2.49,0,0,1-.19-1Z"/><path class="cls-8" d="M82.05,243.42a2.62,2.62,0,0,0,.11.8,2,2,0,0,0,.32.65,1.7,1.7,0,0,0,.55.44,1.67,1.67,0,0,0,.76.16,1.64,1.64,0,0,0,1-.31,1.5,1.5,0,0,0,.56-.88H86a3.57,3.57,0,0,1-.29.69,2.17,2.17,0,0,1-.45.55,2,2,0,0,1-.64.36,2.55,2.55,0,0,1-.86.13,2.49,2.49,0,0,1-1.07-.21,2,2,0,0,1-.74-.57,2.32,2.32,0,0,1-.43-.86,3.69,3.69,0,0,1-.14-1.07,3.42,3.42,0,0,1,.16-1.07,2.8,2.8,0,0,1,.47-.87,2.16,2.16,0,0,1,.75-.59,2.26,2.26,0,0,1,1-.22,2.08,2.08,0,0,1,1.68.74,3.3,3.3,0,0,1,.6,2.13Zm3.38-.5a2.35,2.35,0,0,0-.11-.71,1.53,1.53,0,0,0-.82-1,1.64,1.64,0,0,0-.71-.15,1.61,1.61,0,0,0-.71.15,1.85,1.85,0,0,0-.52.4,2,2,0,0,0-.34.58,2.39,2.39,0,0,0-.17.7Z"/><path class="cls-8" d="M87.87,245.87h-.6v-5.18h.6v1h0a1.7,1.7,0,0,1,.64-.86,1.92,1.92,0,0,1,1-.25v.65a1.88,1.88,0,0,0-.84.16,1.49,1.49,0,0,0-.53.46,1.92,1.92,0,0,0-.27.69,4.39,4.39,0,0,0-.07.82Z"/><path class="cls-8" d="M90,240.69h.65l1.68,4.44L94,240.69h.65l-2,5.18H92Z"/><path class="cls-8" d="M95.63,239.56v-.89h.66v.89Zm0,6.31v-5.18h.6v5.18Z"/><path class="cls-8" d="M101.46,242.32a1.75,1.75,0,0,0-.55-.9,1.48,1.48,0,0,0-1-.33,1.62,1.62,0,0,0-.79.19,1.65,1.65,0,0,0-.54.51,2.07,2.07,0,0,0-.31.71,3.06,3.06,0,0,0-.1.79,3.5,3.5,0,0,0,.09.8,2.23,2.23,0,0,0,.31.7,1.52,1.52,0,0,0,.54.5,1.63,1.63,0,0,0,.8.18,1.52,1.52,0,0,0,1.07-.37,1.72,1.72,0,0,0,.52-1h.64a3.19,3.19,0,0,1-.26.79,1.93,1.93,0,0,1-.45.61,1.85,1.85,0,0,1-.65.39,2.41,2.41,0,0,1-.87.14,2.49,2.49,0,0,1-1.07-.21,2,2,0,0,1-.74-.57,2.29,2.29,0,0,1-.43-.87,3.69,3.69,0,0,1-.14-1.07,3.52,3.52,0,0,1,.15-1,3,3,0,0,1,.46-.88,2.19,2.19,0,0,1,1.77-.83,2.34,2.34,0,0,1,1.45.43,2.05,2.05,0,0,1,.7,1.34Z"/><path class="cls-8" d="M103.72,243.42a2.62,2.62,0,0,0,.11.8,2,2,0,0,0,.32.65,1.7,1.7,0,0,0,.55.44,1.67,1.67,0,0,0,.76.16,1.64,1.64,0,0,0,1-.31,1.5,1.5,0,0,0,.56-.88h.67a3.57,3.57,0,0,1-.29.69,2.17,2.17,0,0,1-.45.55,2,2,0,0,1-.64.36,2.55,2.55,0,0,1-.86.13,2.49,2.49,0,0,1-1.07-.21,2,2,0,0,1-.74-.57,2.32,2.32,0,0,1-.43-.86,3.69,3.69,0,0,1-.14-1.07,3.42,3.42,0,0,1,.16-1.07,2.8,2.8,0,0,1,.47-.87,2.16,2.16,0,0,1,.75-.59,2.26,2.26,0,0,1,1-.22,2.08,2.08,0,0,1,1.68.74,3.3,3.3,0,0,1,.6,2.13Zm3.38-.5a2.35,2.35,0,0,0-.11-.71,1.53,1.53,0,0,0-.82-1,1.64,1.64,0,0,0-.71-.15,1.61,1.61,0,0,0-.71.15,1.85,1.85,0,0,0-.52.4,2,2,0,0,0-.34.58,2.39,2.39,0,0,0-.17.7Z"/><path class="cls-8" d="M109.26,244.25a1.54,1.54,0,0,0,.5.95,1.75,1.75,0,0,0,1,.27,1.64,1.64,0,0,0,.57-.08,1,1,0,0,0,.39-.21.9.9,0,0,0,.24-.31.86.86,0,0,0,.08-.36.64.64,0,0,0-.25-.56,1.92,1.92,0,0,0-.61-.29c-.25-.07-.52-.13-.8-.18a3.74,3.74,0,0,1-.8-.23,1.61,1.61,0,0,1-.62-.43,1.17,1.17,0,0,1-.24-.79,1.37,1.37,0,0,1,.47-1.06,2,2,0,0,1,1.35-.42,2.28,2.28,0,0,1,1.36.38,1.74,1.74,0,0,1,.64,1.25H112a1.13,1.13,0,0,0-.46-.84,1.63,1.63,0,0,0-.94-.25,1.31,1.31,0,0,0-.87.25.79.79,0,0,0-.3.64.64.64,0,0,0,.24.54,2.24,2.24,0,0,0,.62.3c.24.07.51.14.8.2a4.16,4.16,0,0,1,.8.26,1.84,1.84,0,0,1,.61.44,1.13,1.13,0,0,1,.25.78,1.4,1.4,0,0,1-.16.66,1.41,1.41,0,0,1-.44.47,2.16,2.16,0,0,1-.67.29,3.67,3.67,0,0,1-.84.09,2.31,2.31,0,0,1-.82-.13,1.76,1.76,0,0,1-.6-.38,1.57,1.57,0,0,1-.39-.56,1.75,1.75,0,0,1-.16-.69Z"/><path class="cls-8" d="M216.91,106.68c.33-.62.65-1.23,1-1.86l1.17.35c-.29.53-.55,1-.8,1.51h6v1.11h-2.31a12,12,0,0,1-1.55,2.82c1.19.5,2.4,1.1,3.65,1.77l-.78,1c-1.24-.72-2.47-1.37-3.7-1.93a8.21,8.21,0,0,1-5.31,1.86l-.66-1.06a8.25,8.25,0,0,0,4.79-1.32c-1.08-.45-2.16-.86-3.23-1.2.41-.66.79-1.31,1.16-1.95h-2.71v-1.11Zm7.1-.61h-1.16v-1.6h-7.92v1.59h-1.16v-2.7h4.48a6.87,6.87,0,0,0-.52-1l1.29-.22c.16.36.33.76.5,1.19H224Zm-7.27,3.22c.81.24,1.65.51,2.5.85a8.07,8.07,0,0,0,1.43-2.35h-3Z"/><path class="cls-8" d="M231.3,102.26a17.11,17.11,0,0,0,5.18,3.66l-.56,1a15.84,15.84,0,0,1-1.68-.93v1.08h-2.77v1.8h3.37V110h-3.37v1.9h4.46V113H225.87v-1.11h4.45V110h-3.38v-1.1h3.38v-1.8h-2.77V106c-.55.34-1.13.65-1.73.95l-.55-1a17.26,17.26,0,0,0,5.22-3.7Zm2.92,3.74a16,16,0,0,1-3.32-2.71,15.32,15.32,0,0,1-3.33,2.71Z"/><path class="cls-8" d="M241.69,102.68v.9c-.35,1-.76,2.11-1.23,3.25a6.41,6.41,0,0,1,1.18,2.91,1.64,1.64,0,0,1-.37,1.19,3.13,3.13,0,0,1-1.89.47l-.37-1.15a5.41,5.41,0,0,0,.61.06,1.87,1.87,0,0,0,.7-.15.5.5,0,0,0,.17-.42A4.64,4.64,0,0,0,239.3,107a32.23,32.23,0,0,0,1.25-3.25h-1.66v9.6h-1.12V102.68ZM244.6,104c-.17-.55-.35-1.07-.54-1.52l1.16-.19c.18.5.36,1.06.53,1.71h2.52v1.1h-3.85c0,.45,0,1.06-.08,1.85h3.4a27.76,27.76,0,0,1-.33,5.12,1.68,1.68,0,0,1-1.72,1.2,7.08,7.08,0,0,1-.95-.07l-.36-1.06c.47,0,.87.05,1.19.05a.92.92,0,0,0,.89-.81,33.13,33.13,0,0,0,.13-3.33h-2.35a9.39,9.39,0,0,1-.7,2.6,10.32,10.32,0,0,1-2,2.79l-.85-.8a8.63,8.63,0,0,0,2-2.91,10.48,10.48,0,0,0,.53-3c0-.71,0-1.25,0-1.64h-1.53V104Z"/><path class="cls-8" d="M252.31,105.8a9.28,9.28,0,0,1-.82,1.6v5.94h-1.05v-4.61c-.25.24-.48.48-.74.71l-.32-1.09a7.87,7.87,0,0,0,2-3Zm-.34-2.88a8.19,8.19,0,0,1-2.18,3.25l-.34-1.11a7,7,0,0,0,1.56-2.59Zm1,2.7-.94-.58a8.61,8.61,0,0,0,1.22-2.78l1,.23a10.52,10.52,0,0,1-.34,1.08h2.44v1h-1.21v1.65h1.43v1h-1.43v1.24h1.2v1h-1.2v1.72l1.45-.37v1a45,45,0,0,1-4.57,1l-.26-1,.64-.08v-3.63h1v3.48l.73-.13v-4.2h-1.78v-1h1.78v-1.65h-.6C253.39,104.94,253.19,105.29,253,105.62Zm5.43,6.33-.29-1.07.56.05c.16,0,.26-.13.26-.38v-6.49h-1v9.3h-1.06V103H260v7.76c0,.78-.33,1.18-1,1.18Z"/><path class="cls-8" d="M197.09,136.1v-7.2h.68v7.2Z"/><path class="cls-8" d="M199.74,136.1h-.6v-5.18h.6v.72a4.13,4.13,0,0,1,.74-.62,1.74,1.74,0,0,1,.93-.24,2.35,2.35,0,0,1,.89.17,1.56,1.56,0,0,1,.69.57,1.22,1.22,0,0,1,.22.58,4.12,4.12,0,0,1,0,.62v3.38h-.6v-3.38a1.55,1.55,0,0,0-.31-1.05,1.33,1.33,0,0,0-1-.35,1.36,1.36,0,0,0-.51.09,2.1,2.1,0,0,0-.42.22,2.33,2.33,0,0,0-.31.32,1.44,1.44,0,0,0-.2.39,1.68,1.68,0,0,0-.11.47c0,.16,0,.32,0,.5Z"/><path class="cls-8" d="M206.12,136.12l-.29.07a1.25,1.25,0,0,1-.4.05,1,1,0,0,1-.69-.22,1.12,1.12,0,0,1-.23-.8v-3.8h-.73v-.5h.73v-1.44h.6v1.44h1v.5h-1V135a3.22,3.22,0,0,0,0,.33.64.64,0,0,0,.06.23.27.27,0,0,0,.15.13.8.8,0,0,0,.3,0,1,1,0,0,0,.24,0l.25-.05Z"/><path class="cls-8" d="M207.05,133.65a3,3,0,0,0,.11.8,1.88,1.88,0,0,0,.32.65,1.7,1.7,0,0,0,.55.44,1.67,1.67,0,0,0,.76.16,1.64,1.64,0,0,0,1-.31,1.46,1.46,0,0,0,.56-.88H211a3,3,0,0,1-.29.69,2.17,2.17,0,0,1-.45.55,1.75,1.75,0,0,1-.64.36,2.87,2.87,0,0,1-1.93-.08,2,2,0,0,1-.74-.57,2.4,2.4,0,0,1-.43-.86,4.07,4.07,0,0,1-.14-1.07,3.32,3.32,0,0,1,.16-1.06,3,3,0,0,1,.47-.88,2.26,2.26,0,0,1,.75-.59,2.3,2.3,0,0,1,1-.22,2.08,2.08,0,0,1,1.68.74,3.18,3.18,0,0,1,.6,2.13Zm3.38-.5a2.07,2.07,0,0,0-.11-.71,1.77,1.77,0,0,0-.3-.58,1.58,1.58,0,0,0-.52-.39,1.76,1.76,0,0,0-1.42,0,1.85,1.85,0,0,0-.52.4,2.21,2.21,0,0,0-.34.58,2.76,2.76,0,0,0-.17.7Z"/><path class="cls-8" d="M215.84,130.92h.6v4.68a4.64,4.64,0,0,1-.11,1,2,2,0,0,1-.37.83,1.88,1.88,0,0,1-.74.58,3,3,0,0,1-1.21.21,2.86,2.86,0,0,1-1-.14,2.34,2.34,0,0,1-.67-.36,1.62,1.62,0,0,1-.39-.49,1.14,1.14,0,0,1-.15-.5h.64a1.19,1.19,0,0,0,.22.48,1.21,1.21,0,0,0,.35.29,1.37,1.37,0,0,0,.46.14,3,3,0,0,0,.52,0,2,2,0,0,0,1-.21,1.35,1.35,0,0,0,.56-.55,1.88,1.88,0,0,0,.24-.77,5.08,5.08,0,0,0,.05-.88,1.82,1.82,0,0,1-.8.73,2.38,2.38,0,0,1-1,.24,2.16,2.16,0,0,1-1-.22,2.24,2.24,0,0,1-.73-.6,2.71,2.71,0,0,1-.42-.87,4.07,4.07,0,0,1-.14-1,4.15,4.15,0,0,1,.13-1.08,2.23,2.23,0,0,1,.42-.86A2,2,0,0,1,213,131a2.46,2.46,0,0,1,1.07-.21,2.24,2.24,0,0,1,.51.07,3.07,3.07,0,0,1,.5.2,1.87,1.87,0,0,1,.45.33,1.89,1.89,0,0,1,.34.46h0Zm0,2.61a3.45,3.45,0,0,0-.11-.87,2.17,2.17,0,0,0-.34-.7,1.56,1.56,0,0,0-1.3-.64,1.78,1.78,0,0,0-.7.14,1.67,1.67,0,0,0-.56.39,1.94,1.94,0,0,0-.38.64,2.55,2.55,0,0,0-.13.86,3.39,3.39,0,0,0,.08.92,2.16,2.16,0,0,0,.32.74,1.52,1.52,0,0,0,.56.51,1.73,1.73,0,0,0,.81.18,1.46,1.46,0,0,0,.73-.17,1.57,1.57,0,0,0,.55-.47,2.24,2.24,0,0,0,.35-.69A2.84,2.84,0,0,0,215.84,133.53Z"/><path class="cls-8" d="M218.18,136.1h-.6v-5.18h.6v1h0a1.71,1.71,0,0,1,.65-.86,2,2,0,0,1,1-.25v.65a1.88,1.88,0,0,0-.84.16,1.49,1.49,0,0,0-.53.46,2.37,2.37,0,0,0-.27.69,4.39,4.39,0,0,0-.07.82Z"/><path class="cls-8" d="M222.86,133.09l.4-.07a1.21,1.21,0,0,0,.39-.11.29.29,0,0,0,.18-.23,1.15,1.15,0,0,0,0-.31,1,1,0,0,0-.3-.75,1.33,1.33,0,0,0-1-.3,2.49,2.49,0,0,0-.57.06,1.35,1.35,0,0,0-.46.19,1.12,1.12,0,0,0-.32.36,1.68,1.68,0,0,0-.16.56h-.61a1.87,1.87,0,0,1,.21-.78,1.58,1.58,0,0,1,.46-.53,1.81,1.81,0,0,1,.66-.3,3.44,3.44,0,0,1,.8-.1,2.86,2.86,0,0,1,.73.09,1.83,1.83,0,0,1,.6.27,1.21,1.21,0,0,1,.4.49,1.75,1.75,0,0,1,.15.76v2.83c0,.23,0,.38.12.44s.26.05.51,0v.48l-.21,0a.78.78,0,0,1-.26,0l-.27,0a.43.43,0,0,1-.24-.09.65.65,0,0,1-.15-.18.88.88,0,0,1-.07-.23,2.13,2.13,0,0,1,0-.27,2.46,2.46,0,0,1-.87.64,2.52,2.52,0,0,1-1.06.22,2.07,2.07,0,0,1-.66-.09,1.51,1.51,0,0,1-.55-.28,1.3,1.3,0,0,1-.38-.46,1.45,1.45,0,0,1-.14-.65c0-.89.6-1.41,1.81-1.57Zm1,.29a2.68,2.68,0,0,1-.77.21c-.26,0-.52.06-.78.08a2.35,2.35,0,0,0-1.08.31.91.91,0,0,0-.38.79.93.93,0,0,0,.09.42,1,1,0,0,0,.25.29,1.19,1.19,0,0,0,.36.17,1.51,1.51,0,0,0,.42,0,2.74,2.74,0,0,0,.7-.09,1.83,1.83,0,0,0,.6-.27,1.39,1.39,0,0,0,.43-.47,1.34,1.34,0,0,0,.16-.68Z"/><path class="cls-8" d="M227.46,136.12l-.29.07a1.25,1.25,0,0,1-.4.05,1,1,0,0,1-.69-.22,1.12,1.12,0,0,1-.23-.8v-3.8h-.73v-.5h.73v-1.44h.6v1.44h1v.5h-1V135a3.22,3.22,0,0,0,0,.33.64.64,0,0,0,.06.23.24.24,0,0,0,.15.13.8.8,0,0,0,.3,0,1,1,0,0,0,.24,0l.25-.05Z"/><path class="cls-8" d="M228.39,133.65a3,3,0,0,0,.11.8,1.88,1.88,0,0,0,.32.65,1.7,1.7,0,0,0,.55.44,1.67,1.67,0,0,0,.76.16,1.64,1.64,0,0,0,1-.31,1.46,1.46,0,0,0,.56-.88h.67a3,3,0,0,1-.29.69,2.17,2.17,0,0,1-.45.55,1.75,1.75,0,0,1-.64.36,2.87,2.87,0,0,1-1.93-.08,2,2,0,0,1-.74-.57,2.4,2.4,0,0,1-.43-.86,4.07,4.07,0,0,1-.14-1.07,3.32,3.32,0,0,1,.16-1.06,2.74,2.74,0,0,1,.47-.88,2.26,2.26,0,0,1,.75-.59,2.3,2.3,0,0,1,1-.22,2.08,2.08,0,0,1,1.68.74,3.18,3.18,0,0,1,.6,2.13Zm3.38-.5a2.35,2.35,0,0,0-.11-.71,1.62,1.62,0,0,0-.31-.58,1.44,1.44,0,0,0-.51-.39,1.76,1.76,0,0,0-1.42,0,1.85,1.85,0,0,0-.52.4,2.21,2.21,0,0,0-.34.58,2.76,2.76,0,0,0-.17.7Z"/><path class="cls-8" d="M237.18,128.9h.6v7.2h-.6v-.91h0a1.57,1.57,0,0,1-.34.46,1.6,1.6,0,0,1-.45.32,1.94,1.94,0,0,1-.5.2,1.79,1.79,0,0,1-.51.07,2.46,2.46,0,0,1-1.07-.21,2.06,2.06,0,0,1-.73-.57,2.34,2.34,0,0,1-.41-.87,4.08,4.08,0,0,1-.13-1.07,4,4,0,0,1,.14-1,2.71,2.71,0,0,1,.42-.87,2.14,2.14,0,0,1,.73-.6,2.16,2.16,0,0,1,1-.23,2.39,2.39,0,0,1,1,.25,1.77,1.77,0,0,1,.8.73Zm0,4.59a2.82,2.82,0,0,0-.12-.83,2.24,2.24,0,0,0-.35-.69,1.66,1.66,0,0,0-.55-.47,1.46,1.46,0,0,0-.73-.18,1.73,1.73,0,0,0-.81.19,1.58,1.58,0,0,0-.56.5,2.3,2.3,0,0,0-.32.75,3.36,3.36,0,0,0-.08.91,2.57,2.57,0,0,0,.13.87,1.8,1.8,0,0,0,.38.63,1.56,1.56,0,0,0,.56.4,1.78,1.78,0,0,0,.7.13,1.58,1.58,0,0,0,1.3-.63,2,2,0,0,0,.33-.7A3.07,3.07,0,0,0,237.18,133.49Z"/><path class="cls-8" d="M240.7,136.1l2.83-7.2h.77l2.76,7.2h-.7l-.83-2.26h-3.28l-.85,2.26Zm1.78-2.84h2.82l-1.41-3.78Z"/><path class="cls-8" d="M251.54,128.9h.6v7.2h-.6v-.91h0a1.74,1.74,0,0,1-.33.46,1.81,1.81,0,0,1-.46.32,1.94,1.94,0,0,1-.5.2,1.79,1.79,0,0,1-.51.07,2.46,2.46,0,0,1-1.07-.21,2.06,2.06,0,0,1-.73-.57,2.34,2.34,0,0,1-.41-.87,4.08,4.08,0,0,1-.13-1.07,4,4,0,0,1,.14-1,2.51,2.51,0,0,1,.42-.87,2.11,2.11,0,0,1,.72-.6,2.23,2.23,0,0,1,1-.23,2.39,2.39,0,0,1,1.05.25,1.77,1.77,0,0,1,.8.73Zm0,4.59a2.82,2.82,0,0,0-.12-.83,2.24,2.24,0,0,0-.35-.69,1.66,1.66,0,0,0-.55-.47,1.46,1.46,0,0,0-.73-.18,1.73,1.73,0,0,0-.81.19,1.58,1.58,0,0,0-.56.5,2.3,2.3,0,0,0-.32.75,3.36,3.36,0,0,0-.08.91,2.57,2.57,0,0,0,.13.87,1.8,1.8,0,0,0,.38.63,1.56,1.56,0,0,0,.56.4,1.78,1.78,0,0,0,.7.13,1.58,1.58,0,0,0,1.3-.63,2,2,0,0,0,.33-.7A3.07,3.07,0,0,0,251.54,133.49Z"/><path class="cls-8" d="M255.63,133.09l.4-.07a1.21,1.21,0,0,0,.39-.11.29.29,0,0,0,.18-.23,1.15,1.15,0,0,0,0-.31,1,1,0,0,0-.3-.75,1.33,1.33,0,0,0-1-.3,2.49,2.49,0,0,0-.57.06,1.35,1.35,0,0,0-.46.19,1.12,1.12,0,0,0-.32.36,1.68,1.68,0,0,0-.16.56h-.61a1.87,1.87,0,0,1,.21-.78,1.58,1.58,0,0,1,.46-.53,1.81,1.81,0,0,1,.66-.3,3.44,3.44,0,0,1,.8-.1,2.86,2.86,0,0,1,.73.09,1.83,1.83,0,0,1,.6.27,1.21,1.21,0,0,1,.4.49,1.75,1.75,0,0,1,.15.76v2.83c0,.23,0,.38.12.44s.26.05.51,0v.48l-.21,0a.78.78,0,0,1-.26,0l-.27,0a.43.43,0,0,1-.24-.09.65.65,0,0,1-.15-.18.88.88,0,0,1-.07-.23,2.13,2.13,0,0,1,0-.27,2.46,2.46,0,0,1-.87.64,2.52,2.52,0,0,1-1.06.22,2.07,2.07,0,0,1-.66-.09,1.51,1.51,0,0,1-.55-.28,1.3,1.3,0,0,1-.38-.46,1.45,1.45,0,0,1-.14-.65c0-.89.6-1.41,1.81-1.57Zm1,.29a2.68,2.68,0,0,1-.77.21c-.26,0-.52.06-.78.08A2.35,2.35,0,0,0,254,134a.91.91,0,0,0-.38.79.93.93,0,0,0,.09.42,1,1,0,0,0,.25.29,1.19,1.19,0,0,0,.36.17,1.51,1.51,0,0,0,.42,0,2.74,2.74,0,0,0,.7-.09,1.83,1.83,0,0,0,.6-.27,1.39,1.39,0,0,0,.43-.47,1.34,1.34,0,0,0,.16-.68Z"/><path class="cls-8" d="M259.08,138.14h-.6v-7.22h.6v.92h0a2.15,2.15,0,0,1,.33-.46,2.36,2.36,0,0,1,.45-.33,3.59,3.59,0,0,1,.51-.2,2.24,2.24,0,0,1,.51-.07A2.46,2.46,0,0,1,262,131a2.05,2.05,0,0,1,.72.58,2.38,2.38,0,0,1,.42.86,4.15,4.15,0,0,1,.13,1.08,4.07,4.07,0,0,1-.14,1,2.53,2.53,0,0,1-.43.87,2.11,2.11,0,0,1-.72.6,2.19,2.19,0,0,1-1,.22,2.45,2.45,0,0,1-1.06-.24,1.85,1.85,0,0,1-.79-.73Zm0-4.61a2.84,2.84,0,0,0,.12.84,2.22,2.22,0,0,0,.34.69,1.77,1.77,0,0,0,.55.47,1.52,1.52,0,0,0,.74.17,1.69,1.69,0,0,0,.8-.18,1.55,1.55,0,0,0,.57-.51,2.16,2.16,0,0,0,.32-.74,3.39,3.39,0,0,0,.08-.92,2.54,2.54,0,0,0-.14-.86,1.92,1.92,0,0,0-.37-.64,1.67,1.67,0,0,0-.56-.39,1.78,1.78,0,0,0-.7-.14,1.56,1.56,0,0,0-1.3.64,2.17,2.17,0,0,0-.34.7A3.45,3.45,0,0,0,259.08,133.53Z"/><path class="cls-8" d="M265.94,136.12l-.29.07a1.25,1.25,0,0,1-.4.05,1,1,0,0,1-.69-.22,1.12,1.12,0,0,1-.23-.8v-3.8h-.73v-.5h.73v-1.44h.6v1.44h1v.5h-1V135a3.22,3.22,0,0,0,0,.33.64.64,0,0,0,.06.23.24.24,0,0,0,.15.13.8.8,0,0,0,.3,0,1,1,0,0,0,.24,0l.25-.05Z"/><path class="cls-8" d="M266.56,129.8v-.9h.66v.9Zm0,6.3v-5.18h.6v5.18Z"/><path class="cls-8" d="M267.77,130.92h.65l1.68,4.44,1.68-4.44h.65l-2,5.18h-.67Z"/><path class="cls-8" d="M273.29,133.65a3,3,0,0,0,.11.8,1.88,1.88,0,0,0,.32.65,1.7,1.7,0,0,0,.55.44,1.67,1.67,0,0,0,.76.16,1.64,1.64,0,0,0,1-.31,1.46,1.46,0,0,0,.56-.88h.67a3,3,0,0,1-.29.69,2.17,2.17,0,0,1-.45.55,1.75,1.75,0,0,1-.64.36A2.87,2.87,0,0,1,274,136a2,2,0,0,1-.74-.57,2.4,2.4,0,0,1-.43-.86,4.07,4.07,0,0,1-.14-1.07,3.32,3.32,0,0,1,.16-1.06,2.74,2.74,0,0,1,.47-.88A2.26,2.26,0,0,1,274,131a2.3,2.3,0,0,1,1-.22,2.08,2.08,0,0,1,1.68.74,3.18,3.18,0,0,1,.6,2.13Zm3.38-.5a2.35,2.35,0,0,0-.11-.71,1.62,1.62,0,0,0-.31-.58,1.44,1.44,0,0,0-.51-.39,1.76,1.76,0,0,0-1.42,0,1.85,1.85,0,0,0-.52.4,2.21,2.21,0,0,0-.34.58,2.76,2.76,0,0,0-.17.7Z"/><path class="cls-8" d="M211.6,143a2.07,2.07,0,0,0-.78-1.31,2.6,2.6,0,0,0-1.49-.38,2.32,2.32,0,0,0-1.12.25,2.28,2.28,0,0,0-.77.71,3,3,0,0,0-.46,1,5.28,5.28,0,0,0-.14,1.21,5.14,5.14,0,0,0,.13,1.18,3.1,3.1,0,0,0,.41,1,2.11,2.11,0,0,0,.78.73,2.43,2.43,0,0,0,1.23.29,2.24,2.24,0,0,0,.84-.16,2,2,0,0,0,.67-.41,2.72,2.72,0,0,0,.47-.63,2.88,2.88,0,0,0,.3-.79h.71a4.65,4.65,0,0,1-.35,1,2.67,2.67,0,0,1-.6.81,2.79,2.79,0,0,1-.91.56,3.47,3.47,0,0,1-1.26.21,3.1,3.1,0,0,1-1.42-.31,2.69,2.69,0,0,1-1-.83,3.29,3.29,0,0,1-.54-1.2,6.19,6.19,0,0,1-.17-1.45,5.23,5.23,0,0,1,.25-1.75,3.05,3.05,0,0,1,.71-1.18,2.72,2.72,0,0,1,1.06-.66,4.08,4.08,0,0,1,1.33-.2,3.31,3.31,0,0,1,1,.14,2.41,2.41,0,0,1,.84.44,2.32,2.32,0,0,1,.61.71,3.14,3.14,0,0,1,.32,1Z"/><path class="cls-8" d="M213.18,149.51l.24,0h.26a.58.58,0,0,0,.41-.15,1.33,1.33,0,0,0,.26-.39,3.8,3.8,0,0,0,.18-.47,2.34,2.34,0,0,1,.16-.41l-2-5.22h.67l1.66,4.45,1.66-4.45h.65L215.39,148c-.12.33-.24.62-.35.88a3,3,0,0,1-.35.67,1.37,1.37,0,0,1-.41.42.91.91,0,0,1-.53.14,1.56,1.56,0,0,1-.31,0l-.26-.05Z"/><path class="cls-8" d="M218.49,148.1h-.6v-7.2h.6v2.86a1.8,1.8,0,0,1,.79-.73,2.46,2.46,0,0,1,1.06-.25,2.19,2.19,0,0,1,1,.23,2,2,0,0,1,.72.6,2.53,2.53,0,0,1,.43.87,4,4,0,0,1,.14,1,4.08,4.08,0,0,1-.13,1.07,2.35,2.35,0,0,1-.42.87,2,2,0,0,1-.72.57,2.46,2.46,0,0,1-1.07.21,1.79,1.79,0,0,1-.51-.07,2.16,2.16,0,0,1-.51-.2,1.71,1.71,0,0,1-.44-.32,1.57,1.57,0,0,1-.34-.46h0Zm0-2.61a3.48,3.48,0,0,0,.11.88,2.17,2.17,0,0,0,.34.7,1.58,1.58,0,0,0,1.3.63,1.78,1.78,0,0,0,.7-.13,1.56,1.56,0,0,0,.56-.4,1.78,1.78,0,0,0,.37-.63,2.34,2.34,0,0,0,.14-.87,3.36,3.36,0,0,0-.08-.91,2.3,2.3,0,0,0-.32-.75,1.61,1.61,0,0,0-.57-.5,1.69,1.69,0,0,0-.8-.19,1.53,1.53,0,0,0-.74.18,1.77,1.77,0,0,0-.55.47,2.47,2.47,0,0,0-.34.69A2.82,2.82,0,0,0,218.49,145.49Z"/><path class="cls-8" d="M223.9,145.65a3,3,0,0,0,.11.8,1.88,1.88,0,0,0,.32.65,1.7,1.7,0,0,0,.55.44,1.67,1.67,0,0,0,.76.16,1.64,1.64,0,0,0,1-.31,1.46,1.46,0,0,0,.56-.88h.67a3,3,0,0,1-.29.69,2.17,2.17,0,0,1-.45.55,1.75,1.75,0,0,1-.64.36,2.87,2.87,0,0,1-1.93-.08,2,2,0,0,1-.74-.57,2.4,2.4,0,0,1-.43-.86,4.07,4.07,0,0,1-.14-1.07,3.06,3.06,0,0,1,.17-1.06,2.4,2.4,0,0,1,.47-.88,2.13,2.13,0,0,1,.74-.59,2.3,2.3,0,0,1,1-.22,2.08,2.08,0,0,1,1.68.74,3.18,3.18,0,0,1,.6,2.13Zm3.38-.5a2.71,2.71,0,0,0-.1-.71,1.81,1.81,0,0,0-.32-.58,1.44,1.44,0,0,0-.51-.39,1.61,1.61,0,0,0-.71-.15,1.54,1.54,0,0,0-.7.15,1.76,1.76,0,0,0-.53.4,2.21,2.21,0,0,0-.34.58,2.76,2.76,0,0,0-.17.7Z"/><path class="cls-8" d="M229.32,148.1h-.6v-5.18h.6v1h0A1.75,1.75,0,0,1,230,143a2,2,0,0,1,1.05-.25v.65a1.88,1.88,0,0,0-.84.16,1.49,1.49,0,0,0-.53.46,1.92,1.92,0,0,0-.27.69,4.39,4.39,0,0,0-.07.82Z"/><path class="cls-8" d="M234.09,148.1v-7.2h2.46l.59,0a3.7,3.7,0,0,1,.57.07,3.08,3.08,0,0,1,.54.16,3,3,0,0,1,.52.29,2.24,2.24,0,0,1,.59.64,3.76,3.76,0,0,1,.36.79,4.24,4.24,0,0,1,.19.84,5.65,5.65,0,0,1,.06.78,6,6,0,0,1-.05.73,3.62,3.62,0,0,1-.14.73,4,4,0,0,1-.27.68,2.23,2.23,0,0,1-.41.59,2.09,2.09,0,0,1-.55.45,2.29,2.29,0,0,1-.62.27,3.61,3.61,0,0,1-.67.13c-.23,0-.47,0-.71,0Zm.68-.58h1.63a5.86,5.86,0,0,0,.86-.05,2.55,2.55,0,0,0,.83-.28,1.57,1.57,0,0,0,.59-.49A2.7,2.7,0,0,0,239,146a3.22,3.22,0,0,0,.19-.77,5.09,5.09,0,0,0,.06-.77,7.13,7.13,0,0,0,0-.79,3.22,3.22,0,0,0-.19-.77,2.47,2.47,0,0,0-.38-.67,1.93,1.93,0,0,0-.62-.5,2.12,2.12,0,0,0-.76-.23,8.69,8.69,0,0,0-.89-.05h-1.63Z"/><path class="cls-8" d="M241.19,145.65a3,3,0,0,0,.11.8,1.88,1.88,0,0,0,.32.65,1.7,1.7,0,0,0,.55.44,1.67,1.67,0,0,0,.76.16,1.64,1.64,0,0,0,1-.31,1.46,1.46,0,0,0,.56-.88h.67a3,3,0,0,1-.29.69,2.17,2.17,0,0,1-.45.55,1.75,1.75,0,0,1-.64.36,2.87,2.87,0,0,1-1.93-.08,2,2,0,0,1-.74-.57,2.4,2.4,0,0,1-.43-.86,4.07,4.07,0,0,1-.14-1.07,3.32,3.32,0,0,1,.16-1.06,2.74,2.74,0,0,1,.47-.88,2.26,2.26,0,0,1,.75-.59,2.3,2.3,0,0,1,1-.22,2.08,2.08,0,0,1,1.68.74,3.18,3.18,0,0,1,.6,2.13Zm3.38-.5a2.35,2.35,0,0,0-.11-.71,1.62,1.62,0,0,0-.31-.58,1.44,1.44,0,0,0-.51-.39,1.76,1.76,0,0,0-1.42,0,1.85,1.85,0,0,0-.52.4,2.21,2.21,0,0,0-.34.58,2.76,2.76,0,0,0-.17.7Z"/><path class="cls-8" d="M245.46,143.42v-.5h.77v-.82a1.67,1.67,0,0,1,.25-1,1,1,0,0,1,.85-.36h.26l.24,0v.55a1.63,1.63,0,0,0-.36,0,.64.64,0,0,0-.36.09.5.5,0,0,0-.19.22,1.07,1.07,0,0,0-.08.32c0,.12,0,.23,0,.35v.64h1v.5h-1v4.68h-.6v-4.68Z"/><path class="cls-8" d="M248.73,145.65a3,3,0,0,0,.11.8,1.88,1.88,0,0,0,.32.65,1.7,1.7,0,0,0,.55.44,1.67,1.67,0,0,0,.76.16,1.64,1.64,0,0,0,1-.31,1.46,1.46,0,0,0,.56-.88h.67a3,3,0,0,1-.29.69,2.17,2.17,0,0,1-.45.55,1.75,1.75,0,0,1-.64.36,2.87,2.87,0,0,1-1.93-.08,2,2,0,0,1-.74-.57,2.4,2.4,0,0,1-.43-.86,4.07,4.07,0,0,1-.14-1.07,3.32,3.32,0,0,1,.16-1.06,2.74,2.74,0,0,1,.47-.88,2.26,2.26,0,0,1,.75-.59,2.3,2.3,0,0,1,1-.22,2.08,2.08,0,0,1,1.68.74,3.18,3.18,0,0,1,.6,2.13Zm3.38-.5a2.35,2.35,0,0,0-.11-.71,1.62,1.62,0,0,0-.31-.58,1.44,1.44,0,0,0-.51-.39,1.76,1.76,0,0,0-1.42,0,1.85,1.85,0,0,0-.52.4,2.21,2.21,0,0,0-.34.58,2.76,2.76,0,0,0-.17.7Z"/><path class="cls-8" d="M254.12,148.1h-.6v-5.18h.6v.72a4.13,4.13,0,0,1,.74-.62,1.74,1.74,0,0,1,.93-.24,2.35,2.35,0,0,1,.89.17,1.56,1.56,0,0,1,.69.57,1.22,1.22,0,0,1,.22.58,4.12,4.12,0,0,1,0,.62v3.38H257v-3.38a1.55,1.55,0,0,0-.31-1.05,1.33,1.33,0,0,0-1-.35,1.36,1.36,0,0,0-.51.09,2.1,2.1,0,0,0-.42.22,2.33,2.33,0,0,0-.31.32,1.44,1.44,0,0,0-.2.39,1.68,1.68,0,0,0-.11.47c0,.16,0,.32,0,.5Z"/><path class="cls-8" d="M259,146.48a1.52,1.52,0,0,0,.5,1,1.77,1.77,0,0,0,1.05.27,1.64,1.64,0,0,0,.57-.08,1,1,0,0,0,.39-.21.79.79,0,0,0,.24-.31.86.86,0,0,0,.08-.36.64.64,0,0,0-.25-.56,1.82,1.82,0,0,0-.61-.29,7.92,7.92,0,0,0-.8-.18,3.37,3.37,0,0,1-.8-.23,1.61,1.61,0,0,1-.62-.43,1.17,1.17,0,0,1-.24-.79,1.37,1.37,0,0,1,.47-1.06,2,2,0,0,1,1.35-.42,2.28,2.28,0,0,1,1.36.38,1.71,1.71,0,0,1,.64,1.25h-.61a1.1,1.1,0,0,0-.46-.84,1.71,1.71,0,0,0-.94-.25,1.37,1.37,0,0,0-.87.25.79.79,0,0,0-.3.65.63.63,0,0,0,.24.53,2.24,2.24,0,0,0,.62.3c.25.08.51.14.8.21a3.4,3.4,0,0,1,.8.25,1.74,1.74,0,0,1,.61.44,1.13,1.13,0,0,1,.25.78,1.29,1.29,0,0,1-.16.66,1.32,1.32,0,0,1-.44.47,1.94,1.94,0,0,1-.67.29,3.61,3.61,0,0,1-.84.09,2.31,2.31,0,0,1-.82-.13,1.86,1.86,0,0,1-.6-.38,1.57,1.57,0,0,1-.39-.56,1.94,1.94,0,0,1-.16-.69Z"/><path class="cls-8" d="M263.65,145.65a3,3,0,0,0,.11.8,1.88,1.88,0,0,0,.32.65,1.7,1.7,0,0,0,.55.44,1.67,1.67,0,0,0,.76.16,1.64,1.64,0,0,0,1-.31,1.46,1.46,0,0,0,.56-.88h.67a3,3,0,0,1-.29.69,2.17,2.17,0,0,1-.45.55,1.75,1.75,0,0,1-.64.36,2.87,2.87,0,0,1-1.93-.08,2,2,0,0,1-.74-.57,2.4,2.4,0,0,1-.43-.86,4.07,4.07,0,0,1-.14-1.07,3.32,3.32,0,0,1,.16-1.06,2.74,2.74,0,0,1,.47-.88,2.26,2.26,0,0,1,.75-.59,2.3,2.3,0,0,1,1-.22,2.08,2.08,0,0,1,1.68.74,3.18,3.18,0,0,1,.6,2.13Zm3.38-.5a2.35,2.35,0,0,0-.11-.71,1.62,1.62,0,0,0-.31-.58,1.44,1.44,0,0,0-.51-.39,1.76,1.76,0,0,0-1.42,0,1.85,1.85,0,0,0-.52.4,2.21,2.21,0,0,0-.34.58,2.76,2.76,0,0,0-.17.7Z"/><path class="cls-1" d="M63,268.13l-1.17-.86L66,261.65l1.16.86Z"/><path class="cls-1" d="M68.15,263.26l1.26.87-.47,5.58,2.76-4,1.12.77-3.95,5.76-1.2-.82.46-5.7-2.81,4.09L64.2,269Z"/><path class="cls-1" d="M78.19,269.81l-.65,1.05-1.78-1.1-3,4.88-1.25-.77,3-4.88-1.78-1.11.65-1.05Z"/><path class="cls-1" d="M82.71,273.78,79.48,272l-.72,1.29,3,1.66-.6,1.06-3-1.66-.88,1.56,3.37,1.9L80,278.87l-4.61-2.59,3.42-6.09,4.46,2.51Z"/><path class="cls-1" d="M84.37,273.26l1.3.65L83.09,279l3.11,1.57-.56,1.12-4.42-2.23Z"/><path class="cls-1" d="M89.57,275.85l1.33.6-2.37,5.22,3.17,1.44-.51,1.14-4.51-2Z"/><path class="cls-1" d="M93.43,285.17l-1.34-.56,2.69-6.44,1.34.55Z"/><path class="cls-1" d="M100.92,282.93a1.36,1.36,0,0,0-.41-1.22,1.8,1.8,0,0,0-.69-.43,1.73,1.73,0,0,0-1.52.11,2.87,2.87,0,0,0-1.18,1.6A2.38,2.38,0,0,0,97,284.9a1.93,1.93,0,0,0,1.06,1,1.77,1.77,0,0,0,1.28,0,1.82,1.82,0,0,0,.93-.83l-1.52-.57.41-1.09,2.73,1-1.32,3.51-.91-.34.17-.87a3.4,3.4,0,0,1-1,.39,2.72,2.72,0,0,1-1.46-.17,3,3,0,0,1-1.79-1.7,3.68,3.68,0,0,1,.06-2.8,3.88,3.88,0,0,1,1.83-2.21,3.61,3.61,0,0,1,4.44,1.29,2.5,2.5,0,0,1,.28,1.9Z"/><path class="cls-1" d="M108.77,284.54l-3.52-1.12-.45,1.41,3.23,1-.37,1.16-3.23-1-.55,1.71,3.68,1.18-.38,1.2-5-1.61,2.13-6.66,4.88,1.56Z"/><path class="cls-1" d="M110.25,283.69l1.48.4,1.42,5.42,1.26-4.71,1.31.36-1.81,6.74-1.41-.38L111,286l-1.28,4.79-1.32-.35Z"/><path class="cls-1" d="M117.4,286.29a2.82,2.82,0,0,1,2.28-.39,2.88,2.88,0,0,1,2.25,1.66,2.65,2.65,0,0,1,.2,1.38l-1.43-.31a2.11,2.11,0,0,0-.19-.82,1.42,1.42,0,0,0-1-.68,1.4,1.4,0,0,0-1.33.37,3.09,3.09,0,0,0-.83,1.68,2.76,2.76,0,0,0,.1,1.82,1.51,1.51,0,0,0,1.06.83,1.35,1.35,0,0,0,1.22-.26,2.14,2.14,0,0,0,.53-.71l1.41.3a3.15,3.15,0,0,1-1.32,1.62,2.8,2.8,0,0,1-2.09.28,3,3,0,0,1-2.09-1.44,4.59,4.59,0,0,1,1.27-5.33Z"/><path class="cls-1" d="M128.53,288.9l-3.64-.6-.24,1.47,3.34.55-.19,1.19-3.35-.55-.29,1.78,3.81.62-.2,1.24-5.23-.86,1.14-6.89,5,.83Z"/></svg>