<svg id="图层_1" data-name="图层 1" xmlns="http://www.w3.org/2000/svg" viewBox="0 0 527.08 244.24"><defs><style>.cls-1{fill:#d6f3fa;}.cls-2{fill:#2a92d4;}.cls-3{fill:#125487;}.cls-4{fill:#37c9eb;}.cls-5{fill:#03dcd5;}.cls-6{fill:#acd8d7;}.cls-7{fill:#ccf7f6;}.cls-8{fill:#fff;}</style></defs><title>ico2</title><path class="cls-1" d="M33.7,236.66C33.7,112.8,134.11,12.4,258,12.4S482.21,112.8,482.21,236.66Zm444,0C477.65,115.33,379.29,17,258,17S38.27,115.33,38.27,236.66Z"/><path class="cls-2" d="M19.67,137.28h4v1H15.51v2.34a14.64,14.64,0,0,1-1.08,5.93l-.89-.79a12.61,12.61,0,0,0,.9-5.14v-3.37h4a9.27,9.27,0,0,0-.52-.88l1.18-.2A10.94,10.94,0,0,1,19.67,137.28Zm.5,7.83a32.77,32.77,0,0,0,1.72-5.72l1.05.28a34.11,34.11,0,0,1-1.63,5.44h2.2v1H15.57v-1Zm-2-1.11-1,.26a33.52,33.52,0,0,0-1.1-4l.91-.29A30.64,30.64,0,0,1,18.14,144Zm2-.68-1,.25a38.61,38.61,0,0,0-.94-4.15l.92-.3A39.2,39.2,0,0,1,20.12,143.32Z"/><path class="cls-2" d="M26.08,142.87v-.94h6.33v-.67H26.5v-.89h5.91v-.67H26.13v0l-.71.5-.68-.82a10.83,10.83,0,0,0,3.34-3.21l1.06.25-.4.6h3.48v.73a12.48,12.48,0,0,1-.89,1h2.09v4.11Zm.9.74a9,9,0,0,1-1.19,2.67l-.92-.58a7,7,0,0,0,1.07-2.29Zm3.95-5.76H28.06c-.29.32-.58.62-.87.91H30C30.32,138.5,30.62,138.18,30.93,137.85Zm-2.27,8.56a1,1,0,0,1-1.12-1.14v-2h1.07v1.73c0,.28.12.43.36.43h2.19a.58.58,0,0,0,.45-.16,2,2,0,0,0,.23-1.06l1,.32c-.09.88-.24,1.42-.49,1.6a1.72,1.72,0,0,1-1,.23Zm2.64-2.06-.88.61a12.61,12.61,0,0,0-1.2-1.44l.87-.53A9.56,9.56,0,0,1,31.3,144.35ZM35,145.5l-.88.62a19.34,19.34,0,0,0-1.54-2.44l.85-.53A18.36,18.36,0,0,1,35,145.5Z"/><path class="cls-2" d="M19.22,149.65V151h4.27v1H19.22v1.46h3v.93a8.72,8.72,0,0,1-2.56,3.09,12.93,12.93,0,0,0,1.63.75,22.89,22.89,0,0,0,2.54.75l-.62.93a20.64,20.64,0,0,1-2.75-.93,17.06,17.06,0,0,1-1.71-.87A16.56,16.56,0,0,1,14.25,160l-.61-.95a15.38,15.38,0,0,0,4.17-1.53,7.76,7.76,0,0,1-1.46-1.46,4.7,4.7,0,0,1-.84-1.57h-.78v-1h3.4v-1.46H13.89v-1h4.24v-1.37ZM21,154.5H16.56a4.14,4.14,0,0,0,.87,1.38A7.85,7.85,0,0,0,18.7,157,7.76,7.76,0,0,0,21,154.5Z"/><path class="cls-2" d="M25,159.82l-.24-1a3.75,3.75,0,0,0,.73.07c.23,0,.36-.15.36-.42v-2.37c-.34.15-.66.28-1,.41l-.26-1a10.57,10.57,0,0,0,1.26-.45v-2.4H24.76v-1h1.12v-1.94h1v1.94h.84v1h-.84v1.9c.34-.19.68-.4,1-.62V155l-1,.6v3.15q0,1.11-1,1.11Zm9.4-4.45a24.65,24.65,0,0,1-2.52.3v.59h2.3v.8h-2.3v.5h3v.86h-3v.45a.89.89,0,0,1-1,1H29.81l-.2-.9a6.65,6.65,0,0,0,1,.07c.2,0,.3-.15.3-.41v-.23H27.84v-.86h3.05v-.5H28.48v-.8h2.41v-.53c-.74,0-1.54,0-2.38,0l-.27-.78A39.47,39.47,0,0,0,34,154.6Zm-2.52-5.73v1.25h.79a9.7,9.7,0,0,0,.54-1.18l.92.3c-.16.32-.31.61-.48.88h1v2.28h-1v-1.38H29v1.42H28v-2.32h1.1a5.6,5.6,0,0,0-.52-.81l.88-.32a6.26,6.26,0,0,1,.56,1.13h.83v-1.25Zm1.53,2.67v2.09h-4.1v-2.09Zm-.85.76H30.2v.58h2.39Z"/><path class="cls-2" d="M129.13,7.77A18.59,18.59,0,0,1,127.39,11l1.36-.18c.25-.44.49-.89.75-1.38l.95.35a27.47,27.47,0,0,1-2.57,4.08,18.71,18.71,0,0,0,2.29-.7v1a17.6,17.6,0,0,1-3.63.95l-.29-1a1.89,1.89,0,0,0,.48-.31,11.2,11.2,0,0,0,1.46-2c-.59.09-1.2.17-1.82.24l-.28-1a1.06,1.06,0,0,0,.47-.41,19.12,19.12,0,0,0,1.56-3.31Zm.88,8.56a20.11,20.11,0,0,1-3.74,1l-.14-1a22.86,22.86,0,0,0,3.88-1Zm.55-7.27V8H136v1h-2.19v7.11h2.48v1h-6.05v-1h2.51V9.06Z"/><path class="cls-2" d="M146.25,16.43h1.16v.95H137.29v-.95h1.16V13.87h7.8Zm-6.32-8.38V7.37H141v.68h2.7V7.37h1.07v.68h2.46V9h-2.46v.72H143.7V9H141v.7h-1.07V9h-2.47v-1Zm-.87,2.35v2.78H138V10.4Zm1.63,6v-1.6h-1.23v1.6Zm.49-6.37v3.47h-1V10.06ZM142.29,13l-.79-.73a5.62,5.62,0,0,0,1.67-2.33l1,.26c-.07.17-.15.35-.22.53h3v1h-3.49A5.17,5.17,0,0,1,142.29,13Zm.67,3.48v-1.6h-1.27v1.6Zm3.31-3.52-.66.75a10.28,10.28,0,0,0-1.83-1.16l.66-.63A9.87,9.87,0,0,1,146.27,12.91Zm-1,3.52v-1.6H144v1.6Z"/><path class="cls-2" d="M151.19,12.36a9.39,9.39,0,0,0,.62-2.94h-3v-1h3.91v.78a10,10,0,0,1-.88,4.08c.43.58.82,1.14,1.19,1.71l-.78.78c-.28-.49-.6-1-.94-1.48A11.35,11.35,0,0,1,149,17l-.6-.93a8.65,8.65,0,0,0,2.35-2.65c-.6-.8-1.29-1.64-2-2.49l.72-.67C150,11,150.63,11.65,151.19,12.36ZM155.64,14l-.83.58a19.74,19.74,0,0,0-1.64-2.37l.8-.59A18,18,0,0,1,155.64,14Zm.7-4.54V7.34h1.07v2.1h1.15v1h-1.15v5.86a1.15,1.15,0,0,1-1.32,1.28h-1.7l-.22-1c.54,0,1.06.06,1.55.06s.62-.2.62-.57v-5.6h-3.12v-1Z"/><path class="cls-2" d="M159.91,17.51l-.24-1c.3,0,.59.06.86.06a.41.41,0,0,0,.46-.45V13.79l-1.33.45-.27-1.07c.54-.13,1.07-.27,1.6-.45V10.34h-1.37v-1H161V7.37h1v2h1.28v1H162v2c.43-.19.85-.39,1.28-.61v1.07l-1.28.59v3a1,1,0,0,1-1.12,1.12Zm4.15-2.1a5.71,5.71,0,0,0,.32-2.16V10.8h3.73v5.44c0,.23.08.34.25.34h.22a.37.37,0,0,0,.17,0,.22.22,0,0,0,.1-.11A10.29,10.29,0,0,0,168.9,15l.93.28a11.25,11.25,0,0,1-.08,1.43.94.94,0,0,1-.29.65,1.49,1.49,0,0,1-.77.15h-.36c-.81,0-1.21-.39-1.21-1.14V11.77h-1.75v1.48a7.1,7.1,0,0,1-.37,2.47,5.18,5.18,0,0,1-1.37,2l-.78-.7A4.24,4.24,0,0,0,164.06,15.41Zm1.83-6.68a10,10,0,0,0-.62-1.27l1.08-.18c.2.42.4.9.6,1.45h2.33v1h-5.75v-1Z"/><path class="cls-2" d="M142.88,20.73V22.1h4.27v1h-4.27v1.46h3v.93a8.65,8.65,0,0,1-2.57,3.09,13.08,13.08,0,0,0,1.64.75,20.76,20.76,0,0,0,2.53.75l-.61.93a20.64,20.64,0,0,1-2.75-.93,15.15,15.15,0,0,1-1.71-.87,16.69,16.69,0,0,1-4.47,1.85l-.61-.95a15.51,15.51,0,0,0,4.17-1.53A7.76,7.76,0,0,1,140,27.15a4.7,4.7,0,0,1-.84-1.57h-.78v-1h3.4V23.13h-4.25v-1h4.25V20.73Zm1.76,4.85h-4.42a4.14,4.14,0,0,0,.87,1.38,7.85,7.85,0,0,0,1.27,1.09A7.62,7.62,0,0,0,144.64,25.58Z"/><path class="cls-2" d="M148.69,30.9l-.24-1a3.68,3.68,0,0,0,.73.07c.23,0,.35-.15.35-.42V27.16l-1,.42-.27-1a9.45,9.45,0,0,0,1.26-.45v-2.4h-1.11v-1h1.11V20.75h1v1.94h.84v1h-.84v1.9c.33-.19.68-.4,1-.62V26c-.33.21-.68.41-1,.6v3.15c0,.74-.35,1.11-1,1.11Zm9.39-4.45a24.31,24.31,0,0,1-2.52.3v.59h2.31v.8h-2.31v.51h3v.85h-3V30c0,.68-.33,1-1,1h-1.11l-.2-.91a6.65,6.65,0,0,0,1,.07c.2,0,.3-.15.3-.41V29.5h-3.06v-.85h3.06v-.51h-2.41v-.8h2.41v-.53c-.75,0-1.54,0-2.39,0l-.26-.78a38.11,38.11,0,0,0,5.74-.39Zm-2.52-5.73V22h.79a8.44,8.44,0,0,0,.55-1.18l.92.3c-.16.32-.32.61-.48.88h1v2.28h-1V22.87h-4.71v1.42h-1V22h1.1a6.9,6.9,0,0,0-.52-.8l.88-.33a5.67,5.67,0,0,1,.55,1.13h.84V20.72Zm1.54,2.67v2.09H153V23.39Zm-.86.76h-2.38v.58h2.38Z"/><path class="cls-2" d="M364.2,10.6v-.54h-4.26v-.9h4.26V8.55c-1.07.06-2.2.1-3.38.15l-.18-.85q4.35-.13,7.71-.47l.32.86c-1.06.09-2.2.18-3.41.26v.66h4.28v.9h-4.28v.54h3.42v3.84h-3.42V15h3.89v.83h-3.89v.64h4.45v.9h-9.93v-.9h4.42v-.64h-3.86V15h3.86v-.59h-3.41V10.6Zm0,1.51v-.67h-2.4v.67Zm0,.8h-2.4v.69h2.4Zm1.06-.8h2.39v-.67h-2.39Zm2.39.8h-2.39v.69h2.39Z"/><path class="cls-2" d="M374.07,7.73a12.81,12.81,0,0,1-1,2.32v7.62H372v-6a14.78,14.78,0,0,1-1,1.21l-.34-1.13a12.68,12.68,0,0,0,2.43-4.51Zm5.86.09v3.7h-2.18v1h3.12v1H378.7a8.77,8.77,0,0,0,2.38,2.65l-.69.92a11.76,11.76,0,0,1-2.55-3.57h-.09v4.13H376.7V13.52h-.1A9.87,9.87,0,0,1,374,17.1l-.6-1a8,8,0,0,0,2.36-2.62h-2.06v-1h3v-1h-2.16V7.82Zm-1,1h-3.3V10.5h3.3Z"/><path class="cls-2" d="M365.28,20.73V22.1h4.27v1h-4.27v1.46h3v.93a8.75,8.75,0,0,1-2.57,3.09,13.08,13.08,0,0,0,1.64.75,20.76,20.76,0,0,0,2.53.75l-.61.93a20.78,20.78,0,0,1-2.76-.93,15.87,15.87,0,0,1-1.7-.87,16.69,16.69,0,0,1-4.47,1.85l-.61-.95a15.31,15.31,0,0,0,4.16-1.53,8.41,8.41,0,0,1-1.46-1.46,4.67,4.67,0,0,1-.83-1.57h-.78v-1h3.4V23.13h-4.25v-1h4.25V20.73ZM367,25.58h-4.42a4.14,4.14,0,0,0,.87,1.38,7.44,7.44,0,0,0,1.27,1.09A7.62,7.62,0,0,0,367,25.58Z"/><path class="cls-2" d="M371.08,30.9l-.23-1a3.58,3.58,0,0,0,.72.07c.24,0,.36-.15.36-.42V27.16c-.33.15-.66.28-1,.42l-.27-1a10,10,0,0,0,1.26-.45v-2.4h-1.11v-1h1.11V20.75h1v1.94h.83v1H373v1.9c.33-.19.68-.4,1-.62V26c-.33.21-.68.41-1,.6v3.15c0,.74-.35,1.11-1,1.11Zm9.4-4.45a24.31,24.31,0,0,1-2.52.3v.59h2.31v.8H378v.51h3v.85h-3V30c0,.68-.33,1-1,1h-1.11l-.2-.91a6.55,6.55,0,0,0,1,.07c.2,0,.3-.15.3-.41V29.5h-3.06v-.85H377v-.51h-2.41v-.8H377v-.53c-.75,0-1.54,0-2.39,0l-.27-.78a38.25,38.25,0,0,0,5.75-.39ZM378,20.72V22h.79a11.56,11.56,0,0,0,.55-1.18l.91.3a8.07,8.07,0,0,1-.48.88h1v2.28h-1V22.87h-4.71v1.42h-1V22h1.11a5.84,5.84,0,0,0-.53-.8l.88-.33a6.26,6.26,0,0,1,.56,1.13H377V20.72Zm1.54,2.67v2.09h-4.1V23.39Zm-.86.76h-2.38v.58h2.38Z"/><path class="cls-2" d="M473.4,143.91a11.09,11.09,0,0,1-2.8,2.38l-.67-.87a11,11,0,0,0,2.72-2.17Zm-.11,2.62-.25-1q.6.06,1.14.06a.32.32,0,0,0,.36-.36v-2.47c-1.07.07-2.21.13-3.44.18l-.29-.92a4.66,4.66,0,0,0,.92-.19,14.6,14.6,0,0,0,2.71-1.62c-.9.07-1.85.13-2.86.19l-.22-.94a2.07,2.07,0,0,0,.71-.19,6.07,6.07,0,0,0,1.61-1.37q-1.32.06-2.79.06l-.31-.92a43.83,43.83,0,0,0,8.08-.64l.52.88a29.09,29.09,0,0,1-4.19.54,10.76,10.76,0,0,1-1.8,1.68l2.34-.15c.47-.39,1-.81,1.46-1.27l1,.48a29.67,29.67,0,0,1-4.61,3.4c1.54-.1,2.89-.22,4-.36-.24-.32-.49-.64-.76-1l.78-.49a21.91,21.91,0,0,1,2.13,2.82l-.84.59c-.2-.35-.44-.72-.7-1.1-.73.09-1.53.17-2.41.24v2.79a1,1,0,0,1-1.05,1.08Zm6.6-.95-.76.75a16.8,16.8,0,0,0-2.73-2.47l.7-.69A18.15,18.15,0,0,1,479.89,145.58Z"/><path class="cls-2" d="M483.84,136.64a19,19,0,0,1-1.61,3.23c.38-.05.76-.1,1.14-.17.19-.36.39-.75.59-1.16l1,.36a28.35,28.35,0,0,1-2.25,3.74,16.14,16.14,0,0,0,2.11-.74v1a15.86,15.86,0,0,1-3.44,1l-.28-1a1.89,1.89,0,0,0,.48-.31,11.49,11.49,0,0,0,1.31-1.91l-1.61.25-.27-1a1,1,0,0,0,.46-.42,20.59,20.59,0,0,0,1.41-3.31Zm.93,8.22a15.72,15.72,0,0,1-3.47,1.25l-.12-1.06a16.24,16.24,0,0,0,3.59-1.2Zm2.18-3.23a9.21,9.21,0,0,1-.52,3.11,4.6,4.6,0,0,1-1.62,1.81l-.67-.84a3.52,3.52,0,0,0,1.34-1.44,7.18,7.18,0,0,0,.45-2.64Zm-2.08-1.28a1.17,1.17,0,0,0,.21-.08,6.16,6.16,0,0,0,1.29-1.88h-1.73v-1h2.71a10.36,10.36,0,0,0-.43-1l1.08-.18c.14.36.29.75.42,1.18h2.44v1h-3.39a14.87,14.87,0,0,1-1.13,1.86c.9-.09,1.8-.2,2.69-.34l-.66-.91.8-.5a21.05,21.05,0,0,1,1.7,2.49l-.82.57c-.13-.25-.29-.51-.45-.78-1.38.21-2.88.38-4.5.5Zm4.42,6c-.79,0-1.18-.36-1.18-1.06v-3.8h1v3.6c0,.18.07.29.2.31H490c.2,0,.32-.17.34-.43a10.75,10.75,0,0,0,.06-1.3l.91.32a4.66,4.66,0,0,1-.24,2,1.38,1.38,0,0,1-1,.39Z"/><path class="cls-2" d="M497.59,146.36a8.8,8.8,0,0,1-1.75-.19,2.6,2.6,0,0,1-1.16-.78.56.56,0,0,0-.41-.28c-.23,0-.64.5-1.2,1.5l-.78-.72a4.65,4.65,0,0,1,1.51-1.7V141h-1.5v-1h2.49v4.22l.15.16a3,3,0,0,0,.79.67,4,4,0,0,0,1.46.28l2.21,0,1.67,0c.56,0,1,0,1.3-.06l-.26,1h-2.57Zm-2.54-8.24-.77.74a12,12,0,0,0-1.86-1.79l.74-.7A16.33,16.33,0,0,1,495.05,138.12Zm7.17,1.22v1h-3.44a16.4,16.4,0,0,1-1.51,3,24.71,24.71,0,0,0,3.15-.56c-.24-.55-.5-1.08-.77-1.58l.86-.28a20.56,20.56,0,0,1,1.56,3.49l-.94.25-.34-1a35.43,35.43,0,0,1-4.73.74l-.26-.91c.44-.13,1.09-1.21,1.93-3.23h-2.24v-1Zm-.82-2.52v1h-5.21v-1Z"/><path class="cls-2" d="M506,136.62a18.26,18.26,0,0,1-1.5,3.25c.36-.05.72-.09,1.07-.16l.59-1.29.93.34a29.65,29.65,0,0,1-2.13,3.91,15.43,15.43,0,0,0,1.95-.71v1a14.77,14.77,0,0,1-3.19.94l-.28-1a1.63,1.63,0,0,0,.48-.3,10.22,10.22,0,0,0,1.18-1.93l-1.57.25-.26-1a1.07,1.07,0,0,0,.44-.39,23.66,23.66,0,0,0,1.27-3.35Zm1.16,8.58a22.58,22.58,0,0,1-3.75,1l-.13-1.06a21,21,0,0,0,3.88-1Zm1.71,1.35h-1v-6.24c-.27.43-.55.84-.86,1.24l-.32-1.07a12.87,12.87,0,0,0,1.77-4.17l1,.2a12.23,12.23,0,0,1-.5,1.59h1.73c-.18-.55-.38-1.07-.6-1.58l1-.27a15.33,15.33,0,0,1,.58,1.85h1.61v1h-1.66v1.27h1.47v1h-1.47v1.25h1.47v1h-1.47V145h1.88v1H508.9Zm0-7.45v1.27h1.74V139.1Zm0,3.49h1.74v-1.25H508.9Zm0,2.4h1.74v-1.43H508.9Z"/><path class="cls-2" d="M486.62,149.65V151h4.27v1h-4.27v1.46h3v.93a8.72,8.72,0,0,1-2.56,3.09,13.08,13.08,0,0,0,1.64.75,22.09,22.09,0,0,0,2.53.75l-.62.93a20.64,20.64,0,0,1-2.75-.93,17.06,17.06,0,0,1-1.71-.87,16.56,16.56,0,0,1-4.47,1.85l-.61-.95a15.38,15.38,0,0,0,4.17-1.53,7.76,7.76,0,0,1-1.46-1.46,4.7,4.7,0,0,1-.84-1.57h-.78v-1h3.4v-1.46h-4.24v-1h4.24v-1.37Zm1.76,4.85H484a4.14,4.14,0,0,0,.87,1.38,7.85,7.85,0,0,0,1.27,1.09A7.76,7.76,0,0,0,488.38,154.5Z"/><path class="cls-2" d="M492.42,159.82l-.23-1a3.58,3.58,0,0,0,.72.07c.23,0,.36-.15.36-.42v-2.37c-.34.15-.66.28-1,.41l-.26-1a10.57,10.57,0,0,0,1.26-.45v-2.4h-1.12v-1h1.12v-1.94h1v1.94h.84v1h-.84v1.9c.34-.19.68-.4,1-.62V155l-1,.6v3.15q0,1.11-1,1.11Zm9.4-4.45a24.65,24.65,0,0,1-2.52.3v.59h2.31v.8H499.3v.5h3v.86h-3v.45a.89.89,0,0,1-1,1H497.2l-.2-.9a6.75,6.75,0,0,0,1,.07c.2,0,.3-.15.3-.41v-.23h-3v-.86h3v-.5h-2.4v-.8h2.4v-.53c-.74,0-1.54,0-2.38,0l-.27-.78a39.47,39.47,0,0,0,5.74-.39Zm-2.52-5.73v1.25h.79a11.56,11.56,0,0,0,.55-1.18l.91.3c-.16.32-.31.61-.48.88h1.05v2.28h-1v-1.38h-4.72v1.42h-1v-2.32h1.1a5.6,5.6,0,0,0-.52-.81l.88-.32a6.26,6.26,0,0,1,.56,1.13h.83v-1.25Zm1.54,2.67v2.09h-4.11v-2.09Zm-.86.76h-2.39v.58H500Z"/><path class="cls-3" d="M98,121.21A196.18,196.18,0,0,0,60.67,236.66h58A138.43,138.43,0,0,1,145,155.28Z"/><path class="cls-2" d="M98.46,120.58l47,34.07a139.33,139.33,0,0,1,69.43-50.31L197.42,49A197.51,197.51,0,0,0,98.46,120.58Z"/><path class="cls-4" d="M316.87,48.58a198.13,198.13,0,0,0-118.71.16l17.46,55.37a139.74,139.74,0,0,1,83.8-.16Z"/><path class="cls-5" d="M317.61,48.82l-17.46,55.36a139.36,139.36,0,0,1,69.73,50.21l47-34.07A197.47,197.47,0,0,0,317.61,48.82Z"/><path class="cls-6" d="M454.86,236.66A196.21,196.21,0,0,0,417.33,121l-47,34.07a138.36,138.36,0,0,1,26.48,81.64Z"/><circle class="cls-5" cx="51.77" cy="154.65" r="5.18"/><circle class="cls-4" cx="172.61" cy="31.09" r="5.18"/><circle class="cls-2" cx="343.07" cy="31.09" r="5.18"/><circle class="cls-3" cx="462.61" cy="150.99" r="5.18"/><path class="cls-7" d="M171.6,237a86,86,0,1,1,171.94,0Zm170,0a84,84,0,1,0-168,0Z"/><path class="cls-8" d="M93.07,202.15l-.24,1-1.46-.33L89.71,210l1.44.34-.24,1-2.44-.57.94-4.05a7.15,7.15,0,0,0-1,.27l.07-1.21c.36-.08.76-.15,1.18-.21l.94-4.06Zm-.94,6.56c-.49-.44-1-.86-1.48-1.27l.56-1,1.2,1,1.26-5.42,1,.23-.49,2.1a10.46,10.46,0,0,1,2.23,2c.71-1,1.5-1.94,2.37-2.93l.75.92c-.91,1-1.76,2-2.52,2.94a7.63,7.63,0,0,1,.57,5.2l-1.1.37a7.5,7.5,0,0,0-.19-4.6c-.64.88-1.23,1.77-1.76,2.66-.51-.5-1-1-1.53-1.46L92.44,212l-1-.24Zm2.32.69c.39-.68.82-1.39,1.3-2.09a7.77,7.77,0,0,0-1.83-1.78l-.63,2.75C93.72,208.68,94.11,209.06,94.45,209.4Z"/><path class="cls-8" d="M91.14,194.75a15.58,15.58,0,0,0,4.4-3.92l.8.72a15.3,15.3,0,0,1-1.18,1.33l1,.22-.58,2.51,1.63.38.71-3.05,1,.23-.71,3.05,1.72.4.93-4,1,.23-2.11,9.11-1-.23.94-4-1.72-.4-.71,3.07-1-.24.71-3.06-1.63-.38-.58,2.51-1-.22c.19.57.35,1.15.5,1.76l-1,.29a16.09,16.09,0,0,0-2.26-5.5Zm4-1.85A15.22,15.22,0,0,1,92,195.34a14.32,14.32,0,0,1,1.76,3.57Z"/><path class="cls-8" d="M95.51,188.67,92.75,188l.24-1,2.76.64.25-1.11,1,.24-.25,1.1,3.28.76c-.06-.48-.15-1-.24-1.44l1,.24a22.85,22.85,0,0,1,.44,3.69l-1.11,0a13.26,13.26,0,0,0,0-1.41l-3.62-.84-.28,1.21-1-.23Zm-.69-5.27-.93.11.08-1.12c.32,0,.69,0,1.09,0l.56-2.42,1,.22L95.25,186l-1-.22Zm2.74,1.75a9.46,9.46,0,0,0-1.53.35l-.13-1a9.54,9.54,0,0,1,1.88-.29l.32-1.38a19.41,19.41,0,0,0-1.63-1.14l.54-.85a10.34,10.34,0,0,1,1.32,1l.33-1.4,1,.23L98.18,187l-1-.23Zm7-2.77-.23,1-.54-.12-.71,3.06.54.13-.22,1-4.23-1,1.16-5Zm-1.74.64-1.75-.4-.71,3.06,1.75.41Z"/><path class="cls-8" d="M97.38,175.56l.55.87a11,11,0,0,0-2,1.43l-.54-.88A13.15,13.15,0,0,1,97.38,175.56Zm-1-2.3,4.81,1.12c2.3.55,3.86,1.43,4.7,2.62l-.86.61a6.85,6.85,0,0,0-4.07-2.25l-4.81-1.11Zm1-4.45,9.83,2.28-.23,1-9.83-2.28Zm0,2.41,8.56,2-.23,1-8.56-2Zm1.37,5.42,4.4,1c-.18-.3-.39-.62-.61-1l1.13,0a16.13,16.13,0,0,1,1.24,2.31l-1,.18a.74.74,0,0,0-.51-.42l-3.88-.9-.35,1.52-1-.23Z"/><path class="cls-8" d="M152.06,109.6l-.87.62-.86-1.22-6,4.24.85,1.22-.87.61-1.45-2,3.4-2.39a6.57,6.57,0,0,0-.91-.47l.86-.85,1,.63,3.4-2.4ZM147,113.87c-.08-.65-.16-1.29-.26-1.93l1.08-.37c.06.56.13,1.08.2,1.58l4.55-3.21.59.84L151.4,112a10.92,10.92,0,0,1,.33,3c1.18-.25,2.42-.45,3.72-.61l0,1.19a38.26,38.26,0,0,0-3.84.51,7.61,7.61,0,0,1-3,4.26l-1.06-.45a7.57,7.57,0,0,0,2.92-3.57c-1.06.24-2.1.51-3.09.82,0-.72-.1-1.41-.16-2.11l-2.06,1.46-.59-.84Zm1.27,2.07c.75-.26,1.53-.5,2.36-.7a7.48,7.48,0,0,0-.18-2.55l-2.3,1.62C148.2,114.91,148.24,115.45,148.27,115.94Z"/><path class="cls-8" d="M155.56,102.8a15.77,15.77,0,0,0,5.89,0l.12,1.08a16,16,0,0,1-1.77.2l.58.81-2.11,1.49,1,1.37,2.56-1.81.59.84-2.56,1.8,1,1.44,3.39-2.39.6.85-7.64,5.39-.6-.85,3.38-2.38-1-1.44L156.38,111l-.59-.83,2.57-1.82-1-1.36-2.11,1.48-.57-.82q-.36.82-.81,1.65l-.95-.46a16.3,16.3,0,0,0,2-5.61Zm4.21,1.28a15,15,0,0,1-4-.28,14.4,14.4,0,0,1-1.07,3.84Z"/><path class="cls-8" d="M163.56,99.17l-.19,1A10.07,10.07,0,0,0,161,100l.19-1A11.74,11.74,0,0,1,163.56,99.17Zm1.41,1.32a14.78,14.78,0,0,1-.64,3.47l-1-.23a13.28,13.28,0,0,0,.66-3.27Zm.33-.27-1-.31a5.59,5.59,0,0,0-.32-3.09l.93-.5a7.4,7.4,0,0,1,.27.79l3.44-2.43.49.69a9.1,9.1,0,0,1,.21,2.15l-1-.06a5.89,5.89,0,0,0,0-1.31l-2.88,2A7,7,0,0,1,165.3,100.22Zm8.07,2.63-.84.59-.28-.39-4.43,3.13.28.39-.85.59-2.4-3.4L171,99.44Zm-6.13-5.57c.12.25.22.47.31.71.94.54,2.25.46,3.94-.24l.11,1a5.35,5.35,0,0,1-3.82.26,3.89,3.89,0,0,1,0,.84,5.92,5.92,0,0,1-1.6,2.69l-.85-.53a5.29,5.29,0,0,0,1.4-2.21,3,3,0,0,0-.33-2.08Zm4.44,5-1-1.39L166.27,104l1,1.39Z"/><path class="cls-8" d="M173,92.65l-.17,1a10.93,10.93,0,0,0-2.46-.3l.19-1A13.56,13.56,0,0,1,173,92.65Zm.29,1.73L176,98.21c.08-.4.17-.84.25-1.32l.88.74a15.56,15.56,0,0,1-.74,2.68l-.88-.54a.76.76,0,0,0-.1-.64L173,95.79l-1.28.9-.58-.83Zm1.4-.1-1-.31a6.73,6.73,0,0,0-.39-3.7l1-.49c.13.34.23.68.33,1l3.5-2.47q3.64,5.16,4.35,6.47a1.4,1.4,0,0,1-.57,2c-.18.13-.49.32-.93.6l-.76-.62c.41-.25.76-.46,1-.66s.39-.62.13-1.1-1.49-2.29-3.54-5.24l-3,2.12a8.74,8.74,0,0,1,0,1.35l2.7-1.9,3,4.28-2.92,2.06-2.83-4Zm3.26-.61-.74-1-1.26.9.73,1Zm.5.71-1.26.89.75,1.07,1.26-.89Z"/><path class="cls-8" d="M238.93,73.83c.31-.58.61-1.15.9-1.73l1.09.33-.74,1.4h5.56v1h-2.15a11.22,11.22,0,0,1-1.44,2.62q1.65.7,3.39,1.65l-.73.93a37.54,37.54,0,0,0-3.43-1.79A7.65,7.65,0,0,1,236.44,80l-.61-1a7.73,7.73,0,0,0,4.45-1.23c-1-.42-2-.8-3-1.12.38-.61.73-1.21,1.08-1.81h-2.52v-1Zm6.6-.57h-1.07V71.77h-7.37v1.48H236V70.74h4.16a9.51,9.51,0,0,0-.48-.9l1.19-.2c.16.33.31.7.47,1.1h4.17Zm-6.76,3c.76.22,1.54.48,2.33.79a7.62,7.62,0,0,0,1.33-2.18h-2.82C239.31,75.37,239,75.84,238.77,76.25Z"/><path class="cls-8" d="M252.3,69.72a15.68,15.68,0,0,0,4.82,3.4l-.53.95a15.38,15.38,0,0,1-1.56-.86v1h-2.57v1.67h3.13v1h-3.13v1.76h4.14v1h-9.35v-1h4.14V76.91h-3.15v-1h3.15V74.21h-2.58v-1c-.51.31-1.05.6-1.6.88l-.52-.93a16,16,0,0,0,4.85-3.44ZM255,73.2a14.92,14.92,0,0,1-3.09-2.52,14.49,14.49,0,0,1-3.09,2.52Z"/><path class="cls-8" d="M267,78.75h1.12v.94H258v-.94h1.17V75.67H267Zm-7.3-8.5v4.6h-1v-4.6Zm1.68,8.5V76.63h-1.22v2.12Zm.63-9v5.55H261V69.71Zm1,4.48-.66-.83a7.83,7.83,0,0,0,1.53-3.71l1.1.2c-.08.4-.17.77-.26,1.13h3.17v1h-3.53A6.84,6.84,0,0,1,263,74.19Zm.72,4.56V76.63h-1.27v2.12Zm3.15-4.25-.88.6a15.79,15.79,0,0,0-1.3-2l.86-.54A15.62,15.62,0,0,1,266.84,74.5ZM266,78.75V76.63h-1.28v2.12Z"/><path class="cls-8" d="M269.48,79.92l-.23-1a6.26,6.26,0,0,0,.84.06.35.35,0,0,0,.39-.39v-2.4l-1.22.43L269,75.51a11.46,11.46,0,0,0,1.49-.43V72.79h-1.27v-1h1.27v-2h1.07v2h.84v1h-.84v1.87c.29-.15.6-.29.89-.45v1.08l-.89.43v3.11a1,1,0,0,1-1.09,1.09ZM273,76.53v-1h6v1h-2.43v2.15h2.84v1H272.5v-1h2.91V76.53Zm3.54-5.65h2.59v2.25h-1v-1.3h-4.32v1.3h-1V70.88h2.64a7,7,0,0,0-.52-1.1l1.08-.17C276.16,70,276.33,70.41,276.49,70.88Zm-.89,1.86a6,6,0,0,1-1.93,2.51l-.77-.66a5.12,5.12,0,0,0,1.78-2.22Zm3.26,2-.94.48a13.4,13.4,0,0,0-1.73-2.43l.88-.39A13.68,13.68,0,0,1,278.86,74.69Z"/><path class="cls-8" d="M340.76,93.23c.59-.3,1.16-.6,1.73-.91l.71.88-1.41.74,4.58,3.15-.58.85L344,96.72a11.07,11.07,0,0,1-2.67,1.34c.64,1,1.25,2.11,1.85,3.28l-1.12.36c-.57-1.2-1.17-2.35-1.81-3.43a7.56,7.56,0,0,1-5-1.38l0-1.15a7.59,7.59,0,0,0,4.36,1.51c-.59-.92-1.2-1.8-1.84-2.62.66-.29,1.3-.58,1.92-.88l-2.07-1.43.58-.84Zm5.76,3.28-.88-.61.85-1.23-6.07-4.18-.84,1.22-.88-.61L340.12,89l3.43,2.35a7.08,7.08,0,0,0,.11-1l1.1.51c-.06.36-.14.76-.24,1.18L348,94.43Zm-7.26-1.38c.5.62,1,1.27,1.47,2a7.94,7.94,0,0,0,2.34-1l-2.33-1.6C340.2,94.71,339.71,94.94,339.26,95.13Z"/><path class="cls-8" d="M354.11,97.43a15.65,15.65,0,0,0,2,5.53l-1,.48a13.92,13.92,0,0,1-.8-1.59l-.57.83-2.12-1.46-.95,1.37,2.58,1.78-.58.85-2.58-1.78-1,1.45,3.41,2.35-.58.86-7.71-5.31.59-.85,3.41,2.34,1-1.45-2.59-1.78.58-.85,2.59,1.79.95-1.38-2.12-1.46.57-.83c-.6,0-1.21-.1-1.82-.18l.1-1.06a16.21,16.21,0,0,0,5.95-.08Zm.26,4.4A14.71,14.71,0,0,1,353.25,98a14.57,14.57,0,0,1-4,.33Z"/><path class="cls-8" d="M359,104.82l-2.66,3.87,1.32-.22-.39,1.09a16.35,16.35,0,0,1-2.77.23l.21-1a.74.74,0,0,0,.55-.31l2.33-3.38-1.28-.89.57-.83Zm7.74,1.84-.56.82L364,106l-2.25,3.26,2.38,1.64-.57.83-2.38-1.64-2.2,3.2-.84-.59,2.2-3.19L358,107.93l.57-.83,2.34,1.61,2.25-3.26L361.1,104l.57-.82ZM360.49,104l-1,.2a11,11,0,0,0-.58-2.42l1-.18A12.91,12.91,0,0,1,360.49,104Zm.27,3.82-.87-.33a19.23,19.23,0,0,0,.88-2.73l.91.28A22.46,22.46,0,0,1,360.76,107.77Zm4.8.13a13.67,13.67,0,0,1-2.31,1.82l-.56-.76a15.55,15.55,0,0,0,2.24-1.78Z"/><path class="cls-8" d="M370.45,109.16a12.51,12.51,0,0,1-2.33,1.44l-4.21,6.12-.89-.61,3.32-4.81c-.45.15-.91.26-1.39.37l.35-1.13a12.64,12.64,0,0,0,4.59-2.33Zm1.27,3,1.21-1.75.88.61-1.2,1.74,2.54,1.76-.58.83L372,113.61l-1.2,1.73,2,1.39L370,120.87l-.86-.6.25-.36-3.11-2.15-.25.37-.88-.6,2.86-4.14,1.95,1.35,1.2-1.74-2.43-1.67.57-.84Zm-1.76,6.9,1.45-2.11-3.11-2.14-1.45,2.11Z"/><path class="cls-8" d="M414.69,176.4c.64.14,1.27.26,1.91.38v1.14L415,177.6l1.55,5.34-1,.28-.6-2.06a11.13,11.13,0,0,1-2.92-.65c-.14,1.19-.36,2.43-.64,3.71l-1.1-.43c.32-1.29.58-2.56.76-3.8a7.6,7.6,0,0,1-3-4.26l.77-.86a7.64,7.64,0,0,0,2.42,3.93c.12-1.08.21-2.15.23-3.19.69.19,1.37.36,2.05.53l-.71-2.42,1-.29Zm-2.37.52c0,.79,0,1.61-.11,2.46a7.37,7.37,0,0,0,2.47.66l-.79-2.7Zm4.76,5.65-.3-1,1.43-.42-2-7.08-1.43.42-.3-1,2.41-.7,1.16,4a7.15,7.15,0,0,0,.74-.71l.52,1.09c-.28.24-.58.5-.93.76l1.17,4Z"/><path class="cls-8" d="M422.38,188.09a15.45,15.45,0,0,0-1.92,5.57l-1.06-.24a14.62,14.62,0,0,1,.39-1.73l-1,.28-.72-2.48-1.6.47.87,3-1,.28-.88-3-1.69.49,1.16,4-1,.29-2.62-9,1-.29,1.15,4,1.7-.49-.88-3,1-.29.88,3,1.61-.46-.72-2.48,1-.28q-.66-.6-1.29-1.29l.74-.75a16.27,16.27,0,0,0,4.66,3.69Zm-2.59,3.57a15,15,0,0,1,1.56-3.67,14,14,0,0,1-3.28-2.26Z"/><path class="cls-8" d="M419.92,197.62a9.32,9.32,0,0,0,3-.23l-.83-2.85,1-.29,1.09,3.76-.75.22a10.06,10.06,0,0,1-4.16.29c-.44.57-.88,1.1-1.32,1.62l-1-.53c.39-.41.78-.85,1.16-1.32a11,11,0,0,1-3.25-1.53l.72-.84a8.79,8.79,0,0,0,3.2,1.52c.6-.81,1.21-1.7,1.82-2.67l.84.5C421,196.09,420.45,196.87,419.92,197.62Zm4.25,4.13,2-.59.3,1-2,.59.32,1.1-1,.29-.32-1.11-5.63,1.64a1.16,1.16,0,0,1-1.6-.91l-.47-1.63.93-.5c.11.52.23,1,.37,1.5a.53.53,0,0,0,.73.44l5.37-1.56-.87-3,1-.29Zm-4.56.59-.79-.64a20.09,20.09,0,0,0,1.83-2.23l.79.6A17.52,17.52,0,0,1,419.61,202.34Z"/><path class="cls-8" d="M417.41,207.43l.9-.51a6.49,6.49,0,0,0,.19.84.39.39,0,0,0,.55.31l2.24-.65c-.27-.38-.54-.76-.8-1.15l.95-.55a15.65,15.65,0,0,0,.88,1.4l2.29-.66-.39-1.32,1-.28.38,1.31,1.88-.54.28,1-1.87.55.36,1.22-1,.28-.35-1.22L423,208c.3.35.61.71.94,1.05l-1,.3c-.31-.35-.62-.7-.92-1.06l-2.89.84a1,1,0,0,1-1.4-.76Zm3.19,3.4a6.2,6.2,0,0,0,2.16-.3l2.35-.69,1,3.59L420.92,215c-.21.06-.29.17-.25.33l.06.21a1.19,1.19,0,0,0,.09.15.18.18,0,0,0,.14.06,7.81,7.81,0,0,0,1.38-.34v1a9.9,9.9,0,0,1-1.4.32,1,1,0,0,1-.7-.1,1.46,1.46,0,0,1-.36-.69l-.1-.35a1,1,0,0,1,.76-1.48l4.4-1.28-.49-1.68-1.41.41a7.57,7.57,0,0,1-2.48.34,5.45,5.45,0,0,1-2.29-.77l.46-.94A4.38,4.38,0,0,0,420.6,210.83Zm6.92-.11a11.07,11.07,0,0,0,1.05-.95l.47,1c-.35.31-.76.64-1.22,1l.65,2.23-1,.29-1.61-5.52,1-.29Z"/><path class="cls-3" d="M220.84,197.55a36,36,0,0,1-3.39,6.35c.87-.09,1.76-.22,2.65-.35.48-.85,1-1.74,1.46-2.7l1.85.7a55.06,55.06,0,0,1-5,8,37.69,37.69,0,0,0,4.45-1.37V210a34.71,34.71,0,0,1-7.06,1.85l-.57-1.89a3.81,3.81,0,0,0,.94-.61,21.94,21.94,0,0,0,2.84-3.94c-1.15.18-2.34.33-3.56.48L214.9,204a2.07,2.07,0,0,0,.92-.81,37,37,0,0,0,3-6.45Zm1.72,16.7a41.88,41.88,0,0,1-7.31,1.93l-.26-2a44.23,44.23,0,0,0,7.57-1.89Zm1.06-14.18v-2h10.63v2H230v13.85h4.83v2H223v-2h4.92V200.07Z"/><path class="cls-3" d="M244.34,197.48v1.64C243.69,201,243,203,242.08,205a11.07,11.07,0,0,1,2.19,5.22,3,3,0,0,1-.65,2.17,5.07,5.07,0,0,1-3.28.87l-.7-2.09a7.87,7.87,0,0,0,1.11.11A2.44,2.44,0,0,0,242,211a.87.87,0,0,0,.32-.78c0-1.48-.76-3.11-2.23-4.92a48.81,48.81,0,0,0,2.3-5.89h-3v17.39h-2V197.48Zm6.37-.58q0,3.22-.26,5.93a24.52,24.52,0,0,0,6.35,12l-1.5,1.78a26.78,26.78,0,0,1-5.52-9.46.61.61,0,0,0-.07.28,15.69,15.69,0,0,1-5.8,9.24l-1.35-1.63a15,15,0,0,0,5.13-7.91,45.25,45.25,0,0,0,1-10.26Z"/><path class="cls-3" d="M260.06,216.86l-1.57-1.42a17.66,17.66,0,0,0,1.33-7.24V197.53h6.76v17c0,1.48-.68,2.22-2,2.22h-1.74l-.5-1.83A14.59,14.59,0,0,0,264,215c.46,0,.7-.39.7-1.15v-4.37h-3.09A20.2,20.2,0,0,1,260.06,216.86Zm4.65-17.46h-3v3.22h3Zm-3,8.24h3v-3.18h-3Zm8.33,9.19h-1.93v-19.3h9.15a25.69,25.69,0,0,1-.39,5.63c-.26.91-1.09,1.37-2.48,1.37h-1.83l-.54-1.74,1.44,0a3.64,3.64,0,0,0,1-.11.91.91,0,0,0,.52-.56,12.11,12.11,0,0,0,.26-2.74H270v6.13h7.35v1.74a15.85,15.85,0,0,1-2,5.46,17.91,17.91,0,0,0,3.11,2.3l-1,1.74a17.33,17.33,0,0,1-3.24-2.46,11.51,11.51,0,0,1-3.17,2.48L270,215.18Zm0-1.71a10.26,10.26,0,0,0,2.89-2.31,14,14,0,0,1-2.61-5.45H270Zm4-3.92a14,14,0,0,0,1.5-3.84H272A11.86,11.86,0,0,0,274,211.2Z"/><path class="cls-3" d="M288.53,197a11.93,11.93,0,0,1-.71,1.48h9.3v1.68a18.94,18.94,0,0,1-4.74,3.89,29.89,29.89,0,0,0,7.79,1.71l-.94,1.94a28.89,28.89,0,0,1-9.11-2.5A35,35,0,0,1,281,207.7l-.95-1.93a34.59,34.59,0,0,0,7.78-1.83,21.68,21.68,0,0,1-2.89-2,18.13,18.13,0,0,1-2.44,1.76L281.27,202a11.49,11.49,0,0,0,5.16-5.35Zm2.05,9.53a14,14,0,0,1-.18,2.21h7.5q-.06,5.72-1,6.83a4,4,0,0,1-3.22,1.13c-.74,0-1.65,0-2.7-.11l-.52-1.87,2.74.13c1.11,0,1.8-.26,2.09-.69a9.61,9.61,0,0,0,.52-3.57H290a11.13,11.13,0,0,1-.68,1.48q-1.62,2.94-7.65,4.85l-1.37-1.68c3.54-1,5.87-2.3,7-3.8a9.12,9.12,0,0,0,.48-.85h-6.11V208.7h6.74a11.93,11.93,0,0,0,.21-2.21Zm3.52-6.11h-7.63a.52.52,0,0,0-.13.15A20.84,20.84,0,0,0,290.1,203,19.17,19.17,0,0,0,294.1,200.38Z"/></svg>