<?xml version="1.0" standalone="no"?><!DOCTYPE svg PUBLIC "-//W3C//DTD SVG 1.1//EN" "http://www.w3.org/Graphics/SVG/1.1/DTD/svg11.dtd"><svg t="1577156400355" class="icon" viewBox="0 0 1024 1024" version="1.1" xmlns="http://www.w3.org/2000/svg" p-id="2018" width="14" height="14" xmlns:xlink="http://www.w3.org/1999/xlink"><defs><style type="text/css"></style></defs><path d="M841.67574596 736.38663388a99.24793443 99.24793443 0 1 0-99.24793321 99.59314409A99.24793443 99.24793443 0 0 0 841.67574596 736.38663388zM539.616817 945.92922905h378.52299021a33.31278499 33.31278499 0 0 0 33.31278499-33.312785v-379.73122646a31.75933906 31.75933906 0 0 0-10.35630698-23.99210944L524.77277708 92.39699517a32.79496928 32.79496928 0 0 0-46.77598262 0h-0.86302538l-379.73122647 379.73122647a34.52102004 34.52102004 0 0 0 0 47.63900799l415.97829849 415.46048276a34.52102004 34.52102004 0 0 0 23.99210943 10.52891061z m345.21020522-66.62556999H552.04438441L168.3432407 495.94772502l333.12784748-333.12784869L884.99962706 546.52102004v332.78263902zM802.14917849 736.38663388a59.5487609 59.5487609 0 1 1-59.72136574-59.72136573A60.06657539 60.06657539 0 0 1 802.14917849 736.38663388z" fill="#ffffff" p-id="2019"></path></svg>