<svg id="图层_1" data-name="图层 1" xmlns="http://www.w3.org/2000/svg" viewBox="0 0 300 300"><defs><style>.cls-1{fill:#384248;}.cls-2{fill:#7ecef4;}.cls-3{fill:#125488;}.cls-4{fill:#fff;}.cls-5{fill:#b4b4b5;}</style></defs><title>ico3</title><path class="cls-1" d="M9.37,162.16a15,15,0,0,1,4,.8h0c.51-.27.76-.5.75-.67s-.53-.17-1.44-.2l.5-1a9,9,0,0,1,1.42.34c.46.17.71.4.74.67s-.24.75-.81,1.17l-.22.15a5,5,0,0,1,1.24,1l-.74.64A4.66,4.66,0,0,0,13.29,164a12.73,12.73,0,0,1-1.39.53,20.67,20.67,0,0,1-3.14.72L9.2,169l1.9-.22a15.33,15.33,0,0,1,5.06.16l-.67,1a11.94,11.94,0,0,0-4.28-.16l-2.84.33-.55-4.74-1,.13-.12-1,1-.13-.08-.74a7.46,7.46,0,0,0-.69.44l-.25-.91q.38-.21.84-.42l-.08-.65,1-.11.26,2.26c.93-.14,1.73-.3,2.4-.47.32-.08.63-.16.89-.25a15.06,15.06,0,0,0-2.86-.42Zm1.28,6.39-.86.1-.36-3.15.86-.1.14,1.2c.3,0,.57.07.85.12l-.17-1.48.8-.09a5.28,5.28,0,0,1,1.79.4l.35-.64.82.44c-.12.19-.24.41-.36.64A5.3,5.3,0,0,1,16,167.74l-.81.58a4.76,4.76,0,0,0-1.13-1.42c-.17.39-.34.82-.51,1.28-.45-.13-.88-.23-1.3-.33l.07.55-.85.1-.1-.83-.85-.14ZM12.06,166l.1.87.89.2c.08-.23.17-.46.26-.68A4.25,4.25,0,0,0,12.06,166Z"/><path class="cls-1" d="M11.82,151.42l.38.74c-.92.19-1.73.38-2.44.59,2-.08,3.32-.09,3.91-.05a1.28,1.28,0,0,1,1.24,1.39c0,.19,0,.49,0,.92l-1,.3c0-.38,0-.72,0-1s-.26-.61-.72-.65-2.06,0-4.8.11l0,.8.55,0c2.75-.09,4.77.48,6.09,1.73l-.67.84c-1.16-1.16-2.94-1.69-5.37-1.6l-.56,0,.07,1.54-1,0-.07-1.55L6,155.65l0-1,1.47-.07-.08-1.77,2.25-.09-.26-.64C10.15,151.86,11,151.63,11.82,151.42Zm3.41,8.18-.71.87a7.32,7.32,0,0,0-3.16-.47l-4.86.21-.12-2.7,7.64-.34c.7,0,1.07.25,1.1.82l0,.58-.94.33c0-.22,0-.4,0-.57s-.18-.2-.49-.19l-1.67.07,0,.84A8.58,8.58,0,0,1,15.23,159.6Zm-7.84-1.18,0,.81,1.4-.06,0-.81ZM9.8,156a12.06,12.06,0,0,1,2.62.29l-.23.88a8.66,8.66,0,0,0-2.46-.37Zm1.33,3.06,0-.8-1.36.06,0,.8Z"/><path class="cls-1" d="M10.15,144.48l.52,0,.05-2.16.83,0-.05,2.16H12l.06-2.44.85,0-.06,2.44.71,0,0,1-.71,0-.05,2.09-.85,0,.06-2.09h-.53l0,1.79-.83,0,0-1.79-.52,0,0,1.59-.84,0,0-1.59H8.75L8.7,147.5l-.82,0,0-2.06h-.5l0,1.58-.84,0,0-1.59H6l0-1h.63l0-2,1.34,0v-.56l.82,0v.56l1.37,0Zm3.75-2.61,1,.19-.08,2.83a7.28,7.28,0,0,1-.86,3.84l-.16.19A4.9,4.9,0,0,1,14.81,150l-.88.65a4.14,4.14,0,0,0-1-1.06,7.3,7.3,0,0,1-2,.83l-.3-.87a7.08,7.08,0,0,0,1.4-.49,6.42,6.42,0,0,0-1.93-.48l0,1.73-.76,0a19,19,0,0,0-2.06-1.45l0,1.39-1,0,.07-2.53.83,0a22.63,22.63,0,0,1,2,1.29l0-1.36.6,0a7.72,7.72,0,0,1,3.15.79,1.68,1.68,0,0,0,.27-.34,6,6,0,0,0,.62-2.79C13.9,144.2,13.91,143.05,13.9,141.87ZM8,144.43l0-1.08H7.48l0,1.08Zm1.35,0,0-1.08H8.8l0,1.08Z"/><path class="cls-1" d="M15.29,139l-.09,1-4.2-.4a12.38,12.38,0,0,1,1.89,1.08l-1.17.33a8.23,8.23,0,0,0-2.63-1.59H9l-.09,1L8,140.33l.1-1-1.75-.17.09-.95,1.75.17.09-.91.92.09-.09.91.51.05c.49-.35,1-.7,1.62-1.06l.76.61c-.5.21-.92.39-1.27.56Zm-8-2.84-.7-.07.09-.94.7.07L7.5,134l-.7-.07.09-.95.7.07.13-1.39.89.08-.13,1.4.57.05-.09.95-.57-.06-.12,1.27.57.06-.09.94-.57-.06-.12,1.27-.9-.09Zm7-.52a4.59,4.59,0,0,1,1.12,2.5l-.86.27a4,4,0,0,0-.9-2.1l-.1-.1-.2,2-.91-.09.24-2.49c-.16-.07-.33-.12-.5-.18l-.19,2-3.11-.3.46-4.8,3.11.29-.19,1.95c.17.05.35.09.51.15l.25-2.65.91.09-.2,2.13a5.9,5.9,0,0,0,1.47-2.13L16,133a5.78,5.78,0,0,1-2.11,2.33A5.54,5.54,0,0,1,14.29,135.68Zm-3.84-2.27-.42,0-.29,3,.42,0Zm.73.07-.29,3,.43,0,.29-3Z"/><path class="cls-1" d="M62.23,41.68,61.29,41a11.06,11.06,0,0,0-.81-4.3l1-.22a10.42,10.42,0,0,1,.59,2.17l4,5.24-.79.61-3.05-4C62.27,40.92,62.25,41.3,62.23,41.68ZM64,35.57c-.29-.17-.57-.32-.87-.46l.62-.8a7.08,7.08,0,0,1,1,.65l2.08-1.58.57.75L62.39,38l-.58-.76ZM67.15,35l.55.72L64,38.62l-.55-.72ZM68,36.13l.55.73-3.74,2.86L64.23,39ZM71.2,40l-.78.6-.3-.39L67.6,42.13l.29.39-.79.6-2.17-2.84L69,37.15Zm-1.66-.55-.72-.94-2.53,1.92.72.95Z"/><path class="cls-1" d="M70.47,30.4a2.92,2.92,0,0,0-.19-.76l1-.46a3.14,3.14,0,0,1,.12.61l2.54-1.66,2.73,4.15L71.4,35.73l-2.73-4.15Zm3.4-.56-.3-.45L70,31.76l.3.45ZM74.61,31l-.3-.45L70.7,32.88l.3.46Zm-2.46,5.15a8.5,8.5,0,0,1,.51,2.48h-1a6,6,0,0,0-.39-2.12Zm2.9-4.48L71.44,34l.31.47,3.61-2.37Zm-.27,5.76a.88.88,0,0,1-1.39-.25l-1-1.46.86-.57.84,1.28a.26.26,0,0,0,.4.1l1.66-1.09a.42.42,0,0,0,.2-.32,2,2,0,0,0-.38-.93l1-.26c.38.74.53,1.24.45,1.48a1.44,1.44,0,0,1-.61.67Zm1-2.85-.35.86a10.31,10.31,0,0,0-1.6-.53l.37-.8A13.69,13.69,0,0,1,75.74,34.54ZM79,33.47l-.37.92a17.26,17.26,0,0,0-2.2-1l.39-.85A17.2,17.2,0,0,1,79,33.47Z"/><path class="cls-1" d="M83.36,22.93a39.41,39.41,0,0,1-6.23,4.15l-.74-.67a47,47,0,0,0,6.12-4Zm-3.52,4.89-.61.83a10.84,10.84,0,0,0-1.72-1.09l.7-.76A11.65,11.65,0,0,1,79.84,27.82Zm1.49.33-.39-.69.88-.49.39.68,3-1.68.48.87-2.26,1.27a8.52,8.52,0,0,0,3.83.46l-.18,1.16a9.27,9.27,0,0,1-4.37-1.19l1.72,3.08-.88.49-1.7-3a8.32,8.32,0,0,1-1.37,4.39l-1-.55a7.53,7.53,0,0,0,1.58-3.5l-2.25,1.27-.49-.86Zm.58-1.74-.73.7A8.89,8.89,0,0,0,79.73,26l.66-.75A10.35,10.35,0,0,1,81.91,26.41Zm1.84-2.69a8.8,8.8,0,0,1-.23,2.61l-1-.1a8.8,8.8,0,0,0,.2-2.45Z"/><path class="cls-1" d="M86.51,24.07l-.86-.44a7.06,7.06,0,0,0,.52-3.11l.94-.22c0,.24,0,.47,0,.71l1.61-.76a7.07,7.07,0,0,0-.68-.48l.87-.6a8.23,8.23,0,0,1,.71.65l2.74-1.29.36.76-2.69,1.26.18.39,2.33-1.1.33.69-2.33,1.1.17.37,2.33-1.09.33.68-2.33,1.1.19.4,2.86-1.34.35.75-6.62,3.12-1.08-2.29C86.69,23.58,86.61,23.82,86.51,24.07ZM89.15,21l-2,.95.18.38,2-.94ZM87.69,27.3l-.39-.84,3.39-1.6-.14-.31.91-.43.15.31L95,22.86l.39.83L93,24.78a7.68,7.68,0,0,0,2.89-.13v1a7.12,7.12,0,0,1-3.84-.42l-.08,0,1,2.06-.91.43-1-2.06-.08,0A7.26,7.26,0,0,1,89,29l-.86-.56a8.5,8.5,0,0,0,2-2.24Zm2-5.25-2,.95.17.38,2-.95Zm.5,1.07-2,.94.19.41,2-.95Z"/><path class="cls-1" d="M209.42,28.44l-.93-.43.22-.48-4.26-2-.22.48-.93-.43,3.32-7.21,1.9.88a4.71,4.71,0,0,0,.86-.8l.88.56a4.09,4.09,0,0,1-.76.69l3.24,1.49Zm-.31-1.78.53-1.16-4.25-2-.54,1.16Zm.92-2,.5-1.08-4.25-2-.5,1.08Zm.89-1.93.48-1-4.26-2-.47,1Z"/><path class="cls-1" d="M217.63,26.21l-.48.87-1.9-1a26.5,26.5,0,0,1-2.11,2.06,14.53,14.53,0,0,0,1.85.41c0-.52,0-1,.06-1.46l.94.05c0,.91-.06,1.89-.17,2.94a9.14,9.14,0,0,0,3-3.44l0-.07-1-.57.47-.85,1.05.57.9-1.63.88.48-.9,1.64,1.84,1c-1.55,2.81-2.55,4.52-3,5.15a1.31,1.31,0,0,1-1.85.21c-.14-.07-.36-.22-.68-.43l.22-.89c.29.18.53.34.75.46a.68.68,0,0,0,.94-.21c.27-.36,1-1.67,2.28-3.91l-1-.54,0,.07c-1.37,2.43-2.94,3.9-4.73,4.39l-.35-1a4.55,4.55,0,0,0,1.1-.45l-.94,0c0-.22.06-.43.08-.63a22.68,22.68,0,0,1-3.28-.85l.25-.95a.63.63,0,0,0,.22,0,12,12,0,0,0,2.29-2.07l-1-.58.48-.87Zm1-2.46-.47.84-3.2-1.76.46-.84Z"/><path class="cls-1" d="M227.17,28.55a10.18,10.18,0,0,1-2.29,1.2l-3.48,5.4-.85-.55,2.84-4.4q-.79.16-1.62.27l.29-1.07a10.3,10.3,0,0,0,4.55-1.74Zm-3,8.18a1.08,1.08,0,0,1-.37-1.69l1.43-2.21-1.13-.13.14-1.05c.56.08,1.1.14,1.63.18l2-3.14.85.55-1.68,2.61a13.34,13.34,0,0,0,3.19-.43l.16,1.06a16.68,16.68,0,0,1-4,.4l-1.66,2.59c-.15.22-.1.41.16.57l1.17.76a.54.54,0,0,0,.51.08,4.35,4.35,0,0,0,1-1.18l.61.77c-.66.9-1.14,1.41-1.42,1.5a1.25,1.25,0,0,1-1-.26Z"/><path class="cls-1" d="M231.28,37.62a31.85,31.85,0,0,1-3.14,1.94l-.5-.9a27.44,27.44,0,0,0,3.13-1.86Zm4.25,4.12c-1.55.64-3.45.4-5.7-.75l.11-1c2.13,1.13,3.87,1.43,5.25.88Zm-3.26-5.51-1,.14a9.76,9.76,0,0,0-.46-2.14l.95-.12A12.35,12.35,0,0,1,232.27,36.23Zm2.94,4.27a6.89,6.89,0,0,1-4.35-.37l.2-.88a6.45,6.45,0,0,0,3.92.45Zm-.61-3.67a4,4,0,0,0,.47-.34l-1.13-.77.22-.8a6.26,6.26,0,0,0,2.53-.29l.6.83a6.69,6.69,0,0,1-1.93.29c.59.4,1.17.79,1.76,1.16,0-.22,0-.45,0-.67l.9.07a14.67,14.67,0,0,1,.07,2.31l-1,0c0-.25,0-.49,0-.75l-1.24-.79c-.18.14-.35.25-.52.37l2.54,1.9-.53.72-1.17-.88a4.17,4.17,0,0,0,.76,2l-.86.44a5.21,5.21,0,0,1-.66-3l-1-.71-.38.14a6.21,6.21,0,0,1-2.67,0v-1a4.89,4.89,0,0,0,2.15.11l-1.23-.93.53-.71Zm.38,2.44a5,5,0,0,1-3.24-.13l.18-.81a4.48,4.48,0,0,0,2.84.18Zm-1.08-4.75-1,.14a9.79,9.79,0,0,0-.49-2.14l1-.11A13.61,13.61,0,0,1,233.9,34.52Z"/><path class="cls-1" d="M238.65,47.72a7.05,7.05,0,0,1-1.06-1.16,2.11,2.11,0,0,1-.33-1.17.53.53,0,0,0-.11-.43c-.14-.13-.68,0-1.62.33l-.11-1a4.31,4.31,0,0,1,2-.27l1.74-2-1-.84.61-.7,1.69,1.45L238,44.7a.71.71,0,0,1,0,.15,2.79,2.79,0,0,0,.12.91,3.23,3.23,0,0,0,.81,1c.42.38.91.82,1.49,1.32l1.12.94.89.71-.81.59L240,48.87Zm5.16-1.95-.3.33a5.48,5.48,0,0,1-.57.37l.92.79-.32.37a3.45,3.45,0,0,1-1.45,1,1.22,1.22,0,0,1-.87-.3c-.24-.21-.55-.46-.91-.78l.37-.88c.28.31.49.55.65.69a1.12,1.12,0,0,0,.58.3c.14,0,.38-.12.73-.41l-1.08-.93a9.79,9.79,0,0,0,.89-.55l-.81-.7a3.29,3.29,0,0,1-3.3.7l.16-1a2.35,2.35,0,0,0,2.43-.31l-.57-.49.59-.68Zm.11-1.94-.83,1-.73-.64.83-1,0,0a5.27,5.27,0,0,1-2.81,0l.16-1a5.17,5.17,0,0,0,2,.39l-1-.85.57-.66,1.71,1.47.27-.31c-.45-.34-.92-.72-1.39-1.13l.31-.78a22.05,22.05,0,0,0,3.63,2.63l-.16.88a14.77,14.77,0,0,1-1.61-1l-.32.36,1.71,1.48-.57.66-1-.86a6.68,6.68,0,0,0,.74,1.88l-.87.34a6.2,6.2,0,0,1-.57-2.82Zm-2.17-3-1,.06a10.18,10.18,0,0,0-.19-2.26l1,0A13.41,13.41,0,0,1,241.75,40.84Z"/><path class="cls-1" d="M286,123.09c-1.26-.1-2.44-.24-3.56-.43l.24-1a33.87,33.87,0,0,0,3.52.48Zm1.67,1.29a11.42,11.42,0,0,1-5.12-.17l.55-.88a9.51,9.51,0,0,0,4.41.14l3.72-.66,1,5.91-2.34.41-.88-5Zm1.74,5-.85.14-.38-2.15-.51.09.37,2.11-3.54.62a.67.67,0,0,1-.86-.62l-.13-.76.71-.33.09.66a.21.21,0,0,0,.28.18l1.59-.28-.48-.35a5.69,5.69,0,0,0,.56-.9l.51.37a5.15,5.15,0,0,1-.53.87l.87-.15-.22-1.28-3.43.6-.15-.85,1.14-.2-.47-.33a4.79,4.79,0,0,0,.64-.87l.51.37a6.9,6.9,0,0,1-.57.82l1.16-.21-.43-.3a5.32,5.32,0,0,0,.62-.9l.51.38a7.21,7.21,0,0,1-.52.79l.84-.15-.21-1.18-3.5.62-.15-.82,4.3-.75.35,2,.5-.08-.34-2,.85-.15Zm-4.42-.17-.52-.37a4.69,4.69,0,0,0,.61-.89l.51.38A5,5,0,0,1,285,129.23Zm2.73-6.34-.79-.56a9,9,0,0,0,1.05-1.64l.73.54A11.2,11.2,0,0,1,287.73,122.89Zm2.37-.1-.76-.54a9.41,9.41,0,0,0,1.06-1.63l.72.54A11.17,11.17,0,0,1,290.1,122.79Zm.45,1.08-.65.12.71,4.07.65-.11Z"/><path class="cls-1" d="M287.6,133.24a32.63,32.63,0,0,1-3.58-1.11l.32-1a27.07,27.07,0,0,0,3.53,1.18Zm-3.07,4.22,1-.36.07,1.07c0,.33.17.48.38.46l6.37-.66L291.9,134l-7.67.79-.1-1,8.61-.9.62,5.93-7.54.78c-.69.07-1.09-.28-1.17-1Zm5.35.13-3.5.36-.28-2.69,3.5-.36Zm-1-.8-.09-.91-1.77.18.09.91Zm.33-3.89-.76-.61a8.73,8.73,0,0,0,1.25-1.74l.74.61A11.48,11.48,0,0,1,289.25,132.9Zm2.27,4.75-.91.1-.32-3.12.91-.09Zm.06-4.78-.75-.62a10.18,10.18,0,0,0,1.21-1.79l.73.61A10.6,10.6,0,0,1,291.58,132.87Z"/><path class="cls-1" d="M288.12,147.9l-.15-4.68-.46,0,.17,5.14-2.64.08,0-1h.33l-.14-4.14h-.32l0-1,5.19-.17.18,5.71Zm-1.89-.48.62,0-.13-4.14-.63,0Zm2.66-.52.49,0-.13-3.7h-.48Zm.7,2.3,0-1,1.06,0-.22-6.41-1.05,0,0-1,1.91-.06.12,3.72c.17-.08.32-.17.47-.25l.17.85.12-.2a5.61,5.61,0,0,0,1.9.9l-.18,1-.44-.13.09,2.68-.88,0,0-1.53c-.19.14-.38.26-.55.37l-.37-.89a6.86,6.86,0,0,0,.88-.56v-.44a7.79,7.79,0,0,1-.9-.51l.27-.46c-.15.06-.31.14-.49.2l.12,3.66Zm1.77-7.78.54-.9a5.08,5.08,0,0,0,2,1.11l-.18,1-.44-.15.08,2.39-.89,0,0-1.38a6.26,6.26,0,0,1-.63.42l-.39-.91a6.53,6.53,0,0,0,1-.59v-.36A5.64,5.64,0,0,1,291.36,141.42Z"/><path class="cls-1" d="M288,153.69l.95,0-.19,5.21-.94,0,.07-2.08-1.77-.06L286,159.2l-1,0,.22-6,1,0-.09,2.5,1.77.06Zm-2.81-3.12,1-.19a4.69,4.69,0,0,0-.09.73c0,.21.11.32.32.33l2,.07c-.11-.35-.21-.69-.31-1l1-.22a12.08,12.08,0,0,0,.31,1.29l1.92.06,0-1.08,1,0,0,1.08,1.74.06,0,1-1.74-.06,0,.7-1,0,0-.7-1.5,0c.1.25.22.5.34.74l-1,0q-.16-.39-.33-.75l-2.66-.09a.88.88,0,0,1-.95-1Zm4.29,8.35L289,158a12.61,12.61,0,0,0,2.17-1.39l.34.85A11.29,11.29,0,0,1,289.46,158.92Zm1.76-2.75a5.4,5.4,0,0,1-2.12-1.74l.66-.71a4.34,4.34,0,0,0,1.85,1.57Zm1.66.83-.08,2.24-2-.07,0-.95,1.11,0,.13-3.62-1.11,0,0-.95,2,.07-.08,2.26a5.93,5.93,0,0,0,.92-.4l.14,1C293.65,156.75,293.28,156.88,292.88,157Z"/><path class="cls-1" d="M63.85,260.64c-1,.79-1.93,1.5-2.87,2.13l-.5-.86a33.87,33.87,0,0,0,2.88-2.08Zm2.1-.22a11.31,11.31,0,0,1-3.83,3.4l-.2-1a9.35,9.35,0,0,0,3.29-2.93l2.25-3,4.81,3.57-1.41,1.91-4.07-3Zm4.72,2.43-.51.7-1.76-1.3-.31.41,1.72,1.28-2.14,2.89a.67.67,0,0,1-1,.14l-.62-.46.29-.73.53.42a.21.21,0,0,0,.32-.07l1-1.29-.59.08a5.82,5.82,0,0,0-.22-1.05l.63-.08a5.85,5.85,0,0,1,.22,1l.52-.71-1-.78-2.08,2.8-.68-.51.68-.93-.57.09a4.62,4.62,0,0,0-.13-1.08l.63-.08a6.2,6.2,0,0,1,.14,1l.7-.95-.52.08a4.86,4.86,0,0,0-.17-1.08l.63-.08a4.83,4.83,0,0,1,.17.93l.51-.69-1-.71-2.12,2.86-.67-.49,2.6-3.5,1.62,1.2.31-.41-1.61-1.19.51-.7ZM65,259.3l-.95.15a8.74,8.74,0,0,0-.37-1.92l.9-.11A10.57,10.57,0,0,1,65,259.3Zm1.65-1.7-.92.14a10,10,0,0,0-.35-1.92l.89-.1A10.44,10.44,0,0,1,66.61,257.6Zm.74,8.18-.63.09a4.87,4.87,0,0,0-.17-1.07l.63-.08A5.41,5.41,0,0,1,67.35,265.78Zm.33-7.7-.39.53,3.32,2.46.4-.53Z"/><path class="cls-1" d="M72.27,266.61a32.23,32.23,0,0,1-3.1,2.12l-.59-.88a26.13,26.13,0,0,0,3.13-2Zm1.4,5,.31-1,.89.62c.28.17.48.16.6,0l3.44-5.39-3.36-2.14-4.14,6.5-.84-.53,4.66-7.31,5,3.21L76.18,272a1,1,0,0,1-1.54.27ZM73,265.11l-1,.21a8.59,8.59,0,0,0-.59-2.06l1-.19A12,12,0,0,1,73,265.11Zm1.42-1.85-1,.21a9.13,9.13,0,0,0-.65-2.06l.94-.19A11.23,11.23,0,0,1,74.46,263.26Zm2.64,4.27-1.9,3L72.93,269l1.89-3Zm-1.23.26-.77-.49-.95,1.5.77.49Zm2.3-1.5-.49.77L75,265.37l.49-.77Z"/><path class="cls-1" d="M80.16,270.65l.47-.86,5.2,2.82c-.64,1.1-1.18,2-1.63,2.59A3.52,3.52,0,0,1,83,276.4a1.39,1.39,0,0,1-1.18-.09l-1.64-.89.24-1c.5.29,1,.57,1.41.81a.92.92,0,0,0,1.11-.07A9.69,9.69,0,0,0,84.45,273l-1.84-1a7.35,7.35,0,0,1-1.94,1.65,6.86,6.86,0,0,1-2.89.61l-.18-1.06a6.27,6.27,0,0,0,2.49-.41,5.79,5.79,0,0,0,1.61-1.28Zm4-2.42A10.74,10.74,0,0,1,82,269.31a11.72,11.72,0,0,1-2.5.54l-.06-1.06a6.49,6.49,0,0,0,2.2-.41,11.52,11.52,0,0,0,2-1Zm3.16,4.89-1,.38a7.76,7.76,0,0,1-1-4.79h1A6.41,6.41,0,0,0,87.33,273.12Z"/><path class="cls-1" d="M87.94,279.47l-.91-.41L88.88,275a11.08,11.08,0,0,1-1.94,1.59l.07-1.2a8.31,8.31,0,0,0,2.54-2l-1.13-.52.41-.89,1.18.54.75-1.63.91.41-.75,1.64,1.1.5-.41.89-1.09-.5-.17.36c.22.59.43,1.2.61,1.86l-.84.51c-.08-.55-.15-1-.22-1.37Zm9-4.75a14.63,14.63,0,0,1-3.56-.92l-.59,1.31,3.49,1.6-.41.89L94.64,277l-2.08,4.55-.93-.43,2.08-4.54L92.36,276a8.62,8.62,0,0,1-3.44,3.88l-.33-1a7.35,7.35,0,0,0,2.91-3.36l1.34-2.92a13.18,13.18,0,0,0,4,1.07Z"/><path class="cls-1" d="M206.73,273.81l-.18-.4L203.19,275l-.35-.78,3.35-1.55-.2-.43.92-.42.2.43,3.36-1.55.35.78L207.47,273l.18.39,2.61-1.2.86,1.85-2.62,1.21.19.4,2.73-1.25.53,1.14.86-.39.34.73-.86.4.53,1.15-2.73,1.26.19.41a.86.86,0,0,1-.53,1.27l-1.08.5-.6-.78c.35-.12.69-.24,1-.38s.27-.23.19-.41l-.09-.19-2.79,1.29-.34-.72,2.8-1.29-.2-.43-3.59,1.65-.34-.73,3.59-1.65-.2-.45-2.79,1.29-.33-.71,2.79-1.28-.18-.41L205,276.87l-.85-1.86Zm.32.68-1.7.78.23.5,1.7-.78Zm2.61-1.21-1.7.78.24.51,1.69-.78Zm-.44,3.51,1.86-.85-.21-.44-1.85.85Zm.34.73.2.44,1.85-.86-.2-.43Z"/><path class="cls-1" d="M215.33,267.53a7.47,7.47,0,0,1,.3.87l3.19-1.75.47.86-2.54,1.4c.85.59,2.21.69,4.05.29l-.06,1c-2.22.36-3.85.07-4.9-.82a5,5,0,0,1-.05,1.6,15.56,15.56,0,0,1,1.65.3l-.27,1a15.28,15.28,0,0,0-1.68-.42,8.65,8.65,0,0,1-1.81,2.3l-.81-.63a6,6,0,0,0,1.87-2.68,3.68,3.68,0,0,0,.1-.89l-2.58,1.42-.48-.87,2.93-1.6a6.58,6.58,0,0,0-.32-1Zm.1,6.66a10,10,0,0,1,.42,2.77l-1-.06a8,8,0,0,0-.37-2.43Zm2.73,1.82a1,1,0,0,1-1.52-.49l-1-1.76.9-.49.86,1.57a.34.34,0,0,0,.52.16l1.74-1a.4.4,0,0,0,.23-.31,2.28,2.28,0,0,0-.32-1l1-.18a2.65,2.65,0,0,1,.39,1.61,1.32,1.32,0,0,1-.65.63Zm1.14-2.82-.62.81a10.7,10.7,0,0,0-1.56-1.1l.64-.69A9.74,9.74,0,0,1,219.3,273.19Zm3.29-.73-.61.81a15.31,15.31,0,0,0-2.24-1.52l.71-.76A14.28,14.28,0,0,1,222.59,272.46Z"/><path class="cls-1" d="M227.39,262.13l-1.77,1.14a8.25,8.25,0,0,0,.91,1.06,5,5,0,0,0,.42.4,9,9,0,0,0-.31-1.72l.87-.07a8.35,8.35,0,0,1,.34,2.44c.32.15.54.19.67.1s.06-.48-.18-1.18l.94,0c.28,1,.23,1.7-.17,2a1.52,1.52,0,0,1-1.26.1l-.08,0a5.08,5.08,0,0,1-.37,1.1l-.86-.38a4,4,0,0,0,.37-1.15,5.78,5.78,0,0,1-.83-.64,10.22,10.22,0,0,1-1.27-1.44l-3.15,2,.59.91a5.22,5.22,0,0,1,.86,3.26l-1-.16a3.94,3.94,0,0,0-.7-2.56l-1.08-1.68,3.95-2.53-.44-.67.81-.52.44.67.59-.38a6.47,6.47,0,0,0-.51-.43l.67-.61c.18.16.36.36.57.57l.48-.31Zm-2.46,2.23.44.68-2.73,1.75-.44-.69Zm.53,1.15,1.15,1.79-2.44,1.56L223,267.07Zm-1.18,4.08a8.36,8.36,0,0,1,.45,2.59h-1a6.8,6.8,0,0,0-.32-2.26Zm.8-2.93-.85.55.32.51.86-.55Zm1.81,4.31c-.58.37-1,.24-1.45-.39l-.95-1.47.87-.56.83,1.3c.13.21.28.27.44.16l1.65-1.05a.31.31,0,0,0,.16-.28,2.23,2.23,0,0,0-.36-.84l1-.26a2.52,2.52,0,0,1,.45,1.44,1.38,1.38,0,0,1-.57.63Zm.92-2.72-.35.85a11.14,11.14,0,0,0-1.54-.59l.39-.8A12.9,12.9,0,0,1,227.81,268.25Zm3.31-1.09-.37.91a13.58,13.58,0,0,0-2-.81l.42-.87A12.4,12.4,0,0,1,231.12,267.16Z"/><path class="cls-1" d="M230,262.44l-1.06.08a8.8,8.8,0,0,0-.67-3.12l.94-.41c.12.33.24.65.34,1l2.07-1.54.58.78-1,.77c.33.46.62.9.88,1.32l1.18-.88.58.77-1.3,1,.26.54c.81.12,1.69.29,2.6.51l.06,1.13a23,23,0,0,0-2.33-.72,5.84,5.84,0,0,1-.15,3.27l-1-.26a5.21,5.21,0,0,0,0-3.36l-.22-.48-1.5,1.12-.57-.78,1.62-1.2c-.25-.42-.55-.87-.87-1.33l-.52.38A8.7,8.7,0,0,1,230,262.44Zm9.26-.52-.8.59-.32-.42-1.29,1,.32.43-.79.59-4.57-6.14,2.88-2.14Zm-1.68-.59-3.12-4.19-1.3,1,3.12,4.19Z"/><path class="cls-2" d="M38.18,86.56l47,26a74.81,74.81,0,0,1,63.17-37.34V21.48A128.51,128.51,0,0,0,38.18,86.56Z"/><path class="cls-3" d="M151.62,21.47V75.18a74.79,74.79,0,0,1,62.8,36.71l46.82-26.33A128.51,128.51,0,0,0,151.62,21.47Z"/><path class="cls-2" d="M278.54,150a127.92,127.92,0,0,0-15.71-61.6L216,114.72a74.93,74.93,0,0,1-.14,70.8L262.59,212A127.94,127.94,0,0,0,278.54,150Z"/><path class="cls-2" d="M150,224.82h0a74.78,74.78,0,0,1-63.42-35.09L40.83,217.85A128.44,128.44,0,0,0,150,278.53l.84,0Z"/><path class="cls-3" d="M75.17,150a74.45,74.45,0,0,1,8.48-34.63l-47-26a128.63,128.63,0,0,0,2.53,125.68l45.77-28.14A74.4,74.4,0,0,1,75.17,150Z"/><path class="cls-3" d="M261,214.85l-46.72-26.51a74.83,74.83,0,0,1-61,36.41l.82,53.71A128.52,128.52,0,0,0,261,214.85Z"/><path class="cls-1" d="M129.12,146.32v-6.45h1.34v2.46H133v-2.46h1.34v6.45H133v-2.88h-2.51v2.88Z"/><path class="cls-1" d="M137.75,139.87h1.37v4a2.12,2.12,0,0,0,.16,1,1.3,1.3,0,0,0,2.12,0,2.27,2.27,0,0,0,.16-1v-4h1.37v4a3.36,3.36,0,0,1-.32,1.6,3,3,0,0,1-4.54,0,3.36,3.36,0,0,1-.32-1.6Z"/><path class="cls-1" d="M148.22,139.87h1.52l2.28,6.45h-1.46l-.43-1.32h-2.37l-.44,1.32h-1.41Zm-.09,4h1.65l-.82-2.53Z"/><path class="cls-1" d="M155,139.87h1.37v4a2.12,2.12,0,0,0,.16,1,1.3,1.3,0,0,0,2.12,0,2.12,2.12,0,0,0,.16-1v-4h1.37v4a3.36,3.36,0,0,1-.32,1.6,3,3,0,0,1-4.54,0,3.36,3.36,0,0,1-.32-1.6Z"/><path class="cls-1" d="M163.59,139.87H165l2.56,4.5v-4.5h1.26v6.45h-1.35l-2.62-4.57v4.57h-1.26Z"/><path class="cls-1" d="M120.48,155.08a1.19,1.19,0,0,0,.25.66,1.4,1.4,0,0,0,1.14.4,2.45,2.45,0,0,0,.79-.1.76.76,0,0,0,.58-.75.56.56,0,0,0-.28-.5,3.32,3.32,0,0,0-.9-.3l-.7-.15a4.29,4.29,0,0,1-1.41-.5,1.57,1.57,0,0,1-.65-1.39,1.83,1.83,0,0,1,.64-1.44,2.72,2.72,0,0,1,1.87-.57,2.88,2.88,0,0,1,1.76.54,1.89,1.89,0,0,1,.76,1.57H123a.92.92,0,0,0-.52-.83,1.76,1.76,0,0,0-.8-.16,1.56,1.56,0,0,0-.86.21.65.65,0,0,0-.31.58.56.56,0,0,0,.31.52,4.64,4.64,0,0,0,.86.27l1.13.26a3,3,0,0,1,1.11.47,1.56,1.56,0,0,1,.58,1.32,1.87,1.87,0,0,1-.68,1.47,2.94,2.94,0,0,1-1.93.58,3.14,3.14,0,0,1-2-.58,1.92,1.92,0,0,1-.73-1.58Z"/><path class="cls-1" d="M132.4,151.77H129v1.37h3.13v1.12H129v1.65h3.57v1.16h-4.89v-6.45h4.73Z"/><path class="cls-1" d="M136.38,151.3a3,3,0,0,1,4.33.27,2.29,2.29,0,0,1,.45,1.2h-1.35a2,2,0,0,0-.33-.7,1.34,1.34,0,0,0-1.07-.42,1.29,1.29,0,0,0-1.13.6,2.84,2.84,0,0,0-.42,1.67,2.56,2.56,0,0,0,.44,1.63,1.36,1.36,0,0,0,1.11.54,1.26,1.26,0,0,0,1.06-.47,1.9,1.9,0,0,0,.33-.74h1.34a2.89,2.89,0,0,1-.88,1.71,2.6,2.6,0,0,1-1.83.66,2.71,2.71,0,0,1-2.16-.89,4.21,4.21,0,0,1,.11-5.06Z"/><path class="cls-1" d="M144.38,150.62h1.37v4a2.2,2.2,0,0,0,.16,1,1.31,1.31,0,0,0,2.12,0,2.2,2.2,0,0,0,.16-1v-4h1.37v4a3.36,3.36,0,0,1-.32,1.6,3,3,0,0,1-4.54,0,3.36,3.36,0,0,1-.32-1.6Z"/><path class="cls-1" d="M157.14,150.79a1.64,1.64,0,0,1,.6.45,2,2,0,0,1,.32.54,1.83,1.83,0,0,1,.12.68,1.89,1.89,0,0,1-.23.91,1.29,1.29,0,0,1-.76.62,1.26,1.26,0,0,1,.63.51,2.19,2.19,0,0,1,.18,1v.43a3.41,3.41,0,0,0,0,.6.52.52,0,0,0,.25.37v.16H156.8c0-.14-.07-.25-.09-.34a3.43,3.43,0,0,1-.05-.56v-.6a1.22,1.22,0,0,0-.22-.82,1,1,0,0,0-.76-.21h-1.32v2.53H153v-6.45h3.09A2.9,2.9,0,0,1,157.14,150.79Zm-2.79,1v1.74h1.45a1.55,1.55,0,0,0,.65-.11.72.72,0,0,0,.38-.72.8.8,0,0,0-.37-.79,1.28,1.28,0,0,0-.62-.12Z"/><path class="cls-1" d="M162.85,157.07h-1.34v-6.45h1.34Z"/><path class="cls-1" d="M171,150.62v1.15H169v5.3h-1.36v-5.3h-1.93v-1.15Z"/><path class="cls-1" d="M177.57,150.62h1.52l-2.15,4v2.41h-1.35v-2.41l-2.23-4H175l1.33,2.81Z"/><path class="cls-4" d="M99.81,234.1a4.59,4.59,0,0,1-1.15.12h0a3.51,3.51,0,0,1-1.61-.43,2.7,2.7,0,0,1-1.15-1.29,3.83,3.83,0,0,1-.28-1.59,4.79,4.79,0,0,1,1.72-3.35,11,11,0,0,1,4.2-2.35,9.4,9.4,0,0,1,3.56-.28,10.45,10.45,0,0,1,3.52,1,5.88,5.88,0,0,1,2.13,1.68,7.16,7.16,0,0,1,1.17,2.38,4.65,4.65,0,0,1,.27,2.88v0a1.87,1.87,0,0,1-1.33,1.12,3.12,3.12,0,0,1-1.22,2.19,4.53,4.53,0,0,1-1.19.73,3.75,3.75,0,0,1-1.4.27,2.54,2.54,0,0,1-.78-.11l.69,1.19a.39.39,0,0,1-.67.39l-1.62-2.83a1.06,1.06,0,0,1-.16-.23,3.5,3.5,0,0,1-.89.39l-.11,0,1.29,2.24a.41.41,0,0,1-.13.53.4.4,0,0,1-.53-.14l-1.46-2.51h-.3a4.19,4.19,0,0,1-.65-.11,2.8,2.8,0,0,1-1.4-.85,2.08,2.08,0,0,1-.5-1.07Zm7.38-3.1h0a.39.39,0,1,1,.77,0,2.9,2.9,0,0,0,.21,1.06,2.72,2.72,0,0,0,.58.86c.26,0,.53,0,.79,0l.46,0h.12c.5-.08.76-.23.86-.45v0a4,4,0,0,0-.3-2h0a5.94,5.94,0,0,0-1-2,4.68,4.68,0,0,0-1.68-1.32,9.13,9.13,0,0,0-3.08-.83,8.63,8.63,0,0,0-1.24-.05,2.91,2.91,0,0,0-.85.58,2.75,2.75,0,0,0-.81,1.95.37.37,0,0,1-.37.38.39.39,0,0,1-.4-.38,3.55,3.55,0,0,1,.88-2.33l-.27.08a10.52,10.52,0,0,0-3,1.47,3.32,3.32,0,0,0-.25.83,3,3,0,0,0,.08,1.07.38.38,0,0,1-.74.2,3.5,3.5,0,0,1-.11-1.2,3.43,3.43,0,0,0-1,2.13,2.5,2.5,0,0,0,.19,1.05,1.49,1.49,0,0,0,.62.69,2,2,0,0,0,1,.26,3.44,3.44,0,0,0,1.42-.27,3.93,3.93,0,0,1-.44-.77,3.57,3.57,0,0,1-.26-1.35.38.38,0,0,1,.38-.38.39.39,0,0,1,.39.38,2.82,2.82,0,0,0,.2,1.06,3,3,0,0,0,.45.72,3.79,3.79,0,0,1,3.2-1.22c2.31,0,1.91-1.28,1.91-1.28a.38.38,0,0,1,.26-.48.37.37,0,0,1,.47.26s.73,2.34-2.66,2.27c-2.38,0-2.85,1.32-2.91,1.47h0v0h0a1.85,1.85,0,0,0,0,.23,1,1,0,0,0,.24.7,1.44,1.44,0,0,0,.74.43,1.78,1.78,0,0,0,.39.07,2.13,2.13,0,0,0,.82-.1,2,2,0,0,0,.69-.35,6.81,6.81,0,0,1,2.77-1.2c.36-.08.74-.14,1.12-.19a2.76,2.76,0,0,1-.36-.65,3.57,3.57,0,0,1-.27-1.35Zm-2-2.57h0a2.77,2.77,0,0,1,2.09.28,2.73,2.73,0,0,1,1.29,1.67.41.41,0,0,0,.47.28.4.4,0,0,0,.27-.48,3.52,3.52,0,0,0-4.32-2.49.38.38,0,0,0,.2.74Zm4.33,5.74h0a13.57,13.57,0,0,0-2.58.28,6.62,6.62,0,0,0-1.39.44,1.71,1.71,0,0,0,1.47,1,2.32,2.32,0,0,0,.91-.19,3.24,3.24,0,0,0,.85-.52,2.33,2.33,0,0,0,.74-1Z"/><path class="cls-4" d="M110.31,243.18a23.25,23.25,0,0,0,4.15-6,10.23,10.23,0,0,0,.43-7.45,11.86,11.86,0,0,0-4.08-6,11.7,11.7,0,0,0-6.85-2.38,14.66,14.66,0,0,0-7,1.28,8.56,8.56,0,0,0-4.19,4.46,10.37,10.37,0,0,0-.59,1.86,4.69,4.69,0,0,0-.13,1.79c0,.11.07.26.1.4a3,3,0,0,1,.1.54,5.86,5.86,0,0,1,.06.63,4.11,4.11,0,0,1,0,.68,1.84,1.84,0,0,1-.29.65l0,0c-.22.36-.5.73-.77,1.09l0,0L91,235a5,5,0,0,0-1.13,2v.14a1.2,1.2,0,0,0,.45.86v0a2.34,2.34,0,0,0,.8.35h0l.24,0-.08.1a2.57,2.57,0,0,0-.26,1.13,2.43,2.43,0,0,0,.36,1.13l.06.12a1.43,1.43,0,0,0-.2.94,2.33,2.33,0,0,0,.39,1h0a2.69,2.69,0,0,1,.22.28l0,0,.29.35a.38.38,0,0,1,0,.41,3.72,3.72,0,0,0-.25.81h0v0a1.64,1.64,0,0,0,.17,1,2.52,2.52,0,0,0,.89.9,6.57,6.57,0,0,0,3.58.88c1.21,0,2.07,0,2.32,2.88a20.59,20.59,0,0,1,.09,2.47.77.77,0,0,0,1.53,0,20.68,20.68,0,0,0-.09-2.6c-.39-4.23-1.82-4.25-3.83-4.29a5.19,5.19,0,0,1-2.79-.66.89.89,0,0,1-.33-.3.08.08,0,0,1,0-.1,1.62,1.62,0,0,1,.14-.44,1.64,1.64,0,0,0-.13-1.91,5.72,5.72,0,0,0-.37-.46v0a1.4,1.4,0,0,1-.17-.2.59.59,0,0,1-.11-.28,1.07,1.07,0,0,0,.21-.41,1,1,0,0,0,0-.56,3.73,3.73,0,0,0-.14-.44,2.06,2.06,0,0,1-.2-.33,1.08,1.08,0,0,1-.13-.37.4.4,0,0,1,.09-.3v-.06c.66-1.17.79-1.58-.05-2l0,0a2.15,2.15,0,0,0-.69-.22h0l-.36-.08.74-.94.16-.22,0,0c.3-.42.61-.85.86-1.22l0-.05a3.38,3.38,0,0,0,.51-1.28c0-.3,0-.6,0-.87s0-.56-.06-.81a4.16,4.16,0,0,0-.14-.67,3.69,3.69,0,0,0-.12-.5,5.1,5.1,0,0,1,.14-1,11.65,11.65,0,0,1,.52-1.59A7.14,7.14,0,0,1,97.6,224a13.14,13.14,0,0,1,6.31-1.13,10,10,0,0,1,9.52,7.29,9,9,0,0,1-.37,6.39,22.28,22.28,0,0,1-3.89,5.61,3.08,3.08,0,0,0-.77,1.3,5,5,0,0,0,0,1.79,35.39,35.39,0,0,0,.85,4c.34,1.33.76,2.65,1.14,3.92a.77.77,0,0,0,1,.5.78.78,0,0,0,.52-1c-.41-1.27-.81-2.57-1.15-3.87a29.09,29.09,0,0,1-.79-3.84,3.65,3.65,0,0,1,0-1.21A2.15,2.15,0,0,1,110.31,243.18Z"/><path class="cls-4" d="M61.17,161.89a3.71,3.71,0,0,1,2.65,1.1l0,0a3.76,3.76,0,0,1,1.05,2.6,3.7,3.7,0,0,1-1.1,2.66,3.74,3.74,0,0,1-2.65,1.09,3.7,3.7,0,0,1-2.66-1.11v0a3.82,3.82,0,0,1-1.09-2.66,3.74,3.74,0,0,1,3.75-3.75ZM39.49,140.22h0a3.78,3.78,0,0,1,2.66,1.09l0,.06A3.7,3.7,0,0,1,43.24,144a3.75,3.75,0,1,1-3.75-3.74Zm1.5,2.24h0a2.1,2.1,0,0,0-1.5-.63,2.13,2.13,0,1,0,0,4.25A2.15,2.15,0,0,0,41.63,144,2.14,2.14,0,0,0,41,142.5l0,0Zm-1.5,19.43h0a3.75,3.75,0,0,1,2.66,1.1l0,0a3.73,3.73,0,0,1,1.06,2.6,3.72,3.72,0,0,1-3.75,3.75,3.68,3.68,0,0,1-2.65-1.11v0a3.79,3.79,0,0,1-1.11-2.66,3.77,3.77,0,0,1,3.76-3.75Zm1.5,2.23h0a2.21,2.21,0,0,0-1.5-.61,2.24,2.24,0,0,0-1.51.61,2.18,2.18,0,0,0-.62,1.52,2.1,2.1,0,0,0,.62,1.5h0a2.17,2.17,0,0,0,1.51.63,2.14,2.14,0,0,0,1.5-.63,2.07,2.07,0,0,0,.64-1.5,2.16,2.16,0,0,0-.59-1.46l0-.06Zm20.18-23.9h0a3.74,3.74,0,0,1,2.65,1.09l0,.06A3.74,3.74,0,0,1,64.92,144a3.65,3.65,0,0,1-1.1,2.66,3.75,3.75,0,1,1-2.65-6.4Zm1.5,2.24h0a2.1,2.1,0,0,0-1.5-.63A2.15,2.15,0,0,0,59,144a2.1,2.1,0,0,0,.63,1.5,2,2,0,0,0,1.5.62,2.09,2.09,0,0,0,1.5-.62,2.11,2.11,0,0,0,0-3l0,0Zm0,21.66h0a2.21,2.21,0,0,0-1.5-.61,2.18,2.18,0,0,0-1.5.61,2.15,2.15,0,0,0-.63,1.52,2.07,2.07,0,0,0,.63,1.5h0a2.07,2.07,0,0,0,1.5.63,2.14,2.14,0,0,0,1.5-.63,2.11,2.11,0,0,0,.63-1.5,2.15,2.15,0,0,0-.58-1.46l0-.06Z"/><rect class="cls-4" x="42.18" y="143.37" width="16.86" height="1.41"/><rect class="cls-4" x="42.18" y="164.93" width="16.86" height="1.41"/><rect class="cls-4" x="39.02" y="146.88" width="1.41" height="16.11"/><rect class="cls-4" x="60.47" y="146.88" width="1.41" height="16.11"/><path class="cls-4" d="M92,55.11a9,9,0,0,0-1.47.79A8.5,8.5,0,0,0,89.3,57a7.94,7.94,0,0,0-1,1.28,7.35,7.35,0,0,0-.79,1.46.71.71,0,0,0,.39.95.74.74,0,0,0,1-.38,6.55,6.55,0,0,1,.66-1.22A6.82,6.82,0,0,1,90.33,58a7.59,7.59,0,0,1,1.07-.88,7.41,7.41,0,0,1,1.2-.66.72.72,0,0,0,.4-1A.73.73,0,0,0,92,55.11Z"/><path class="cls-4" d="M105.62,71.56A13.29,13.29,0,0,0,107.71,58l0-.06a13.22,13.22,0,0,0-2.83-4.26l-.07-.07a13.28,13.28,0,0,0-4.31-2.89,13.55,13.55,0,0,0-5.1-1A13.25,13.25,0,0,0,83.09,58a13,13,0,0,0-1,5.08,13.26,13.26,0,0,0,1,5l0,.07A13.31,13.31,0,0,0,86,72.45a13.54,13.54,0,0,0,4.32,2.89h0a13.19,13.19,0,0,0,10.17,0,12.72,12.72,0,0,0,3.41-2.06l5.29,5.29a1.23,1.23,0,0,0,1.72-1.75Zm-2.54-.83h0a10.87,10.87,0,0,1-15.35,0h0a11,11,0,0,1-2.38-3.53l0-.06a11,11,0,0,1,0-8.25,11.27,11.27,0,0,1,2.38-3.53,10.86,10.86,0,0,1,15.37,0l.07,0a11.2,11.2,0,0,1,2.29,3.48l0,.06a11.24,11.24,0,0,1,.8,4.09,11,11,0,0,1-.83,4.16A10.83,10.83,0,0,1,103.08,70.73Z"/><path class="cls-4" d="M103.27,62.31a.74.74,0,0,0-.73.73,7.12,7.12,0,0,1-.54,2.74l0,0a7.15,7.15,0,0,1-6.6,4.37.74.74,0,0,0,0,1.47A8.58,8.58,0,0,0,98.69,71a8.16,8.16,0,0,0,2.79-1.87,8.57,8.57,0,0,0,1.86-2.76v0A8.51,8.51,0,0,0,104,63,.74.74,0,0,0,103.27,62.31Z"/><path class="cls-4" d="M203.58,64.32H202c0-.14-.1-.29-.16-.43v0c-.07-.15-.13-.3-.21-.45l1.11-1.1h0a.68.68,0,0,0,0-.94L201,59.57h0a.65.65,0,0,0-.93,0l-1.11,1.12a3.88,3.88,0,0,0-.46-.22L198,60.3V58.73a.66.66,0,0,0-.66-.67h-2.51a.67.67,0,0,0-.67.67V60.3l-.47.17a4.66,4.66,0,0,0-.45.22l-1.08-1.08,0,0a.68.68,0,0,0-1,0l-1.76,1.77h0a.66.66,0,0,0,0,.94l1.11,1.12c-.06.13-.13.27-.19.41v0a3,3,0,0,0-.17.47h-1.59a.67.67,0,0,0-.66.67V67.5a.66.66,0,0,0,.66.67h1.59a3.75,3.75,0,0,0,.16.43v0a4.68,4.68,0,0,0,.2.45l-1.08,1.08,0,0a.65.65,0,0,0,0,.93l1.76,1.77h0a.66.66,0,0,0,.94,0l1.11-1.11.42.19,0,0,.47.17v1.58a.66.66,0,0,0,.67.66h2.51a.65.65,0,0,0,.66-.66V72.18l.47-.17a3.82,3.82,0,0,0,.46-.21L200,72.9h0a.66.66,0,0,0,.94,0l1.78-1.76v0a.65.65,0,0,0,0-.93l-1.12-1.12c.08-.15.14-.3.21-.45s.12-.3.17-.47h1.57a.66.66,0,0,0,.67-.66V65a.68.68,0,0,0-.68-.67Zm-.66,2.51h-1.41a.68.68,0,0,0-.66.57,5.5,5.5,0,0,1-.23.72,4.86,4.86,0,0,1-.37.72.64.64,0,0,0,.09.82h0l1,1-.84.85-1-1a.67.67,0,0,0-.86-.07,6.11,6.11,0,0,1-.67.35,5.07,5.07,0,0,1-.78.25.68.68,0,0,0-.52.65v1.41h-1.18V71.67a.66.66,0,0,0-.55-.65,4.57,4.57,0,0,1-.74-.24h0a4,4,0,0,1-.68-.36.68.68,0,0,0-.83.09h0l-1,1-.84-.85,1-1a.68.68,0,0,0,.1-.82,5,5,0,0,1-.38-.72v0a6.23,6.23,0,0,1-.24-.73.65.65,0,0,0-.64-.52h-1.42V65.65h1.42a.67.67,0,0,0,.66-.56,3.56,3.56,0,0,1,.23-.72v0a7.49,7.49,0,0,1,.36-.69.65.65,0,0,0-.09-.81h0l-1-1,.84-.84,1,1a.65.65,0,0,0,.83.09,4.34,4.34,0,0,1,.71-.37,4.17,4.17,0,0,1,.78-.25.64.64,0,0,0,.5-.64h0V59.4h1.18v1.41a.66.66,0,0,0,.57.65,6.08,6.08,0,0,1,.72.24,5,5,0,0,1,.73.37.65.65,0,0,0,.84-.12l1-1,.85.84-1,1a.66.66,0,0,0-.08.85,4.2,4.2,0,0,1,.36.7v0a3.67,3.67,0,0,1,.24.73.67.67,0,0,0,.65.52h1.42v1.18Zm-6.85-3.39h0a2.8,2.8,0,0,0-2.8,2.8,2.86,2.86,0,0,0,.82,2,2.81,2.81,0,0,0,4.79-2,2.82,2.82,0,0,0-2.81-2.8Zm1.42,4.22h0a2,2,0,0,1-1.42.59,2,2,0,0,1-2-2,2,2,0,0,1,2-2,2,2,0,0,1,2,2,2,2,0,0,1-.58,1.42Z"/><path class="cls-4" d="M215.35,75.42h-1.21c0-.11-.08-.22-.12-.33v0a3.54,3.54,0,0,0-.16-.34l.85-.85h0a.52.52,0,0,0,0-.73l-1.37-1.37h0a.51.51,0,0,0-.72,0l-.86.86-.35-.16-.36-.13V71.11a.51.51,0,0,0-.51-.51H208.6a.51.51,0,0,0-.51.51v1.22l-.36.13-.35.16-.84-.83,0,0a.52.52,0,0,0-.73,0l-1.36,1.36h0a.5.5,0,0,0,0,.73l.85.86a3.09,3.09,0,0,0-.14.32l0,0c-.05.12-.09.24-.13.36h-1.22a.51.51,0,0,0-.51.52v1.93a.51.51,0,0,0,.51.52H205c0,.11.08.22.13.33v0c0,.12.11.23.16.34l-.83.84,0,0a.49.49,0,0,0,0,.72L205.78,82h0a.53.53,0,0,0,.72,0l.86-.86.32.14,0,0a3,3,0,0,0,.36.13V82.7a.51.51,0,0,0,.51.51h1.94a.51.51,0,0,0,.51-.51V81.48l.36-.13.35-.16.84.85h0a.54.54,0,0,0,.73,0l1.36-1.36v0a.51.51,0,0,0,0-.72l-.86-.86c.06-.11.11-.23.16-.34a2.6,2.6,0,0,0,.13-.36h1.21a.52.52,0,0,0,.52-.52V75.94a.52.52,0,0,0-.52-.52Zm-.5,1.94h-1.09a.52.52,0,0,0-.51.43,4.59,4.59,0,0,1-.18.56,3.71,3.71,0,0,1-.29.56.51.51,0,0,0,.07.63h0l.77.77L213,81l-.78-.77a.52.52,0,0,0-.66-.06,5.12,5.12,0,0,1-.52.27,3,3,0,0,1-.6.19.53.53,0,0,0-.4.5v1.09h-.91V81.09a.5.5,0,0,0-.42-.5,3.47,3.47,0,0,1-.57-.19h0a3,3,0,0,1-.53-.28.53.53,0,0,0-.64.08h0l-.77.77-.65-.65.77-.77a.52.52,0,0,0,.08-.63,3,3,0,0,1-.29-.56v0a3.77,3.77,0,0,1-.18-.57.51.51,0,0,0-.5-.4h-1.09v-.91h1.09a.53.53,0,0,0,.51-.43,2.81,2.81,0,0,1,.18-.56v0a5.28,5.28,0,0,1,.27-.53.5.5,0,0,0-.07-.63h0l-.77-.78.65-.64.77.77a.5.5,0,0,0,.64.07,3.19,3.19,0,0,1,.55-.29,4.06,4.06,0,0,1,.59-.19.5.5,0,0,0,.4-.49h0V71.63H210v1.09a.51.51,0,0,0,.44.5,4.43,4.43,0,0,1,.55.18,3.81,3.81,0,0,1,.57.29.5.5,0,0,0,.64-.09l.75-.75.65.64-.77.77a.52.52,0,0,0-.06.66,2.77,2.77,0,0,1,.28.54v0a3.47,3.47,0,0,1,.19.57.51.51,0,0,0,.5.39h1.09v.92Zm-5.29-2.62h0a2.16,2.16,0,0,0-1.52.64,2.13,2.13,0,0,0-.63,1.52,2.15,2.15,0,1,0,2.15-2.16Zm1.1,3.26h0a1.56,1.56,0,0,1-2.19,0,1.59,1.59,0,0,1-.45-1.1,1.54,1.54,0,0,1,.45-1.08,1.55,1.55,0,0,1,2.64,1.08,1.55,1.55,0,0,1-.45,1.1Z"/><path class="cls-4" d="M214.07,54.65h-1c0-.09-.06-.18-.09-.27v0c0-.09-.08-.19-.13-.28l.68-.67h0a.41.41,0,0,0,0-.58l-1.1-1.1h0a.4.4,0,0,0-.57,0l-.69.69-.28-.13-.29-.11v-1a.41.41,0,0,0-.41-.41h-1.55a.41.41,0,0,0-.41.41v1l-.29.11-.28.13-.66-.67,0,0a.41.41,0,0,0-.58,0l-1.09,1.09h0a.41.41,0,0,0,0,.58l.69.69-.12.25v0a2.47,2.47,0,0,0-.1.29h-1a.41.41,0,0,0-.41.41v1.55a.41.41,0,0,0,.41.41h1c0,.09.06.18.1.27v0a1.69,1.69,0,0,0,.13.27l-.67.67,0,0a.41.41,0,0,0,0,.58l1.09,1.09h0a.43.43,0,0,0,.58,0l.68-.69.26.12h0l.29.1v1a.41.41,0,0,0,.41.41h1.55a.41.41,0,0,0,.41-.41v-1l.29-.1.28-.13.67.68h0a.43.43,0,0,0,.58,0l1.09-1.09h0a.41.41,0,0,0,0-.58l-.69-.69c0-.09.09-.18.13-.27a1.66,1.66,0,0,0,.1-.29h1a.41.41,0,0,0,.41-.41V55.06A.41.41,0,0,0,214.07,54.65Zm-.41,1.55h-.87a.42.42,0,0,0-.41.35,3.22,3.22,0,0,1-.14.44,3.17,3.17,0,0,1-.23.45.38.38,0,0,0,.06.5h0l.62.62-.51.52-.63-.62a.41.41,0,0,0-.53,0,3.17,3.17,0,0,1-.41.21,2.21,2.21,0,0,1-.48.15.42.42,0,0,0-.32.4v.88h-.73v-.88a.41.41,0,0,0-.34-.4,3,3,0,0,1-.45-.15h0a2.1,2.1,0,0,1-.42-.22.42.42,0,0,0-.51.06l-.62.62-.52-.52.62-.62a.41.41,0,0,0,.06-.5,2.38,2.38,0,0,1-.23-.45h0a4.11,4.11,0,0,1-.15-.46.4.4,0,0,0-.39-.32h-.88v-.73h.88a.41.41,0,0,0,.4-.34,2.16,2.16,0,0,1,.15-.45v0a4.32,4.32,0,0,1,.22-.43.39.39,0,0,0-.05-.5h0l-.62-.62.52-.52.62.62a.41.41,0,0,0,.51,0,3.61,3.61,0,0,1,.44-.23,3.68,3.68,0,0,1,.47-.15.41.41,0,0,0,.32-.4h0v-.87h.73v.87a.41.41,0,0,0,.35.41,3.22,3.22,0,0,1,.44.14,4.73,4.73,0,0,1,.45.23.4.4,0,0,0,.52-.07l.6-.6.52.52-.61.61a.41.41,0,0,0,0,.53,2.89,2.89,0,0,1,.22.43v0a2.16,2.16,0,0,1,.15.45.41.41,0,0,0,.4.32h.87Z"/><path class="cls-4" d="M209.43,54.1a1.72,1.72,0,0,0-1.72,1.73,1.71,1.71,0,0,0,1.72,1.73,1.72,1.72,0,0,0,1.74-1.73,1.74,1.74,0,0,0-1.74-1.73Zm.88,2.61a1.24,1.24,0,0,1-.88.36,1.27,1.27,0,0,1-.87-.36,1.26,1.26,0,0,1-.36-.88,1.23,1.23,0,0,1,.36-.87,1.27,1.27,0,0,1,.87-.36,1.23,1.23,0,0,1,1.24,1.23A1.26,1.26,0,0,1,210.31,56.71Z"/><path class="cls-4" d="M245.44,154.86a.66.66,0,0,1-.67-.66.67.67,0,0,1,.67-.67h4.33a.66.66,0,0,1,.67.67.66.66,0,0,1-.67.66Zm13.88,1.72h0l2.41,4.2a.67.67,0,0,1-.24.92.56.56,0,0,1-.5.06l-1.91-.5-.51,1.91a.68.68,0,0,1-.83.47.69.69,0,0,1-.43-.37l-1.52-2.63-1.55,2.69a.68.68,0,0,1-.92.24.76.76,0,0,1-.31-.4l-.51-1.91-1.9.5a.66.66,0,0,1-.82-.47.68.68,0,0,1,.08-.53l2.42-4.18a3.53,3.53,0,0,1-.29-1.42,3.81,3.81,0,0,1,3.8-3.81,3.82,3.82,0,0,1,3.8,3.81,3.9,3.9,0,0,1-.27,1.42Zm-5.59-.11h0l0,.05a2.46,2.46,0,0,0,3.77.36l0,0h0a2.47,2.47,0,0,0,.66-1.69,2.44,2.44,0,0,0-.71-1.75,2.45,2.45,0,0,0-4.18,1.75,2.33,2.33,0,0,0,.38,1.31Zm4.75,1.36h0a3.63,3.63,0,0,1-2.05,1h0v0h0l0,.05,1.32,2.29.26-1a.67.67,0,0,1,.83-.48l1,.26-1.28-2.22Zm-5.38,0h0l-1.27,2.22,1-.26h0a.66.66,0,0,1,.82.48l.27,1,1.3-2.29,0-.05h0a3.9,3.9,0,0,1-2.12-1.08Zm-10.9-20.56h13.3a1.09,1.09,0,0,1,.79.34l8.11,8.12a1,1,0,0,1,.34.79v16.92a2.94,2.94,0,0,1-.89,2.11h0l0,0a3.07,3.07,0,0,1-2.09.84H242.2a3,3,0,0,1-2.11-.88h0a3,3,0,0,1-.89-2.12V140.29a3.06,3.06,0,0,1,.89-2.13,3,3,0,0,1,2.12-.88Zm12.62,2.24H242.2a.86.86,0,0,0-.53.23.8.8,0,0,0-.22.54v23.16a.84.84,0,0,0,.22.54h0a.85.85,0,0,0,.54.23h19.53a.69.69,0,0,0,.53-.23h0a.79.79,0,0,0,.22-.54V147.2h-5.12a2.48,2.48,0,0,1-1.79-.75l0,0a2.57,2.57,0,0,1-.72-1.76v-5.12Zm6.53,6.32h0l-5.19-5.17v4a1.17,1.17,0,0,0,.34.82l0,0a1.21,1.21,0,0,0,.85.35Zm-15.93,3h13.26l0,0h.2v0h0l0,0h0v0h0v0h0v0h0v0h0v0h0l0,0h0v0h0l0,0h0l0,0v0h0v.07h0v0h0v0h0v0h0v.05h0v0h0l0,0h0v0l0,0h0v0h0v0l0,0h0v0h0v0h0v0h0v0h0v0h0l0,0h-.06l0,0h0l0,0h-.13v0H245.25v0h-.15v0h0v0H245l0,0h0v0h0v0h0v0h0v0h0v0h0l0,0v0h0v0h0v0l0,0h0v0h0v0h0v-.05h0v0h0v0h0v0h0v-.07h0l0,0v0h0v0h0v0h0l0,0h0v0h0v0h0v0h0v0h0v0h0l0,0h0v0h.21v0h.16Zm0-3.39h0a.68.68,0,0,1,0-1.36h7.22a.68.68,0,0,1,0,1.36Z"/><path class="cls-4" d="M213,242.78a1.09,1.09,0,1,0,1.08,1.08A1.09,1.09,0,0,0,213,242.78Z"/><path class="cls-4" d="M210.72,250a.64.64,0,0,0-.65-.65h-6V248h12a1.11,1.11,0,0,0,1.09-1.1V228.1A1.09,1.09,0,0,0,216,227H189.84a1.1,1.1,0,0,0-1.1,1.09v18.83a1.12,1.12,0,0,0,1.1,1.1h12v1.2l0,.1h-6.07a.64.64,0,0,0-.65.65.66.66,0,0,0,.65.66h14.28A.65.65,0,0,0,210.72,250Zm-19.79-4.14V229.19h24v16.65Z"/><path class="cls-4" d="M194.86,231.75h9.7a.39.39,0,0,1,.4.4h0v8.47a.4.4,0,0,1-.4.4h-9.7a.41.41,0,0,1-.41-.4h0v-8.47a.4.4,0,0,1,.41-.4Zm5.43,3.88h2.13a.24.24,0,0,1,.24.24h0V238a.24.24,0,0,1-.24.24h-2.13a.24.24,0,0,1-.24-.24h0v-2.13a.23.23,0,0,1,.24-.24Zm1.89.48h-1.65v1.65h1.65v-1.65Zm-2.73-.48h0a.23.23,0,0,1,.24.24.24.24,0,0,1-.24.24H197a.24.24,0,0,1-.24-.24.24.24,0,0,1,.24-.24Zm0,1.06h0a.24.24,0,0,1,.24.25.24.24,0,0,1-.24.24H197a.25.25,0,0,1,0-.49Zm0,1.07h0a.24.24,0,0,1,0,.48H197a.24.24,0,0,1,0-.48Zm3,1.07h0a.24.24,0,0,1,.24.24.24.24,0,0,1-.24.24H197a.24.24,0,0,1-.24-.24.24.24,0,0,1,.24-.24Zm1.09-5.84h0a.4.4,0,0,1,.4.4.4.4,0,1,1-.8,0,.4.4,0,0,1,.4-.4Zm-1,0h0a.4.4,0,0,1,.4.4.41.41,0,1,1-.81,0,.4.4,0,0,1,.41-.4Zm-1,0h0a.4.4,0,0,1,.41.4.41.41,0,1,1-.81,0,.4.4,0,0,1,.4-.4Zm-6.27,1.24h8.89v-1.68h-8.89v1.68Zm8.89.48h-8.89v5.51h8.89v-5.51Z"/><path class="cls-5" d="M149.08,11.2a138.09,138.09,0,0,0-49.24,9l.31.95a137.77,137.77,0,0,1,95-1l.45-.91A138.21,138.21,0,0,0,149.08,11.2Z"/><path class="cls-5" d="M248.9,53.66l-.59.83a137.74,137.74,0,0,1,33.33,57.87l1,0A138.84,138.84,0,0,0,248.9,53.66Z"/><path class="cls-5" d="M14.57,180l-.93.42a138.91,138.91,0,0,0,41.82,72l.9-.52A137.92,137.92,0,0,1,14.57,180Z"/><path class="cls-5" d="M54.48,49.89l-.66-.75a138.83,138.83,0,0,0-40.52,72l1,.08A137.84,137.84,0,0,1,54.48,49.89Z"/><path class="cls-5" d="M193.93,281.36l-.44-.91a137.88,137.88,0,0,1-90.81-.69l-.24,1a138.86,138.86,0,0,0,91.49.63Z"/><path class="cls-5" d="M286.7,168.1l-1-.06a137.66,137.66,0,0,1-42.76,82.76l.73.68A138.64,138.64,0,0,0,286.7,168.1Z"/></svg>